<svg xmlns="http://www.w3.org/2000/svg" width="366.117" height="156.02" viewBox="0 0 366.117 156.02"><defs><style>.a{fill:#ff7f66;}</style></defs><g transform="translate(217.864 -205.2)"><path class="a" d="M406.007,355.535a15.249,15.249,0,0,1,2.733-.056,41.612,41.612,0,0,1,5.578,1.162,11.909,11.909,0,0,1,2.618,1.6c.316.2.622.513.962.558,3.425.454,6.891.686,10.275,1.34a41.053,41.053,0,0,1,8.345,2.452c3.413,1.462,4.465,4.758,3.348,8.311a24.322,24.322,0,0,1-5.119,8.94c-1.2-.6-1.116-1.259-.372-2.162a21.753,21.753,0,0,0,4.313-7.877,4.872,4.872,0,0,0-1.828-5.667,9.342,9.342,0,0,0-6.2-2.15,16.345,16.345,0,0,1-3.02-.766c-2.634-.509-5.272-1.026-7.928-1.39a11.5,11.5,0,0,0-3.322.194c-.344.055-.609.605-.924.942,2.523.534,4.844,1.1,7.193,1.5a18.37,18.37,0,0,0,4.525.32,10.616,10.616,0,0,1,6.522,2c3.391,2.086,4.183,5.657,1.763,8.923-2.8,3.784-6,7.276-9.037,10.887-.493.587-1.032,1.136-1.55,1.7l.342.373,7.047-6.316c.589.525,1.368.876.3,1.86-8.181,7.54-15.727,15.816-24.841,22.276-4.826,3.421-10.065,6.268-15.167,9.291a37.18,37.18,0,0,1-10.8,4.677c-4.236.941-8.478,1.867-12.744,2.66-5.9,1.1-11.824,2.085-17.743,3.082-4.622.777-9.255,1.49-13.881,2.243-6.544,1.065-13.141,1.9-19.429,4.148-4.907,1.752-9.217,4.573-13.462,7.541-3.817,2.669-7.665,5.327-11.7,7.646-3.841,2.209-8.191,3.081-12.585,3.539-3.442.359-6.939.383-10.332.993-7.515,1.35-14.994.236-22.489.064-3.573-.082-7.148-.088-10.721-.158-11.13-.219-20.908-4.112-29.639-10.885-4.9-3.8-4.955-9.181-2.618-14.167,2.483-5.3,6.786-8.931,11.365-12.271a54.011,54.011,0,0,1,5.221-3.12c3.827-2.175,7.628-4.4,11.519-6.458,4.122-2.178,8.414-4.04,12.487-6.3a28.792,28.792,0,0,0,9.618-7.93c1.883-2.574,2.008-4.86.071-6.219a10.75,10.75,0,0,0-3.852-1.616c-4.434-.946-8.9-1.764-13.361-2.558-3.987-.71-8.027-1.158-11.976-2.024-4.153-.911-8.194-2.25-11.067-5.726-2.29-2.771-2.152-5.365.866-7.321a69.236,69.236,0,0,1,8.656-4.442c4.025-1.865,8.112-3.591,11.162-7,2.778-3.1,2.744-5.938-.195-8.861a27.653,27.653,0,0,0-9.756-6c-3.8-1.462-7.77-2.479-11.69-3.607a31.485,31.485,0,0,0-3.329-.474,4.772,4.772,0,0,1-1.1-.5l.082-.44c.442,0,.888-.034,1.326.005a48.521,48.521,0,0,1,19.215,6.044A28.344,28.344,0,0,1,235.4,342.3c3.573,3.339,3.7,6.436.864,10.328-1.888,2.594-4.567,4.2-7.37,5.583-3.659,1.811-7.358,3.541-11.034,5.317a7.683,7.683,0,0,0-.99.622c-3.114,2.145-3.055,5.109.109,7.242a30.1,30.1,0,0,0,11.651,4.464c5.423.983,10.894,1.7,16.335,2.592,2.736.446,5.479.9,8.171,1.543,5.669,1.364,5.848,6.19,3.415,10.031-2.228,3.517-5.561,5.864-9.108,7.823-5.026,2.776-10.217,5.25-15.268,7.981-6.953,3.761-13.641,7.915-19.031,13.841a8.555,8.555,0,0,1-1.519,1.37c-3.6,2.408-4.371,5.983-4.285,9.983.085,3.948,2.567,6.225,5.506,8.235a35.935,35.935,0,0,0,17.8,6.365c3.991.306,7.99.68,11.987.7a70.275,70.275,0,0,1,11.462,1.326,65.469,65.469,0,0,0,8.05.445c.73.032,1.462.005,2.269.005a4.8,4.8,0,0,0,.178.491c.2.426.421.844.633,1.266a12.668,12.668,0,0,1,.888-1.051c.336-.325.71-.8,1.108-.845,3.351-.379,6.721-.594,10.066-1.01a41.462,41.462,0,0,0,20.98-8.93c4.854-3.852,9.768-7.685,15.688-9.727a91.3,91.3,0,0,1,12.408-3.254c5.84-1.13,11.749-1.9,17.633-2.809,5.788-.889,11.608-1.6,17.364-2.662,6.706-1.237,13.393-2.624,20.023-4.218,6.441-1.548,12.023-4.93,17.289-8.872,5.914-4.428,11.968-8.675,17.768-13.245a80.2,80.2,0,0,0,8.244-7.876c3.355-3.526,6.618-7.149,9.744-10.879a6.241,6.241,0,0,0,1.512-6.122c-.933-2.912-5.185-4.894-8.166-4.362-2.176.389-4.524-.108-6.787-.314a16.1,16.1,0,0,1-3.431-.693c-1.762-.565-3.226.707-4.89.64-.434-.018-.953.244-1.295.084-2.236-1.05-4.618-1.1-7.012-1.258a5.7,5.7,0,0,1-3.855-2,1.835,1.835,0,0,1-.379-2.362c1.279-2.506,2.732-3.171,5.928-2.572a17.592,17.592,0,0,0-3.878,1.3c-.688.415-1.453,1.768-1.241,2.364a3.775,3.775,0,0,0,2.276,2.209,34.835,34.835,0,0,0,5.667.365c1.062-1.422,1.882-2.645,2.837-3.751.586-.678.526-1.012-.3-1.21C409.617,356.352,407.81,355.95,406.007,355.535Zm-52.655,67.375-.033-.273a11.178,11.178,0,0,0-1.538.01c-4.254.6-8.513,1.167-12.755,1.841-4.908.781-9.818,1.571-14.692,2.529a64.288,64.288,0,0,0-8.329,2.222c-5.21,1.778-9.744,4.8-14.083,8.126-5.067,3.882-10.112,7.8-16.392,9.606-.971.279-1.938.569-2.907.854l.172.6c2.1-.554,4.239-.983,6.285-1.69,3.995-1.38,7.4-3.822,10.828-6.235a127.134,127.134,0,0,1,11.054-7.307c5.967-3.328,12.533-5.082,19.238-6.257,5.235-.918,10.487-1.732,15.726-2.628C348.409,423.886,350.877,423.379,353.352,422.909Zm-98.2,26.984.03-.234a5.292,5.292,0,0,0-.8-.206c-4.616-.452-9.225-1.133-13.85-1.284-7.695-.252-15.307-.756-22.59-3.54a18.246,18.246,0,0,0-1.839-.5,1.464,1.464,0,0,0,.819.886,42.039,42.039,0,0,0,15.313,4.075q9.312.431,18.626.794C252.287,449.942,253.721,449.893,255.152,449.893Zm164.087-56.11-.307-.415-23.581,17.652C404.594,407.005,411.548,399.9,419.239,393.784Zm-210.616,43.45a6.573,6.573,0,0,0-.5-.914c-2.85-3.308-1.866-11.105,1.017-13.913.866-.844,1.836-1.586,2.662-2.465,1.643-1.75,3.219-3.564,4.823-5.351.023.191-.174.21-.293.316-2.564,2.307-5.263,4.488-7.634,6.98a14.32,14.32,0,0,0-3.7,8.124C204.631,432.784,206.193,436.1,208.623,437.233Zm205.249-74.477a14.25,14.25,0,0,0,.824-1.2,7.892,7.892,0,0,1,.891-1.753c.88-.887.433-1.38-.373-1.783-1.412-.707-2.346.259-3.135,1.149a11.816,11.816,0,0,0-1.3,2.356c.718.319,1.435.642,2.156.953C413.116,362.553,413.311,362.59,413.873,362.756Zm-43.241,57.051c6.077-.752,12.147-1.713,17.593-4.861Z" transform="translate(-297.141 -89.738)"/><path class="a" d="M-213.809,271.931c.917-.875,1.239-.588,1.705.391,3.14,6.6,7.429,12.18,14.1,15.622,6.225,3.21,12.018,1.508,16.737-3.215.528-.528,1-1.115,1.479-1.656-.191-.21-.264-.349-.316-.341-3.981.573-6.156-2-7.955-4.845a61.164,61.164,0,0,1-4.911-9.091,72.577,72.577,0,0,1-2.671-9.232c-.342-1.283-.524-2.608-.778-3.914l.475-.16a3.632,3.632,0,0,1,.464.987,42.368,42.368,0,0,0,6.845,18.3,54.855,54.855,0,0,0,3.866,5.25,5.517,5.517,0,0,0,5.662,1.539c.953-.239,1.529-2,2.249-3.082.026-.039-.2-.315-.353-.394-3.862-1.992-5.3-5.674-6.564-9.455-1.078-3.233-1.987-6.524-3.118-9.738a35.071,35.071,0,0,1-1.651-18.714c.889-4.546,1.559-9.142,3.7-13.33a12.746,12.746,0,0,1,2.158-3.13c-.459,1-.89,2.008-1.381,2.988a42.946,42.946,0,0,0-3.5,12.17c-.712,4.13-1.247,8.266-.435,12.39a69.894,69.894,0,0,0,2.676,9.852c1.46,4.112,3.181,8.142,4.988,12.116a10.388,10.388,0,0,0,2.7,3.17c.993.88,1.987.341,2.5-.694a44.34,44.34,0,0,0,4.545-14.874c.071-.628.336-1.241.353-1.866a2.423,2.423,0,0,0-.338-1.609,6.419,6.419,0,0,1-1.695-4.57,58.965,58.965,0,0,1,.59-9.494c.244,4.08-.48,8.233,1.377,12.5a5.816,5.816,0,0,0,.418-1.521c-.2-3.754-.352-7.514-.7-11.256-.838-9.041-4.715-16.9-9.773-24.239a16.588,16.588,0,0,0-9.35-7.06,10.734,10.734,0,0,0-2.455.161c-8.286-.087-12.471,5.347-15.509,11.91-2.088,4.511-3,9.427-3.739,14.379a70.911,70.911,0,0,0-.312,17.845c.289,2.8,1.023,5.554,1.518,8.335a12.942,12.942,0,0,1,.077,1.847c.006.185-.061.4.014.551,1.718,3.361,3.245,6.844,5.245,10.029a65.607,65.607,0,0,0,5.887,7.409c2.231,2.616,5.505,2.935,8.582,3.651a2.517,2.517,0,0,1,1.2.576,11.384,11.384,0,0,1-7.959-1.016c-3.906-2.134-6.487-5.518-8.707-9.208a52.124,52.124,0,0,1-6.643-18.725,74.586,74.586,0,0,1-.3-20.328c.722-6.537,2.119-13,5.663-18.726,3.049-4.925,7.177-8.411,13.114-9.309.075-.011.138-.1.379-.293a8.2,8.2,0,0,0-5.6.78c-3.735,1.562-6.347,4.448-8.446,7.786a55,55,0,0,0-7.216,17.764,53.879,53.879,0,0,0-.888,19.5c.214,1.449.316,2.916.453,4.375a1.518,1.518,0,0,1-.055.862c-1.01,1.607-.334,2.807.728,4.087a6.941,6.941,0,0,1,1.049,2.508c.086.3-.231.709-.364,1.068-.3-.224-.794-.4-.873-.681-.7-2.535-1.418-5.07-1.946-7.643a56.772,56.772,0,0,1-.453-19.138c1.329-9.759,4.628-18.812,11.2-26.374a16,16,0,0,1,11.308-5.564c7.018-.611,11.529,2.853,15.3,7.96a56.589,56.589,0,0,1,8.6,17.319,59.306,59.306,0,0,1,2.09,20.6,51.881,51.881,0,0,1-2.837,14.9c-2.375,6.565-5.361,12.8-11.135,17.15-5.112,3.854-10.643,3.795-16.145,1.082-6.759-3.332-11.041-9.044-14.2-15.7C-213.321,272.973-213.547,272.489-213.809,271.931Z" transform="translate(0 -3.445)"/><path class="a" d="M609.284,242.248c-12.32-.627-29.662,10.569-35.28,21.018-3.5,6.511-6.807,13.031-8.416,20.29-1.38,6.23-1.1,12.541-.892,18.85a21.713,21.713,0,0,1-.34,5.079c-.231-.91-.484-1.815-.689-2.731a40.5,40.5,0,0,1-.147-14.727,70.774,70.774,0,0,1,3.712-15.16c4.272-11.264,10.611-20.92,21.437-26.942,2.711-1.508,5.632-2.637,8.458-3.937a4.422,4.422,0,0,0,1.643-1.078,7.412,7.412,0,0,0-1.209-.055,183.729,183.729,0,0,1-26.789,1.519c-5.617-.183-11.227-.554-16.844-.694-2.486-.062-5,.467-7.47.322-3.194-.186-6.357-1.026-9.547-1.117a26.88,26.88,0,0,0-7.663.92c-11.24,3.033-19.305,10.268-25.043,20.086a72.075,72.075,0,0,0-5.338,12.593,49.617,49.617,0,0,0-3.006,17.508,48.517,48.517,0,0,0,9.733,28.875,19.755,19.755,0,0,0,10.983,7.773c.349.089.533.82.794,1.253l-.44.559c2.173.409,4.333.918,6.522,1.205,3.877.508,7.791.755,11.652,1.352,3.124.483,6.193,1.321,9.286,2,3.716.816,7.406,1.786,11.153,2.409,6.118,1.019,12.274,1.808,18.413,2.7,3.912.569,7.839,1.054,11.727,1.762a64.51,64.51,0,0,1,6.446,1.789c.2.057.338.3.808.753a14.746,14.746,0,0,1-1.707-.122c-3.95-.832-7.883-1.752-11.846-2.509-3.256-.622-6.543-1.087-9.824-1.569-4.883-.718-9.8-1.254-14.652-2.127-3.834-.689-7.581-1.852-11.4-2.655q-6.648-1.4-13.354-2.519c-4.044-.671-8.131-1.085-12.174-1.76a11.706,11.706,0,0,1-2.8-1.379,3.575,3.575,0,0,0-1.221-.416c-5.963-.452-10.122-3.918-13.632-8.313A40.732,40.732,0,0,1,492.8,306.6a58.339,58.339,0,0,1-1.222-19.385C493,273.335,498.32,261.2,508.91,251.74a39.444,39.444,0,0,1,15.852-8.665,24.938,24.938,0,0,1,12.091-.74c7.138,1.653,14.2.549,21.281.77,3.271.1,6.532.482,9.8.684a146.367,146.367,0,0,0,26.505-1.218c2.587-.31,5.229-.134,7.844-.241,1.07-.044,2.133-.345,3.2-.353C606.749,241.968,608.017,242.15,609.284,242.248Zm-88.27,3.639-.149-.263a8.158,8.158,0,0,0-1.47.557c-3.014,1.852-6.237,3.454-8.968,5.662-11.2,9.055-16.222,21.355-17.812,35.288a55.206,55.206,0,0,0,1.293,19.347,37.293,37.293,0,0,0,8.3,16.5c1.244,1.392,2.737,2.562,4.116,3.834l.318-.322a4.038,4.038,0,0,0-.426-.733,48.021,48.021,0,0,1-6.4-9.871,45.51,45.51,0,0,1-4.726-27.963,78.564,78.564,0,0,1,4-16,45.814,45.814,0,0,1,16.8-22.726C517.541,248.022,519.3,246.988,521.014,245.888Z" transform="translate(-500.763 -25.904)"/><path class="a" d="M89.674,273.454a5.912,5.912,0,0,1,1.26.814,1.445,1.445,0,0,0,2.19.352c.839-1.032,2.368-1.252,2.87-2.659.1-.291.9-.333,1.382-.49l.135.335-1.563,2.054a2.742,2.742,0,0,0,2.873-1.019c1.041-1.316,2.49-2.3,3.671-3.517,1.494-1.539,2.971-3.119,3.224-5.419.023-.2.226-.39.384-.647.526,1.777.281,2.967-1.4,5.252-1.095,1.489-2.416,2.811-3.925,4.538,1.966-.367,3.461-.369,4.588-1.917,1.838-2.526,3.7-5,4.426-8.133l.482.107a23.573,23.573,0,0,1-.709,3.342,17.128,17.128,0,0,1-1.7,3.38,31.188,31.188,0,0,1-2.211,2.762l.162.417a43.35,43.35,0,0,0,5.036-1.5c5.594-2.4,9.256-6.844,12-12.063,3.1-5.881,4.871-12.167,4.327-18.866a48.345,48.345,0,0,0-11.5-27.736,16.19,16.19,0,0,0-12.1-6.169,3.528,3.528,0,0,1-1.279-.28c-.245-.113-.383-.459-.569-.7.3-.172.645-.543.889-.485a56.008,56.008,0,0,1,7.885,2.057c4.088,1.63,6.658,5.1,9.138,8.55a46.307,46.307,0,0,1,7.713,16.73c3.034,13.27.653,25.3-8.946,35.4a16.454,16.454,0,0,1-13.134,5.333c-1.354-.057-2.729.6-4.106.871-2.964.583-5.927,1.183-8.908,1.672C90.285,276.14,90.272,276.059,89.674,273.454Z" transform="translate(-217.173)"/><path class="a" d="M-79.094,408.47c-1.781,7.566-6.814,13.1-12.02,18.885,4.532-.673,8.711-1.286,12.885-1.926a1.86,1.86,0,0,0,1.044-.446c3.528-3.875,7.47-7.443,9.461-12.489a25.268,25.268,0,0,1-7.721,12.312c1.591.054,3.108.118,4.332-1.167a29.37,29.37,0,0,0,6.9-11.214,2.572,2.572,0,0,1,.7-1.043,24.907,24.907,0,0,1-5.655,12.436c1.619-.314,3.287.033,4.387-1.822,2.071-3.494,4.422-6.822,6.415-9.85a35.248,35.248,0,0,1-5.924,10.69,4.448,4.448,0,0,0,4.482-1.644,21.134,21.134,0,0,0,4.386-9.445,3.415,3.415,0,0,1,.328-.815,6.06,6.06,0,0,1,.506-.652c-.689,4.495-1.534,8.48-4.866,11.965l3.351-.52a24.2,24.2,0,0,1,2.321-3.17,17.417,17.417,0,0,0,5.016-9.862c1.052,2.405-1.827,8.327-6,12.573,1.574.231,3.219.066,4.019-.855a86.316,86.316,0,0,0,6.166-8.293A16.935,16.935,0,0,0-43.21,408.5c.516,2.663-.565,5.057-4.851,11.752l2.2-1.294,1.887,1.766-49.609,7.91C-88.125,422.414-81.621,416.841-79.094,408.47Z" transform="translate(-87.76 -143.543)"/><path class="a" d="M732.443,330.723c-.85,2.313-1.669,4.638-2.555,6.937-2.758,7.152-4.924,14.434-4.519,22.212a55.258,55.258,0,0,0,3.021,15.9q2.219,6.178,4.462,12.347a24.087,24.087,0,0,0,10.085,12.085c2.966,1.909,6.241,3.339,9.366,5a6.8,6.8,0,0,1,1,.8l-.316.537c-1.437-.624-2.888-1.219-4.31-1.876a37.913,37.913,0,0,1-11.38-7.762c-3.445-3.507-5.4-7.806-6.925-12.364-1.049-3.138-2.139-6.265-3.111-9.427a52.835,52.835,0,0,1-2.366-19.95,62.192,62.192,0,0,1,5.444-21.127c.365-.8.762-1.576,1.172-2.349.2-.376.464-.718.7-1.075Z" transform="translate(-665.638 -88.57)"/><path class="a" d="M803.543,371.417a5.629,5.629,0,0,1-4.548-1.6c-2.924-2.8-4.9-6.268-6.892-9.727a26.794,26.794,0,0,1-3.334-16.378c.912-9.25,3.687-17.787,10.924-24.168,6.822-6.015,14.781-8.776,23.908-7.419a12.781,12.781,0,0,1,8.082,4.561c.074.088.038.269.033.223-1.883-1.059-3.791-2.244-5.8-3.23a15.158,15.158,0,0,0-8.584-1.266A29.037,29.037,0,0,0,792,332.835a40.578,40.578,0,0,0-2.218,17.861c.49,4.256,2.449,7.978,4.615,11.587,1.628,2.711,3.25,5.453,5.928,7.3C801.339,370.281,802.468,370.811,803.543,371.417Z" transform="translate(-710.743 -75.269)"/><path class="a" d="M-97.064,305.231c-1.565.807-2.53.606-3.388-.923a25.73,25.73,0,0,1-2.523-5.563c-1.761-6.35-3.215-12.785-3.015-19.436.182-6.056.734-12.085,2.864-17.824a50.272,50.272,0,0,1,2.5-5.028l.39.18c-.711,2.147-1.381,4.308-2.141,6.438a50.176,50.176,0,0,0-2.7,17.982,57.757,57.757,0,0,0,2.549,14.35c.529,1.92,1.092,3.833,1.727,5.72C-100.174,302.985-99.386,304.762-97.064,305.231Z" transform="translate(-78.988 -36.195)"/><path class="a" d="M-105.909,209.162c3.112.207,6.222.507,9.338.6,3.5.1,7.014.074,10.518-.014,3.031-.076,6.056-.4,9.087-.462,6.657-.135,13.32-.043,19.972-.295,4.777-.18,9.535-.837,14.31-1.128a19.864,19.864,0,0,1,4.313.552,2.964,2.964,0,0,1,.895.523l-.078.388c-.332.032-.72.194-.987.078-2.954-1.286-5.972-.633-8.975-.337-2.426.239-4.843.7-7.271.757-5.824.13-11.656-.039-17.478.134-5.475.162-10.94.812-16.413.864-4.429.042-8.864-.466-13.294-.774-1.306-.091-2.6-.332-3.9-.5Z" transform="translate(-79.059 -1.87)"/><path class="a" d="M-123.435,302.11a26.922,26.922,0,0,1-8.925-11.972,39.8,39.8,0,0,1-2.551-15.22c.075-4.878,1.338-9.546,2.734-14.184,1.152-3.825,2.236-7.67,3.342-11.509.579-2.012,1.362-3.881,3.338-4.974-2.715,2.845-3.148,6.583-4.093,10.131-.663,2.492-1.467,4.947-2.229,7.412a50.532,50.532,0,0,0-1.7,21.283c.865,7.212,4.772,12.5,9.621,17.385a7.885,7.885,0,0,1,.9,1.4Z" transform="translate(-58.575 -27.576)"/><path class="a" d="M798.671,476.673c-9.66,2.316-21.544-2.188-26.842-11.568a43.835,43.835,0,0,1-4.239-12.373c-.4-1.809-.915-3.594-1.323-5.4a7.053,7.053,0,0,1-.016-1.516l.539-.025c.241,1.121.5,2.239.719,3.365,1.043,5.461,2.086,10.916,5.195,15.7,3.665,5.637,8.542,9.567,15.321,10.674,2.782.454,5.616.593,8.426.882C797.192,476.482,797.931,476.583,798.671,476.673Z" transform="translate(-694.924 -169.896)"/><path class="a" d="M-86.268,321.162c-.506.843-1.288,1-2.108,0a18.892,18.892,0,0,1-2.279-3.528c-2.941-5.86-3.252-12.062-2.289-18.426.511-3.379.869-6.783,1.421-10.155.313-1.913.864-3.788,1.345-5.671.059-.231.35-.4.533-.6l.373.188c-.433,2.017-.915,4.026-1.29,6.054a82.7,82.7,0,0,0-1.584,19.833,20.439,20.439,0,0,0,3.335,10.009A13.306,13.306,0,0,0-86.268,321.162Z" transform="translate(-87.869 -54.785)"/><path class="a" d="M774.211,500.357a22.128,22.128,0,0,1-10.889-4.841,34.945,34.945,0,0,1-10-14.123,57.069,57.069,0,0,1-3.286-13.146,1.3,1.3,0,0,1,.191-.9c.469,1.909.954,3.815,1.4,5.729,1.478,6.312,3.654,12.286,7.928,17.336a29.457,29.457,0,0,0,11.926,8.107c1.013.408,1.962.976,2.941,1.471Z" transform="translate(-683.492 -185.115)"/><path class="a" d="M925.893,276.292c15.592,4,27.719,26.263,21.957,43.6a3.541,3.541,0,0,1-.114-.987c.292-1.73.552-3.47.965-5.173.8-3.317.155-6.541-.649-9.709a54.205,54.205,0,0,0-4.984-13.066,32.555,32.555,0,0,0-13.4-12.79C928.432,277.5,927.151,276.915,925.893,276.292Z" transform="translate(-807.684 -50.203)"/><path class="a" d="M-76.739,300.92c0,.466.032.935,0,1.4-.369,4.621-.8,9.237-1.111,13.862a23.87,23.87,0,0,0,2.141,10.655c.262.643.4,1.335.6,2l-.37.212a8.463,8.463,0,0,1-.977-1.069c-2.471-3.83-2.959-8.133-2.593-12.5.377-4.51,1.11-8.991,1.7-13.482a6.616,6.616,0,0,1,.35-1.115Z" transform="translate(-97.948 -67.567)"/><path class="a" d="M-135.688,237c-4.088,5.212-7.311,10.535-8.86,16.716a50.438,50.438,0,0,0-1.552,18.682l-.5.139a5.887,5.887,0,0,1-.482-1.481,52.42,52.42,0,0,1,1.459-16.1,45.359,45.359,0,0,1,9.122-17.581C-136.394,237.245-136.172,237.214-135.688,237Z" transform="translate(-49.926 -22.453)"/><path class="a" d="M959.922,288.538A79.829,79.829,0,0,0,955,268.718c-3.358-8.718-9.044-15.272-17.924-18.733a51.321,51.321,0,0,1-5.112-2.164c1.765.553,3.574.994,5.287,1.677,9.722,3.874,15.593,11.22,18.888,20.941a76.7,76.7,0,0,1,3.584,15.054C959.852,286.5,959.86,287.522,959.922,288.538Z" transform="translate(-811.973 -30.097)"/><path class="a" d="M877.1,555.785c15.755,1.035,26.766-6.367,34.556-19.5C903.495,551.836,890.051,557.563,877.1,555.785Z" transform="translate(-773.23 -233.804)"/><path class="a" d="M97.553,242.518c-.284-2.069-.5-4.15-.866-6.2-.936-5.3-2.987-9.965-7.757-12.992a1.61,1.61,0,0,1-.284-.341C95.3,225.017,99.038,236.3,97.553,242.518Z" transform="translate(-216.447 -12.555)"/><path class="a" d="M47.7,243.768c.775-9.808-.854-12.736-10.418-18.684,4.95,1.072,8.018,4.376,10.083,8.771A11.454,11.454,0,0,1,47.7,243.768Z" transform="translate(-180.177 -14.041)"/><path class="a" d="M34.7,247.049c-.155-1.67-.314-3.341-.462-5.012-.384-4.333-1.274-8.489-4.336-11.83-.8-.876-1.733-1.635-2.593-2.437C32.872,229.942,36.051,239.116,34.7,247.049Z" transform="translate(-173.133 -15.938)"/><path class="a" d="M5.953,241.263c3.367,3.47,5.615,12.045,4.124,16.7C9.331,252.053,9.069,246.3,5.953,241.263Z" transform="translate(-158.052 -25.466)"/><path class="a" d="M71.905,242.652a35.978,35.978,0,0,1-1.273-4.208c-.983-5.516-3.215-10.267-8.08-13.662C67.968,226.271,71.757,236.344,71.905,242.652Z" transform="translate(-198.021 -13.827)"/><path class="a" d="M-25.569,235.474a16.2,16.2,0,0,1,8.208,9.891c.783,2.508,1.424,5.06,2.119,7.6.056.2.032.428-.3.725a29.356,29.356,0,0,1-1.593-4.753,18.99,18.99,0,0,0-7.7-12.783A9.433,9.433,0,0,1-25.569,235.474Z" transform="translate(-135.792 -21.378)"/><path class="a" d="M121.669,246.315c-1.877-5.775-3.1-11.864-8.775-15.9C117.13,231.834,122.249,241.276,121.669,246.315Z" transform="translate(-233.571 -17.804)"/><path class="a" d="M128.861,239.232c-.391-1.863-.847-3.715-1.16-5.592-.82-4.921-3.228-8.652-8.049-10.917a6.312,6.312,0,0,1,4.453,2.069c2.895,2.958,3.9,6.761,4.642,10.668.23,1.217.433,2.439.648,3.658Z" transform="translate(-238.344 -12.375)"/><path class="a" d="M80.65,223.942c6.376,7.192,8.739,14.392,6.659,19.767.354-3.617.346-7.264-1.255-10.549C84.5,229.967,82.471,227.005,80.65,223.942Z" transform="translate(-210.801 -13.235)"/><path class="a" d="M764.718,409.379c-.429-.358-.826-.526-.843-.727a26.664,26.664,0,0,1,.843-10.611Z" transform="translate(-693.156 -136.178)"/><path class="a" d="M876.929,270.689c-3.447-.343-6.594-.968-9.721-.878-3.072.088-6.123.9-9.5,1.452A29.113,29.113,0,0,1,876.929,270.689Z" transform="translate(-759.536 -45.292)"/><path class="a" d="M28.753,253.953l3.4,10.2-.363.125c-1.8-3.17-2.131-6.847-3.421-10.194Z" transform="translate(-173.884 -34.428)"/><path class="a" d="M85.108,415.227a6.18,6.18,0,0,1,.269-1.461c.769-1.724,1.6-3.419,2.344-4.978a9.614,9.614,0,0,1-2.139,6.532Z" transform="translate(-213.949 -143.767)"/><path class="a" d="M119.923,410.257l1.928-5.476.339.05-1.355,5.607Z" transform="translate(-238.534 -140.937)"/><path class="a" d="M1023.3,428l-1.47,10.606-.361-.046L1022.987,428Z" transform="translate(-875.175 -157.333)"/><path class="a" d="M1027.671,400.754v-9.745l.139,0v9.725Z" transform="translate(-879.557 -131.211)"/><path class="a" d="M78.773,431.088v1.519l-1.559-.5,1.159-1.09Z" transform="translate(-208.375 -159.462)"/></g></svg>