<svg xmlns="http://www.w3.org/2000/svg" xmlns:xlink="http://www.w3.org/1999/xlink" width="415" height="395" viewBox="0 0 415 395"><defs><style>.a{fill:#323234;}.b{clip-path:url(#a);}.c{opacity:0.05;}.d,.e,.f{fill:#fff;}.e{stroke:#ff00a6;}.e,.f{stroke-linecap:round;stroke-linejoin:round;stroke-width:11.477px;}.f{stroke:#f0f;}</style><clipPath id="a"><rect class="a" width="415" height="395"/></clipPath></defs><g class="b"><g class="c" transform="matrix(0.438, 0.899, -0.899, 0.438, 225.352, -33.306)"><g transform="translate(20.456 15.757)"><g transform="translate(0.433 73.572)"><g transform="translate(0.045 7.497)"><path class="d" d="M305.684,171.164c-57.12-.557-128.864-41.157-183.515-72.081-11.879-6.722-23.1-13.07-33.141-18.431C67.234,69.023,48.265,65.588,32.643,70.447A43.6,43.6,0,0,0,7.718,90.606,3.753,3.753,0,0,1,2.7,92.287a3.749,3.749,0,0,1-1.818-4.97A50.211,50.211,0,0,1,30.089,63.394c17.674-5.555,38.68-1.945,62.433,10.731,10.128,5.4,21.388,11.777,33.31,18.523,63.33,35.835,150.062,84.913,206.9,67.47,21.772-6.681,44.546-33.36,68.659-61.606C426.585,69,455.144,35.541,488.8,17.3c39.238-21.269,78.9-18.564,121.264,8.267a3.727,3.727,0,0,1,1.208,5.148,3.772,3.772,0,0,1-5.2,1.089C566.283,6.6,529.147,3.994,492.542,23.834c-32.458,17.594-60.549,50.5-85.335,79.535-25.9,30.341-48.272,56.545-72.1,63.86A96.824,96.824,0,0,1,305.684,171.164Z"/></g><g transform="translate(0.05 8.429)"><path class="d" d="M326.224,132.442c-40.685-.4-84.763-21.78-130.768-44.094-24.448-11.858-49.727-24.12-75.234-33.564C84.77,41.656,55.122,43.453,32.1,60.125A76.844,76.844,0,0,0,7.8,89.469,3.736,3.736,0,0,1,2.9,91.45,3.765,3.765,0,0,1,.784,86.583,82.752,82.752,0,0,1,27.259,54.313,80.224,80.224,0,0,1,65.116,39.459c17.378-2.177,36.771.637,57.642,8.364,25.86,9.575,51.312,21.921,75.927,33.86,59.56,28.89,115.817,56.18,163.567,36.723,21.212-8.641,41.631-27.926,63.248-48.342,47.5-44.859,101.33-95.7,181.638-47.174a3.73,3.73,0,0,1,1.321,5.124,3.768,3.768,0,0,1-5.176,1.2C569.639,8.884,538.067,5.367,506.765,18.459c-28.007,11.714-52.4,34.749-75.983,57.026-22.131,20.9-43.034,40.644-65.528,49.808A99.6,99.6,0,0,1,326.224,132.442Z"/></g><g transform="translate(0.051 8.65)"><path class="d" d="M347.938,95.369a124.285,124.285,0,0,1-22.6-2.4c-23.327-4.549-47.475-14.917-75.436-26.921-28.3-12.154-60.387-25.926-98.643-36.534-45.714-12.677-83.734-6.482-113,18.408-21.836,18.568-30.321,41-30.4,41.221a3.725,3.725,0,0,1-4.838,2.136A3.773,3.773,0,0,1,.743,86.466c.367-.989,9.24-24.439,32.506-44.224A109.094,109.094,0,0,1,80.371,18.71c21.832-4.926,46.324-3.7,72.795,3.639C191.929,33.1,224.268,46.98,252.8,59.23c54.994,23.612,94.728,40.67,139.013,18.192,17.2-8.729,33.374-19.858,49.019-30.621,24.292-16.711,47.237-32.5,73.341-39.722C543.565-1.058,573,3.464,604.17,20.9a3.7,3.7,0,1,1-3.631,6.454C535.4-9.093,491.6,21.034,445.237,52.932c-15.844,10.9-32.228,22.169-49.862,31.121A100.158,100.158,0,0,1,347.938,95.369Z"/></g><g transform="translate(0 0)"><path class="d" d="M4.381,100.175a3.884,3.884,0,0,1-1.261-.226A3.776,3.776,0,0,1,.772,95.179C1.2,93.952,11.605,64.8,39.383,38.985A139.6,139.6,0,0,1,95.817,6.827c26.278-7.65,55.855-8,87.909-1.034,50.156,10.9,86.518,24.621,115.735,35.649,51.053,19.271,79.176,29.885,122,3.876,37.9-23.021,65.106-34.083,90.969-36.984C539.633,5.28,567,11.267,601.157,27.746a3.7,3.7,0,1,1-3.212,6.672C535.677,4.38,497,8.253,425.513,51.674c-19.853,12.059-36.94,16.716-54.1,16.55-22.563-.22-45.25-8.785-74.535-19.839C267.9,37.447,231.836,23.834,182.238,13.059,126.517.955,80.291,11.444,44.846,44.241,18.278,68.822,8.017,97.443,7.917,97.729A3.686,3.686,0,0,1,4.381,100.175Z"/></g></g><g transform="translate(228.25 1.331)"><g transform="translate(0)"><path class="d" d="M130.265,115.878C78.077,115.367,20.391,85.146,1.672,48.509.078,45.39-.977,40.316,3.049,33.857,13.472,17.135,53.1.12,101.37.593a200.519,200.519,0,0,1,23.683,1.642c31.292,4.051,60.735,11.026,82.907,19.64,26.645,10.353,40.76,22.139,41.953,35.033.9,9.781-5.816,19.292-19.974,28.271-14.612,9.264-37.646,18.307-68.462,26.876A112.567,112.567,0,0,1,130.265,115.878ZM101.444,8.036c-21.2-.208-42.672,3.231-60.464,9.68C25.667,23.268,13.9,30.792,9.507,37.842,7.721,40.706,7.351,43.2,8.4,45.268,16.851,61.8,34.3,77.512,57.528,89.515c23.164,11.97,48.97,18.689,72.663,18.921a104.95,104.95,0,0,0,29.1-3.548c74.212-20.636,83.917-38.588,83.1-47.451-.882-9.524-14.05-19.7-37.081-28.646-21.606-8.393-50.407-15.2-81.1-19.178A192.842,192.842,0,0,0,101.444,8.036Z"/></g><g transform="translate(34.497 16.344)"><path class="d" d="M88.108,79.74C52.887,79.4,13.92,58.933,1.245,34.127c-1.706-3.34-1.364-7.236.965-10.972C9.337,11.72,36.2.083,68.821.4a134.984,134.984,0,0,1,15.94,1.105C122.523,6.4,167.273,19.174,169.116,39.1c1.3,14.042-18.277,26.488-59.847,38.047A76.321,76.321,0,0,1,88.108,79.74ZM68.9,7.845C37.635,7.539,13.832,18.854,8.668,27.139c-1.43,2.295-.872,3.388-.689,3.747,5.51,10.783,16.943,21.063,32.193,28.942C55.439,67.716,72.437,72.146,88.035,72.3a68.755,68.755,0,0,0,19.051-2.319c50.433-14.025,54.92-25.9,54.508-30.351-.533-5.765-9.247-12.337-23.908-18.033-14.31-5.561-33.4-10.074-53.763-12.71A127.162,127.162,0,0,0,68.9,7.845Z"/></g><g transform="translate(68.967 32.687)"><path class="d" d="M45.98,43.6C27.723,43.423,7.476,32.721.846,19.745A7.2,7.2,0,0,1,1.4,12.452C5.841,5.323,20.845.061,36.3.212A69.507,69.507,0,0,1,44.5.78C51.587,1.7,87.023,7,88.345,21.288,89.1,29.439,79.166,36.1,57.087,42.236A40.049,40.049,0,0,1,45.98,43.6ZM7.689,16.716C13.182,27.129,30.6,36.011,45.906,36.16a32.471,32.471,0,0,0,9-1.091c26.164-7.275,25.942-13.012,25.92-13.252-.339-3.66-13.768-10.629-37.165-13.659a61.754,61.754,0,0,0-7.285-.5C19.266,7.487,8.506,14.226,7.689,16.716Z"/></g><g transform="translate(107.25 52.774)"><path class="e" d="M0,0" transform="translate(0 0)"/></g></g><g transform="translate(405.01 108.065)"><path class="d" d="M8.605,110.888h0c-5.613-.055-7.282-3.232-7.777-5.121C.122,103.076.614,98.4,10.78,86.01A263.589,263.589,0,0,1,38.339,57.994C65.579,33.768,95.1,14.918,119.327,6.278a89.953,89.953,0,0,1,31.145-5.4c18.823.184,36.572,6.964,47.479,18.138,6.406,6.562,9.816,14.122,9.6,21.289-.456,15.183-17.687,27.841-52.678,38.7C126.72,87.74,91.825,93.95,61.329,99.086A331.585,331.585,0,0,0,27.574,106.9C19.026,109.241,12.85,110.929,8.605,110.888Zm-.288-7.447c.066,0,.138,0,.215.005,3.182.031,9.232-1.622,16.891-3.716a337.678,337.678,0,0,1,34.492-7.981C105.107,84.138,199.147,68.305,200,39.937c.155-5.125-2.488-10.742-7.442-15.817-9.5-9.729-25.2-15.635-42.011-15.8a82.409,82.409,0,0,0-28.525,4.962c-22.892,8.164-51.028,26.05-77.2,49.073C20.9,83.41,9.68,98.851,8.317,103.441Z"/><g transform="translate(44.362 12.947)"><path class="d" d="M7.02,76.414h0C2.25,76.367.943,73.345.6,72.048c-.579-2.2-.215-5.62,6.868-14.251a176.886,176.886,0,0,1,18.5-18.813c18.274-16.253,38.1-28.906,54.4-34.718a61.219,61.219,0,0,1,21.2-3.673c12.884.126,25.057,4.793,32.564,12.483,4.513,4.622,6.913,9.987,6.757,15.1-.661,22.04-49.024,32.018-98.5,40.348a220.087,220.087,0,0,0-22.381,5.185C14.215,75.3,10.026,76.443,7.02,76.414ZM101.647,8.036A53.686,53.686,0,0,0,83.066,11.27C68.182,16.578,49.822,28.2,32.694,43.145,19.1,55.007,11.41,64.445,8.893,68.768c2.212-.382,5.41-1.256,8.967-2.229a226.417,226.417,0,0,1,23.118-5.348c27.478-4.627,91.829-15.461,92.366-33.379.093-3.077-1.541-6.5-4.6-9.632C122.646,11.934,112.517,8.142,101.647,8.036Z"/></g><g transform="translate(88.73 25.895)"><path class="d" d="M5.428,41.939h0A4.939,4.939,0,0,1,.374,38.327c-.592-2.253.469-4.7,3.784-8.744a90.458,90.458,0,0,1,9.449-9.612c4.4-3.916,15.928-13.481,27.806-17.717A32.5,32.5,0,0,1,52.668.307c6.945.068,13.544,2.62,17.648,6.826a12.45,12.45,0,0,1,3.918,8.92C73.862,28.46,50,33.5,23.449,37.97a108.35,108.35,0,0,0-11.006,2.553C9.284,41.385,7.2,41.956,5.428,41.939ZM5.354,34.5l.038,3.721L5.355,34.5ZM52.742,7.75a24.957,24.957,0,0,0-8.635,1.509C31.518,13.747,17.34,26,11.013,33.15a109.739,109.739,0,0,1,11.023-2.517c10-1.685,21.438-3.718,30.524-6.538,13.328-4.136,14.1-7.731,14.124-8.41a5.216,5.216,0,0,0-1.761-3.448C62.841,10.1,58.548,7.806,52.742,7.75Z" transform="translate(0)"/></g><g transform="translate(136.898 42.587)"><path class="f" d="M0,0"/></g></g><g transform="translate(125.242 19.14)"><path class="d" d="M94.961,55.682h0c-5.377-.053-12.51-1.943-20.769-4.133-6.72-1.782-14.337-3.8-21.938-5.039-10.154-1.653-20.645-2.4-29.075-2.992C7.888,42.436,2.954,41.934.907,38.6a4.611,4.611,0,0,1-.258-4.393c3.094-6.783,25.74-16.737,35.333-20.7C43.46,10.421,68.909.348,82.474.481A20.515,20.515,0,0,1,85.337.7c1.522.233,6.15.941,8.158,4.646,2.133,3.937.015,8.252-2.228,12.82-1.741,3.546-3.713,7.565-3.382,10.908C88.2,32.236,93.8,36.62,97.5,39.522c4.3,3.371,7.412,5.807,7.784,8.994a4.938,4.938,0,0,1-1.13,3.778C102.211,54.616,99.2,55.724,94.961,55.682ZM10.291,34.93c3.423.468,8.56.831,13.28,1.165,8.586.608,19.27,1.364,29.769,3.074,7.975,1.3,15.787,3.369,22.679,5.2,7.756,2.057,14.455,3.833,18.867,3.876h0a12.3,12.3,0,0,0,1.514-.07c-1.039-.907-2.4-1.977-3.528-2.858-5.29-4.143-11.873-9.3-12.506-15.664-.537-5.415,2.027-10.638,4.088-14.835.975-1.987,2.429-4.951,2.367-6.039a6.718,6.718,0,0,0-2.5-.725,12.688,12.688,0,0,0-1.775-.126C74.7,7.847,57.8,12.66,39.5,20.185,24.7,26.27,14.829,31.689,10.291,34.93Z"/></g><g transform="translate(9.853 167.513)"><g transform="translate(0 0)"><path class="d" d="M25.051,115.686A21.7,21.7,0,0,1,5.8,104.785C.281,95.631-.972,81.463,2.174,63.813,5.215,46.762,12.326,27.638,22.2,9.959,24.71,5.463,30.289.128,42.606.249c16.256.159,40.783,9.8,65.608,25.8,19.121,12.319,39.9,29.835,40.865,42.054,1.809,22.846-52.432,34.862-108.144,45.214-3.377.626-6.52,1.212-9.36,1.753A33.165,33.165,0,0,1,25.051,115.686Zm17.629-108c-7.041-.069-11.57,1.878-13.847,5.955-18.99,34-26.109,71.591-16.56,87.432a13.969,13.969,0,0,0,12.7,7.167h0a25.584,25.584,0,0,0,5.02-.487c2.851-.544,6.006-1.131,9.4-1.761,19.273-3.58,45.668-8.484,67.161-15.176,31.212-9.718,35.322-18.137,34.993-22.29-.506-6.389-13.507-20.9-37.38-36.281C80.876,17.245,57.316,7.834,42.68,7.691Z"/></g><g transform="translate(19.72 20.077)"><path class="d" d="M17.965,79.611h0A15.7,15.7,0,0,1,4.039,71.722C-3.628,59,.857,32.5,14.945,7.271c1.835-3.286,5.875-7.184,14.7-7.1,11.07.108,27.678,6.614,44.425,17.4,6.31,4.066,26.967,18.172,27.824,29C103.179,62.823,68.052,70.714,28.8,78.007c-2.25.418-4.343.807-6.235,1.168A23.459,23.459,0,0,1,17.965,79.611Zm11.752-72c-6.236-.061-7.668,2.5-8.138,3.343C7.38,36.386,5.28,59.332,10.513,68.014a8.012,8.012,0,0,0,7.377,4.155,15.842,15.842,0,0,0,3.1-.3c1.9-.364,4.009-.755,6.272-1.176C40.077,68.31,57.63,65.049,71.889,60.61c21.328-6.641,22.593-12.091,22.474-13.6-.3-3.854-8.939-13.3-24.339-23.225C54.689,13.9,39.245,7.708,29.718,7.615Z" transform="translate(0 0)"/></g><g transform="translate(39.386 40.153)"><path class="d" d="M10.934,43.538h0a9.822,9.822,0,0,1-8.6-4.88c-4.882-8.1-.8-22.949,5.412-34.072C8.906,2.509,11.407.046,16.735.1c8.72.085,19.995,6.918,23.243,9.011C45.3,12.536,54.295,19.166,54.761,25.05c.763,9.648-16.777,13.7-38.044,17.654-1.121.208-2.165.4-3.108.582A13.556,13.556,0,0,1,10.934,43.538Zm5.875-36c-.916-.009-2.082.11-2.429.732C7.862,19.944,6.429,31,8.808,34.951A2.1,2.1,0,0,0,10.86,36.1h0a5.928,5.928,0,0,0,1.17-.118c.954-.182,2.01-.378,3.145-.589,5.917-1.1,14.02-2.6,20.8-4.6,9.526-2.8,11.044-5,11.235-5.37-.366-1.259-4.091-5.551-11.726-10.392C28.377,10.521,21.045,7.581,16.809,7.539Z" transform="translate(0 0)"/></g><g transform="translate(62.916 63.971)"><path class="e" d="M0,0"/></g></g></g><g transform="translate(52.94 149.113)"><path class="d" d="M4.779,168.471a3.857,3.857,0,0,1-3.736-3.063A3.642,3.642,0,0,1,4,161.087c1-.18,100.684-18,123.568-29.405,2.008-1,3.887-1.972,5.7-2.911,19.631-10.147,30.445-15.735,86.093,1.112,26.737,8.094,61.584,8.929,95.607,2.289,31.419-6.132,55.882-17.566,63.843-29.841,6.6-10.172,31.336-13.609,74.493-18.806,52.886-6.368,118.7-14.3,138.514-43.585,6.093-9.011,7.4-19.418,3.981-31.816a3.64,3.64,0,0,1,2.65-4.517,3.86,3.86,0,0,1,4.637,2.7c3.963,14.387,2.3,27.12-4.957,37.844-21.682,32.059-89.372,40.21-143.762,46.76-31.52,3.8-64.113,7.722-69.167,15.514-13.771,21.231-66.29,38.146-117.574,37.646-17.452-.17-34.758-2.358-50.351-7.078-52.668-15.946-61.934-11.158-80.394-1.618-1.84.951-3.744,1.935-5.8,2.96C107.246,150.222,9.632,167.673,5.488,168.41A3.792,3.792,0,0,1,4.779,168.471Z"/></g><g transform="translate(1.132 192.323)"><g transform="translate(0 0)"><path class="d" d="M35.575,128.991a3.927,3.927,0,0,1-.444-.031c-11.64-1.457-20.518-6.909-26.391-16.2C-12.494,79.144,13.647,5.634,14.77,2.522A3.722,3.722,0,0,1,19.589.345a3.774,3.774,0,0,1,2.3,4.79c-.263.729-26.056,73.248-6.761,103.781,4.644,7.349,11.448,11.49,20.8,12.66a3.823,3.823,0,0,1,3.352,4.162A3.669,3.669,0,0,1,35.575,128.991Z"/></g></g><g transform="translate(372.594 4.986)"><g transform="translate(0 0)"><path class="d" d="M274.188,126.413a3.866,3.866,0,0,1-2.462-.917c-.3-.257-30.907-25.973-79.121-53.255C148.209,47.119,79.357,15.485,3.468,7.443a3.825,3.825,0,0,1-3.432-4.1A3.673,3.673,0,0,1,4.129.044C38.276,3.661,73.852,12.219,109.871,25.477a590.67,590.67,0,0,1,86.555,40.417c48.8,27.633,79.847,53.735,80.154,54a3.673,3.673,0,0,1-2.392,6.524Z"/></g></g><g transform="translate(241.721 1.409)"><g transform="translate(0 0)"><path class="d" d="M3.959,27.933A3.872,3.872,0,0,1,.487,25.7a3.642,3.642,0,0,1,1.856-4.9C49.559.355,112.826.651,115.5.674h.005a3.839,3.839,0,0,1,3.812,3.753,3.66,3.66,0,0,1-3.733,3.689c-.638,0-64.354-.3-110.085,19.507A3.77,3.77,0,0,1,3.959,27.933Z"/></g></g><g transform="translate(20.502 23.574)"><path class="d" d="M4.77,165.93a3.87,3.87,0,0,1-1.134-.184,3.785,3.785,0,0,1-2.518-4.689c.392-1.266,9.938-31.419,38.448-66.4A262.08,262.08,0,0,1,98.418,41.511c27.892-18.419,59.825-31.97,94.908-40.275a3.86,3.86,0,0,1,4.606,2.754,3.64,3.64,0,0,1-2.7,4.484C117.756,26.813,71.04,68.033,45.492,99.382,17.86,133.289,8.438,163.061,8.346,163.357A3.682,3.682,0,0,1,4.77,165.93Z"/></g><g transform="translate(87.16 297.267)"><g transform="translate(0 0)"><path class="d" d="M3.97,30.792A3.857,3.857,0,0,1,.242,27.769a3.641,3.641,0,0,1,2.91-4.353C8.806,22.343,142.109-2.789,183.336,1.5a3.824,3.824,0,0,1,3.439,4.092A3.673,3.673,0,0,1,182.689,8.9C142.569,4.721,6.094,30.464,4.72,30.725A3.829,3.829,0,0,1,3.97,30.792Z"/></g></g><g transform="translate(393.432 246.737)"><g transform="translate(0 0)"><path class="d" d="M4.092,51.939a3.852,3.852,0,0,1-3.77-3.266,3.648,3.648,0,0,1,3.2-4.149c14.315-1.744,21.327-6.407,30.2-12.31,8.335-5.542,17.783-11.825,35.163-16.979C87.636,9.674,117.822,5.675,137.8,3.029c6.185-.82,11.526-1.527,15.016-2.086a3.854,3.854,0,0,1,4.392,3.079,3.644,3.644,0,0,1-3.039,4.267c-3.591.575-8.979,1.29-15.218,2.115-19.741,2.615-49.573,6.568-67.75,11.958-16.3,4.836-25.259,10.791-33.16,16.044C29.112,44.343,20.681,49.95,4.6,51.911A4.046,4.046,0,0,1,4.092,51.939Z"/></g></g><g transform="translate(59.975 280.387)"><g transform="translate(0 0)"><path class="d" d="M54.343,262.43a11.367,11.367,0,0,1-2.652-.339c-9.444-2.363-13.565-15.914-11.306-37.176,3.561-33.521-10.869-56.118-23.6-76.054C1.5,124.922-11.7,104.247,20.454,77.89c22.357-18.323,57.815-30.065,108.4-35.9,42.732-4.927,88.935-4.74,126.059-4.589,7.661.031,14.9.06,21.724.045,45.731-.1,85.347-11.057,117.748-32.56,2.587-1.717,3.459-2.3,4.606-2.5a3.857,3.857,0,0,1,4.445,3,3.636,3.636,0,0,1-2.4,4.176c-.416.235-1.439.914-2.351,1.519a179.908,179.908,0,0,1-38.548,19.673c-25.069,9.31-53.108,14.064-83.338,14.131-6.852.015-14.1-.014-21.771-.044-36.922-.15-82.873-.336-125.155,4.538-49.112,5.662-83.3,16.87-104.525,34.265-27.154,22.254-17.225,37.8-2.2,61.337,12.731,19.937,28.576,44.749,24.742,80.846-1.968,18.515,1.48,28.035,5.515,29.044,4,.994,12.658-5.571,19.406-23.311,12.73-33.461,48.18-77.18,73.723-98.5a3.83,3.83,0,0,1,5.326.478,3.669,3.669,0,0,1-.379,5.241c-24.842,20.731-59.276,63.141-71.59,95.51C73.2,251.9,63.424,262.518,54.343,262.43Z"/></g></g><g transform="translate(85.688 340.338)"><g transform="translate(0 0)"><path class="d" d="M44.83,134.75h0a6.377,6.377,0,0,1-2.271-.432c-9.193-3.6-26.534-30.441-35.681-55.232C1.579,64.73-3.247,45.013,3.844,32.6,10,21.825,37.475,13.837,53.308,10.034,78.4,4.007,106.178.536,127.625.746c22.149.217,35.323,4.35,39.158,12.285,2.563,5.3.861,11.556-5.059,18.586-4.35,5.167-12.325,10.923-22.421,18.211-11.09,8-23.659,17.076-34.972,27.939C93.861,87.818,84.092,98.606,75.473,108.124,59.15,126.147,51.027,134.81,44.83,134.75ZM127.7,8.188c-20.546-.2-48.313,3.278-72.465,9.079C26.27,24.224,13.105,31.683,10.443,36.343,6,44.131,7.248,58.451,13.967,76.664c9.573,25.946,25.494,47.883,30.954,50.608,3.77-.863,15.45-13.761,24.872-24.165C78.493,93.5,88.352,82.614,99,72.387c11.682-11.218,25.031-20.852,35.756-28.594,9.3-6.716,17.339-12.516,21.112-16.995,2.685-3.189,5.576-7.629,4.1-10.676C159.107,14.326,154.214,8.447,127.7,8.188Z"/></g><g transform="translate(19.362 17.043)"><path class="d" d="M31.156,92.322h0a5.537,5.537,0,0,1-1.971-.376C22.05,89.152,10.352,69.806,4.658,54.375c-3.622-9.815-6.9-23.337-1.939-32.02C9.826,9.911,58.4.231,86.328.5,101.84.656,110.754,3.572,113.58,9.42c1.938,4.011.75,8.623-3.532,13.709-3,3.56-8.368,7.436-15.166,12.344-7.36,5.313-15.7,11.334-23.184,18.517-6.948,6.672-13.446,13.847-19.179,20.176C41.089,86.789,35.836,92.368,31.156,92.322ZM86.4,7.947C55.643,7.646,13.559,18.677,9.319,26.1c-2.735,4.789-1.943,13.776,2.232,25.3,5.893,16.278,15.9,30.685,19.716,33.3,2.806-1.46,9.848-9.236,15.573-15.558,5.812-6.419,12.4-13.694,19.533-20.541,7.849-7.536,16.787-13.988,23.968-19.171,6.137-4.43,11.438-8.255,13.855-11.128,2.14-2.541,3.1-4.709,2.576-5.8C106.555,12.062,104.141,8.12,86.4,7.947Z"/></g><g transform="translate(38.697 34.087)"><path class="d" d="M17.509,49.892h0a4.72,4.72,0,0,1-1.67-.321c-4.595-1.8-10.717-12.719-13.37-19.91C-.362,21.99-.647,16.085,1.622,12.112,5.947,4.54,32.2.137,45.059.263,53.741.348,58.617,2.11,60.405,5.808c.9,1.87,1.289,4.92-2.005,8.832-1.643,1.95-4.409,3.947-7.91,6.475a104.531,104.531,0,0,0-11.4,9.1c-3.429,3.292-6.654,6.855-9.5,10C23.551,46.879,20.793,49.925,17.509,49.892ZM45.133,7.706C30.119,7.559,10.314,12.922,8.2,15.89c-2.931,5.134,5.369,21.373,9.44,25.894,1.576-1.409,4.127-4.226,6.269-6.592,2.927-3.232,6.243-6.894,9.855-10.361a111.722,111.722,0,0,1,12.181-9.75c2.846-2.055,5.535-4,6.6-5.259a7.2,7.2,0,0,0,.712-.981C52.4,8.442,50.18,7.755,45.133,7.706Z"/></g><g transform="translate(61.858 54.874)"><path class="e" d="M0,0"/></g></g><g transform="translate(221.61 349.351)"><g transform="translate(0 0)"><path class="d" d="M4.145,59.5A3.877,3.877,0,0,1,.957,57.769a3.653,3.653,0,0,1,1.061-5.136c.39-.247,39.018-24.978,44.192-49.447a3.694,3.694,0,0,1,4.465-2.8,3.8,3.8,0,0,1,2.93,4.456C47.8,32.3,7.886,57.843,6.19,58.916A3.743,3.743,0,0,1,4.145,59.5Z"/></g></g><g transform="translate(41.318 319.304)"><g transform="translate(0 0)"><path class="d" d="M7.019,69.031a3.868,3.868,0,0,1-3.6-2.553C.118,57.2,7.7,46.685,15.04,36.517c4.1-5.689,8.35-11.572,9.164-15.564,1.253-6.142-14.042-11.9-21.211-13.589A3.8,3.8,0,0,1,.11,2.879,3.7,3.7,0,0,1,4.6.124c3.086.721,30.06,7.48,27.01,22.432-1.125,5.518-5.623,11.752-10.386,18.352C15.277,49.153,8.534,58.5,10.543,64.139a3.64,3.64,0,0,1-2.3,4.7A3.805,3.805,0,0,1,7.019,69.031Z"/></g></g><g transform="translate(31.426 330.43)"><g transform="translate(0 0)"><path class="d" d="M10.75,27.932a3.863,3.863,0,0,1-2.064-.623,3.726,3.726,0,0,1-1.153-5.161c4.257-6.494-6.058-15.515-6.164-15.6A3.7,3.7,0,0,1,.907,1.293,3.8,3.8,0,0,1,6.228.941c5.8,4.911,13.94,15.774,7.674,25.332A3.708,3.708,0,0,1,10.75,27.932Z"/></g></g></g></g></svg>