<svg xmlns="http://www.w3.org/2000/svg" xmlns:xlink="http://www.w3.org/1999/xlink" width="544.547" height="586.061" viewBox="0 0 544.547 586.061"><defs><style>.a{fill:#ff7f66;}.b{fill:#fff;}.c{fill:#fef7ef;}.d{fill:url(#a);}.e{fill:#191919;}</style><linearGradient id="a" x1="0.492" y1="1.032" x2="0.492" y2="0.066" gradientUnits="objectBoundingBox"><stop offset="0" stop-color="#edece6"/><stop offset="0.925" stop-color="#f3f2ee"/><stop offset="1" stop-color="#e7e5dc"/></linearGradient></defs><g transform="translate(-240.341 -74.382)"><g transform="translate(543.644 455.092) rotate(90)"><rect class="a" width="4.808" height="4.808"/><rect class="a" width="4.808" height="4.808" transform="translate(0 29.071)"/><rect class="a" width="4.808" height="4.808" transform="translate(0 58.142)"/><rect class="a" width="4.808" height="4.808" transform="translate(0 87.213)"/><rect class="a" width="4.808" height="4.808" transform="translate(0 116.283)"/><rect class="a" width="4.808" height="4.809" transform="translate(0 145.354)"/><rect class="a" width="4.808" height="4.808" transform="translate(0 174.425)"/><rect class="a" width="4.808" height="4.808" transform="translate(0 203.496)"/><rect class="a" width="4.808" height="4.808" transform="translate(0 232.567)"/><rect class="a" width="4.808" height="4.808" transform="translate(0 261.638)"/><rect class="a" width="4.808" height="4.808" transform="translate(0 290.709)"/><rect class="a" width="4.808" height="4.808" transform="translate(26.321)"/><rect class="a" width="4.808" height="4.808" transform="translate(26.321 29.071)"/><rect class="a" width="4.808" height="4.808" transform="translate(26.321 58.142)"/><rect class="a" width="4.808" height="4.808" transform="translate(26.321 87.213)"/><rect class="a" width="4.808" height="4.808" transform="translate(26.321 116.283)"/><rect class="a" width="4.808" height="4.809" transform="translate(26.321 145.354)"/><rect class="a" width="4.808" height="4.808" transform="translate(26.321 174.425)"/><rect class="a" width="4.808" height="4.808" transform="translate(26.321 203.496)"/><rect class="a" width="4.808" height="4.808" transform="translate(26.321 232.567)"/><rect class="a" width="4.808" height="4.808" transform="translate(26.321 261.638)"/><rect class="a" width="4.808" height="4.808" transform="translate(26.321 290.709)"/><rect class="a" width="4.808" height="4.808" transform="translate(52.642)"/><rect class="a" width="4.808" height="4.808" transform="translate(52.642 29.071)"/><rect class="a" width="4.808" height="4.808" transform="translate(52.642 58.142)"/><rect class="a" width="4.808" height="4.808" transform="translate(52.642 87.213)"/><rect class="a" width="4.808" height="4.808" transform="translate(52.642 116.283)"/><rect class="a" width="4.808" height="4.809" transform="translate(52.642 145.354)"/><rect class="a" width="4.808" height="4.808" transform="translate(52.642 174.425)"/><rect class="a" width="4.808" height="4.808" transform="translate(52.642 203.496)"/><rect class="a" width="4.808" height="4.808" transform="translate(52.642 232.567)"/><rect class="a" width="4.808" height="4.808" transform="translate(52.642 261.638)"/><rect class="a" width="4.808" height="4.808" transform="translate(52.642 290.709)"/></g><g transform="translate(578.187 374.759) rotate(90)"><rect class="a" width="4.808" height="4.808"/><rect class="a" width="4.808" height="4.808" transform="translate(0 29.071)"/><rect class="a" width="4.808" height="4.808" transform="translate(0 58.142)"/><rect class="a" width="4.808" height="4.808" transform="translate(0 87.213)"/><rect class="a" width="4.808" height="4.808" transform="translate(0 116.283)"/><rect class="a" width="4.808" height="4.809" transform="translate(0 145.354)"/><rect class="a" width="4.808" height="4.808" transform="translate(0 174.425)"/><rect class="a" width="4.808" height="4.808" transform="translate(0 203.496)"/><rect class="a" width="4.808" height="4.808" transform="translate(0 232.567)"/><rect class="a" width="4.808" height="4.808" transform="translate(0 261.638)"/><rect class="a" width="4.808" height="4.808" transform="translate(0 290.709)"/><rect class="a" width="4.808" height="4.808" transform="translate(26.321)"/><rect class="a" width="4.808" height="4.808" transform="translate(26.321 29.071)"/><rect class="a" width="4.808" height="4.808" transform="translate(26.321 58.142)"/><rect class="a" width="4.808" height="4.808" transform="translate(26.321 87.213)"/><rect class="a" width="4.808" height="4.808" transform="translate(26.321 116.283)"/><rect class="a" width="4.808" height="4.809" transform="translate(26.321 145.354)"/><rect class="a" width="4.808" height="4.808" transform="translate(26.321 174.425)"/><rect class="a" width="4.808" height="4.808" transform="translate(26.321 203.496)"/><rect class="a" width="4.808" height="4.808" transform="translate(26.321 232.567)"/><rect class="a" width="4.808" height="4.808" transform="translate(26.321 261.638)"/><rect class="a" width="4.808" height="4.808" transform="translate(26.321 290.709)"/><rect class="a" width="4.808" height="4.808" transform="translate(52.642)"/><rect class="a" width="4.808" height="4.808" transform="translate(52.642 29.071)"/><rect class="a" width="4.808" height="4.808" transform="translate(52.642 58.142)"/><rect class="a" width="4.808" height="4.808" transform="translate(52.642 87.213)"/><rect class="a" width="4.808" height="4.808" transform="translate(52.642 116.283)"/><rect class="a" width="4.808" height="4.809" transform="translate(52.642 145.354)"/><rect class="a" width="4.808" height="4.808" transform="translate(52.642 174.425)"/><rect class="a" width="4.808" height="4.808" transform="translate(52.642 203.496)"/><rect class="a" width="4.808" height="4.808" transform="translate(52.642 232.567)"/><rect class="a" width="4.808" height="4.808" transform="translate(52.642 261.638)"/><rect class="a" width="4.808" height="4.808" transform="translate(52.642 290.709)"/></g><g transform="translate(752.755 304.87) rotate(90)"><rect class="a" width="4.808" height="4.808"/><rect class="a" width="4.808" height="4.808" transform="translate(0 29.071)"/><rect class="a" width="4.808" height="4.808" transform="translate(0 58.142)"/><rect class="a" width="4.808" height="4.808" transform="translate(0 87.213)"/><rect class="a" width="4.808" height="4.808" transform="translate(0 116.283)"/><rect class="a" width="4.808" height="4.809" transform="translate(0 145.354)"/><rect class="a" width="4.808" height="4.808" transform="translate(0 174.425)"/><rect class="a" width="4.808" height="4.808" transform="translate(0 203.496)"/><rect class="a" width="4.808" height="4.808" transform="translate(0 232.567)"/><rect class="a" width="4.808" height="4.808" transform="translate(0 261.638)"/><rect class="a" width="4.808" height="4.808" transform="translate(0 290.709)"/><rect class="a" width="4.808" height="4.808" transform="translate(26.321)"/><rect class="a" width="4.808" height="4.808" transform="translate(26.321 29.071)"/><rect class="a" width="4.808" height="4.808" transform="translate(26.321 58.142)"/><rect class="a" width="4.808" height="4.808" transform="translate(26.321 87.213)"/><rect class="a" width="4.808" height="4.808" transform="translate(26.321 116.283)"/><rect class="a" width="4.808" height="4.809" transform="translate(26.321 145.354)"/><rect class="a" width="4.808" height="4.808" transform="translate(26.321 174.425)"/><rect class="a" width="4.808" height="4.808" transform="translate(26.321 203.496)"/><rect class="a" width="4.808" height="4.808" transform="translate(26.321 232.567)"/><rect class="a" width="4.808" height="4.808" transform="translate(26.321 261.638)"/><rect class="a" width="4.808" height="4.808" transform="translate(26.321 290.709)"/><rect class="a" width="4.808" height="4.808" transform="translate(52.642)"/><rect class="a" width="4.808" height="4.808" transform="translate(52.642 29.071)"/><rect class="a" width="4.808" height="4.808" transform="translate(52.642 58.142)"/><rect class="a" width="4.808" height="4.808" transform="translate(52.642 87.213)"/><rect class="a" width="4.808" height="4.808" transform="translate(52.642 116.283)"/><rect class="a" width="4.808" height="4.809" transform="translate(52.642 145.354)"/><rect class="a" width="4.808" height="4.808" transform="translate(52.642 174.425)"/><rect class="a" width="4.808" height="4.808" transform="translate(52.642 203.496)"/><rect class="a" width="4.808" height="4.808" transform="translate(52.642 232.567)"/><rect class="a" width="4.808" height="4.808" transform="translate(52.642 261.638)"/><rect class="a" width="4.808" height="4.808" transform="translate(52.642 290.709)"/></g><g transform="translate(535.858 292.82) rotate(90)"><rect class="a" width="4.808" height="4.808"/><rect class="a" width="4.808" height="4.808" transform="translate(0 29.071)"/><rect class="a" width="4.808" height="4.808" transform="translate(0 58.142)"/><rect class="a" width="4.808" height="4.808" transform="translate(0 87.213)"/><rect class="a" width="4.808" height="4.808" transform="translate(0 116.283)"/><rect class="a" width="4.808" height="4.809" transform="translate(0 145.354)"/><rect class="a" width="4.808" height="4.808" transform="translate(0 174.425)"/><rect class="a" width="4.808" height="4.808" transform="translate(0 203.496)"/><rect class="a" width="4.808" height="4.808" transform="translate(0 232.567)"/><rect class="a" width="4.808" height="4.808" transform="translate(0 261.638)"/><rect class="a" width="4.808" height="4.808" transform="translate(0 290.709)"/><rect class="a" width="4.808" height="4.808" transform="translate(26.321)"/><rect class="a" width="4.808" height="4.808" transform="translate(26.321 29.071)"/><rect class="a" width="4.808" height="4.808" transform="translate(26.321 58.142)"/><rect class="a" width="4.808" height="4.808" transform="translate(26.321 87.213)"/><rect class="a" width="4.808" height="4.808" transform="translate(26.321 116.283)"/><rect class="a" width="4.808" height="4.809" transform="translate(26.321 145.354)"/><rect class="a" width="4.808" height="4.808" transform="translate(26.321 174.425)"/><rect class="a" width="4.808" height="4.808" transform="translate(26.321 203.496)"/><rect class="a" width="4.808" height="4.808" transform="translate(26.321 232.567)"/><rect class="a" width="4.808" height="4.808" transform="translate(26.321 261.638)"/><rect class="a" width="4.808" height="4.808" transform="translate(26.321 290.709)"/><rect class="a" width="4.808" height="4.808" transform="translate(52.642)"/><rect class="a" width="4.808" height="4.808" transform="translate(52.642 29.071)"/><rect class="a" width="4.808" height="4.808" transform="translate(52.642 58.142)"/><rect class="a" width="4.808" height="4.808" transform="translate(52.642 87.213)"/><rect class="a" width="4.808" height="4.808" transform="translate(52.642 116.283)"/><rect class="a" width="4.808" height="4.809" transform="translate(52.642 145.354)"/><rect class="a" width="4.808" height="4.808" transform="translate(52.642 174.425)"/><rect class="a" width="4.808" height="4.808" transform="translate(52.642 203.496)"/><rect class="a" width="4.808" height="4.808" transform="translate(52.642 232.567)"/><rect class="a" width="4.808" height="4.808" transform="translate(52.642 261.638)"/><rect class="a" width="4.808" height="4.808" transform="translate(52.642 290.709)"/></g><g transform="translate(784.888 385.202) rotate(90)"><rect class="a" width="4.808" height="4.808"/><rect class="a" width="4.808" height="4.808" transform="translate(0 29.071)"/><rect class="a" width="4.808" height="4.808" transform="translate(0 58.142)"/><rect class="a" width="4.808" height="4.808" transform="translate(0 87.213)"/><rect class="a" width="4.808" height="4.808" transform="translate(0 116.283)"/><rect class="a" width="4.808" height="4.809" transform="translate(0 145.354)"/><rect class="a" width="4.808" height="4.808" transform="translate(0 174.425)"/><rect class="a" width="4.808" height="4.808" transform="translate(0 203.496)"/><rect class="a" width="4.808" height="4.808" transform="translate(0 232.567)"/><rect class="a" width="4.808" height="4.808" transform="translate(0 261.638)"/><rect class="a" width="4.808" height="4.808" transform="translate(0 290.709)"/><rect class="a" width="4.808" height="4.808" transform="translate(26.321)"/><rect class="a" width="4.808" height="4.808" transform="translate(26.321 29.071)"/><rect class="a" width="4.808" height="4.808" transform="translate(26.321 58.142)"/><rect class="a" width="4.808" height="4.808" transform="translate(26.321 87.213)"/><rect class="a" width="4.808" height="4.808" transform="translate(26.321 116.283)"/><rect class="a" width="4.808" height="4.809" transform="translate(26.321 145.354)"/><rect class="a" width="4.808" height="4.808" transform="translate(26.321 174.425)"/><rect class="a" width="4.808" height="4.808" transform="translate(26.321 203.496)"/><rect class="a" width="4.808" height="4.808" transform="translate(26.321 232.567)"/><rect class="a" width="4.808" height="4.808" transform="translate(26.321 261.638)"/><rect class="a" width="4.808" height="4.808" transform="translate(26.321 290.709)"/><rect class="a" width="4.808" height="4.808" transform="translate(52.642)"/><rect class="a" width="4.808" height="4.808" transform="translate(52.642 29.071)"/><rect class="a" width="4.808" height="4.808" transform="translate(52.642 58.142)"/><rect class="a" width="4.808" height="4.808" transform="translate(52.642 87.213)"/><rect class="a" width="4.808" height="4.808" transform="translate(52.642 116.283)"/><rect class="a" width="4.808" height="4.809" transform="translate(52.642 145.354)"/><rect class="a" width="4.808" height="4.808" transform="translate(52.642 174.425)"/><rect class="a" width="4.808" height="4.808" transform="translate(52.642 203.496)"/><rect class="a" width="4.808" height="4.808" transform="translate(52.642 232.567)"/><rect class="a" width="4.808" height="4.808" transform="translate(52.642 261.638)"/><rect class="a" width="4.808" height="4.808" transform="translate(52.642 290.709)"/></g><g transform="translate(765.608 456.698) rotate(90)"><rect class="a" width="4.808" height="4.808"/><rect class="a" width="4.808" height="4.808" transform="translate(0 29.071)"/><rect class="a" width="4.808" height="4.808" transform="translate(0 58.142)"/><rect class="a" width="4.808" height="4.808" transform="translate(0 87.213)"/><rect class="a" width="4.808" height="4.808" transform="translate(0 116.283)"/><rect class="a" width="4.808" height="4.809" transform="translate(0 145.354)"/><rect class="a" width="4.808" height="4.808" transform="translate(0 174.425)"/><rect class="a" width="4.808" height="4.808" transform="translate(0 203.496)"/><rect class="a" width="4.808" height="4.808" transform="translate(0 232.567)"/><rect class="a" width="4.808" height="4.808" transform="translate(0 261.638)"/><rect class="a" width="4.808" height="4.808" transform="translate(0 290.709)"/><rect class="a" width="4.808" height="4.808" transform="translate(26.321)"/><rect class="a" width="4.808" height="4.808" transform="translate(26.321 29.071)"/><rect class="a" width="4.808" height="4.808" transform="translate(26.321 58.142)"/><rect class="a" width="4.808" height="4.808" transform="translate(26.321 87.213)"/><rect class="a" width="4.808" height="4.808" transform="translate(26.321 116.283)"/><rect class="a" width="4.808" height="4.809" transform="translate(26.321 145.354)"/><rect class="a" width="4.808" height="4.808" transform="translate(26.321 174.425)"/><rect class="a" width="4.808" height="4.808" transform="translate(26.321 203.496)"/><rect class="a" width="4.808" height="4.808" transform="translate(26.321 232.567)"/><rect class="a" width="4.808" height="4.808" transform="translate(26.321 261.638)"/><rect class="a" width="4.808" height="4.808" transform="translate(26.321 290.709)"/><rect class="a" width="4.808" height="4.808" transform="translate(52.642)"/><rect class="a" width="4.808" height="4.808" transform="translate(52.642 29.071)"/><rect class="a" width="4.808" height="4.808" transform="translate(52.642 58.142)"/><rect class="a" width="4.808" height="4.808" transform="translate(52.642 87.213)"/><rect class="a" width="4.808" height="4.808" transform="translate(52.642 116.283)"/><rect class="a" width="4.808" height="4.809" transform="translate(52.642 145.354)"/><rect class="a" width="4.808" height="4.808" transform="translate(52.642 174.425)"/><rect class="a" width="4.808" height="4.808" transform="translate(52.642 203.496)"/><rect class="a" width="4.808" height="4.808" transform="translate(52.642 232.567)"/><rect class="a" width="4.808" height="4.808" transform="translate(52.642 261.638)"/><rect class="a" width="4.808" height="4.808" transform="translate(52.642 290.709)"/></g><g transform="translate(418.184 374.368)"><path class="b" d="M444.42,460.81l1.258,26.841,14.9,3.638,4.7-31.682Z" transform="translate(-414.489 -225.621)"/><path d="M461.321,492.3l-16.086-3.927-1.322-27.985,22.322-1.286Zm-14.811-4.978,13.714,3.35L464.7,460.51l-19.392,1.12Z" transform="translate(-414.684 -225.817)"/><path d="M470.84,482.2s-12.07-1.035-16.823-6.445c0,0-21.833,16.014-27.024,18.731,0,0-6.24,4.14-3.446,10.706h0c8.959.5,47.14.13,47.14.13S470.484,487.027,470.84,482.2Z" transform="translate(-422.827 -219.385)"/><g transform="translate(15.572 0)"><path class="c" d="M437.511,291.323c-2.1,30.624-3.225,63.374-2.893,98.019a1255.759,1255.759,0,0,0,9.575,143.187,99.7,99.7,0,0,0,29.093-1.555,1077.336,1077.336,0,0,1,5.143-116.915c3.146-31.393,7.3-57.584,9.4-70.151,2.527-15.106,5.015-28.015,7.055-38.013a146.042,146.042,0,0,0-57.376-14.572Z" transform="translate(-433.868 -290.601)"/><path d="M453.682,533.856c-3.126,0-6.258-.146-9.359-.435l-.554-.051-.069-.553a1261.42,1261.42,0,0,1-9.581-143.266c-.313-32.569.661-65.565,2.893-98.073l.047-.675.676.03a146.693,146.693,0,0,1,57.648,14.64l.484.236-.108.527c-2.562,12.558-4.933,25.339-7.05,37.99-3.869,23.126-7.116,47.368-9.4,70.1a1080.878,1080.878,0,0,0-5.14,116.838l0,.573-.56.114a100.769,100.769,0,0,1-16.118,1.928Q455.6,533.855,453.682,533.856Zm-8.676-1.765a99.119,99.119,0,0,0,27.777-1.483,1081.7,1081.7,0,0,1,5.151-116.417c2.28-22.766,5.535-47.04,9.408-70.195,2.089-12.49,4.427-25.106,6.951-37.51a145.344,145.344,0,0,0-55.944-14.237c-2.2,32.253-3.155,64.982-2.844,97.287A1259.838,1259.838,0,0,0,445.006,532.091Z" transform="translate(-434.061 -290.802)"/></g></g><g transform="translate(492.31 374.368)"><path class="b" d="M495.486,459.607l4.7,31.682,14.9-3.638,1.258-26.841Z" transform="translate(-468.896 -225.621)"/><path d="M494.936,459.1l22.321,1.286-1.321,27.985L499.85,492.3Zm20.926,2.53-19.391-1.12,4.473,30.161,13.714-3.35Z" transform="translate(-469.108 -225.817)"/><path d="M497.642,505.326s38.18.374,47.14-.13h0c2.794-6.566-3.446-10.706-3.446-10.706-5.192-2.717-27.024-18.731-27.024-18.731-4.753,5.41-16.825,6.445-16.825,6.445C497.845,487.027,497.642,505.326,497.642,505.326Z" transform="translate(-468.123 -219.385)"/><g transform="translate(0 0)"><path class="c" d="M534.247,291.323c2.1,30.624,3.224,63.374,2.893,98.019a1255.742,1255.742,0,0,1-9.577,143.187,99.686,99.686,0,0,1-29.092-1.555,1077.28,1077.28,0,0,0-5.144-116.915c-3.145-31.393-7.3-57.584-9.4-70.151-2.527-15.106-5.014-28.015-7.054-38.013a146.042,146.042,0,0,1,57.376-14.572Z" transform="translate(-476.084 -290.601)"/><path d="M518.487,533.856q-1.913,0-3.819-.073a100.81,100.81,0,0,1-16.116-1.928l-.56-.114.006-.573a1081.221,1081.221,0,0,0-5.14-116.838c-2.279-22.745-5.529-46.987-9.4-70.1-2.121-12.678-4.492-25.458-7.05-37.99l-.108-.527.484-.236a146.692,146.692,0,0,1,57.648-14.64l.676-.03.047.675c2.233,32.516,3.206,65.511,2.894,98.073a1261.42,1261.42,0,0,1-9.582,143.266l-.068.553-.554.051C524.748,533.71,521.613,533.856,518.487,533.856Zm-19.1-3.248a99.119,99.119,0,0,0,27.777,1.483,1260.183,1260.183,0,0,0,9.5-142.555c.309-32.3-.647-65.028-2.846-97.287a145.345,145.345,0,0,0-55.944,14.237c2.52,12.378,4.858,24.995,6.953,37.51,3.871,23.148,7.125,47.421,9.408,70.195A1082.047,1082.047,0,0,1,499.388,530.608Z" transform="translate(-476.303 -290.802)"/></g></g><path d="M474.3,298.478c6.76,8.609,21.572,29.975,23.323,60.477a105.232,105.232,0,0,1-4.846,37.94,499.521,499.521,0,0,0-7.373-52.853C482.184,327.509,478.356,312.285,474.3,298.478Z" transform="translate(15.232 86.53)"/><g transform="translate(358.612 198.001)"><path class="a" d="M426.544,175.129c7.857-5.485,10.006-7.079,14.317-8.623a48.94,48.94,0,0,1,14.644-2.441c12.306-.029,53.489,42.306,100.615,107.846-1.085,5.654-8.028,38.859-39.776,58.579-24.736,15.365-49.553,13.24-57.132,12.295a267.644,267.644,0,0,1-37.455-41.727,270.581,270.581,0,0,1-41.375-86.28,52.755,52.755,0,0,1,9.4-13.017c3.013-3.045,5.317-4.6,10.124-7.956C408.806,187.606,417.652,181.335,426.544,175.129Z" transform="translate(-379.643 -163.372)"/><path d="M470.384,344.34a89.707,89.707,0,0,1-11.052-.674l-.216-.028-.162-.146a268.636,268.636,0,0,1-79.033-128.335l-.072-.262.123-.241a53.445,53.445,0,0,1,9.527-13.188c2.925-2.955,5.155-4.508,9.6-7.6l.622-.434q6.984-4.867,13.942-9.774,6.342-4.458,12.693-8.9l.4.568-.4-.568,1.346-.941c6.727-4.7,8.993-6.283,13.134-7.766a49.121,49.121,0,0,1,14.877-2.481h.014c13.566,0,56.1,45.465,101.165,108.135l.173.243-.055.292c-1.747,9.093-9.8,40.22-40.091,59.038A87.806,87.806,0,0,1,470.384,344.34Zm-10.664-2.024c11.589,1.415,34.132,1.65,56.465-12.222,29.5-18.323,37.571-48.519,39.4-57.828-50.154-69.715-88.869-107.316-99.865-107.316h-.011a48.718,48.718,0,0,0-14.413,2.4c-3.966,1.421-6.016,2.853-12.806,7.6l-1.347.941q-6.354,4.435-12.689,8.9-6.965,4.9-13.946,9.778l-.622.434c-4.375,3.045-6.57,4.576-9.406,7.439a52.034,52.034,0,0,0-9.154,12.607,267.217,267.217,0,0,0,78.391,127.268Z" transform="translate(-379.849 -163.565)"/></g><path class="d" d="M686.625,76.974,428.038,91.166a4.041,4.041,0,0,0-3.815,4.255L443.9,453.875,710.555,439.24,690.882,80.787A4.042,4.042,0,0,0,686.625,76.974ZM447.009,103.6l-14.75.81-.647-11.781,14.751-.81Zm29.6-1.625-14.75.81L461.208,91l14.751-.809Zm29.6-1.625-14.75.81-.646-11.781,14.75-.81Zm29.6-1.625-14.751.81L520.4,87.754l14.75-.81ZM565.4,97.1l-14.751.81L550,86.129l14.75-.81Zm30.286-1.663-14.75.81-.647-11.781,14.751-.81Zm29.884-1.64-14.75.81-.647-11.781,14.751-.81Zm29.885-1.64-14.751.81-.646-11.781,14.75-.809Zm29.884-1.64-14.75.81-.647-11.782,14.751-.809Z" transform="translate(-4.105 0.999)"/><path class="b" d="M684.332,77.121,425.565,87.52a4.041,4.041,0,0,0-3.876,4.2l14.416,358.7L702.947,439.7,688.533,81A4.042,4.042,0,0,0,684.332,77.121ZM444.352,100.229l-14.761.593-.474-11.789,14.761-.593Zm29.617-1.191-14.761.593-.474-11.789,14.761-.593Zm29.616-1.189-14.759.593-.474-11.79,14.761-.593ZM533.2,96.658l-14.761.593-.473-11.789,14.761-.593Zm29.617-1.191-14.761.593-.473-11.789,14.76-.593Zm30.308-1.217-14.761.593-.474-11.79,14.761-.593Zm29.9-1.2-14.761.593-.473-11.79,14.761-.593Zm29.906-1.2-14.761.593L637.7,80.65l14.761-.593Zm29.9-1.2-14.761.593-.474-11.79,14.761-.593Z" transform="translate(-5.083 1.056)"/><g transform="translate(485.633 237.789)"><path d="M471.486,196.8l.424-.018,3.984,12.708,3.422-13.031.424-.018,4.585,12.74,2.86-13.064.426-.018-3.062,13.771-.387.017-4.6-12.8-3.476,13.15-.348.015Z" transform="translate(-471.486 -190.79)"/><path d="M489.968,208.788c-2.9.126-5.113-1.774-5.259-5.137s1.892-5.449,4.793-5.575a4.5,4.5,0,0,1,4.99,4.275c.021.5.03.7.026,1.047l-9.417.41c.2,3.342,2.512,4.734,4.851,4.632,2.32-.1,4.025-1.436,4.264-3.518l.387-.018C494.35,207.068,492.675,208.67,489.968,208.788Zm-4.882-5.328,9.089-.4a4.245,4.245,0,0,0-4.657-4.641A4.465,4.465,0,0,0,485.086,203.459Z" transform="translate(-466.383 -190.029)"/><path d="M502.517,209.084c-2.688.116-4.82-1.261-4.924-3.64l2.359-.1a2.158,2.158,0,0,0,2.484,1.887c1.547-.068,2.38-.937,2.331-2.078-.141-3.249-7.184-.832-7.4-5.78-.1-2.358,1.709-3.91,4.455-4.029,2.573-.112,4.447,1.164,4.741,3.456l-2.437.105a2.1,2.1,0,0,0-2.338-1.68c-1.278.017-2.237.679-2.18,1.974.133,3.036,7.165.832,7.38,5.744C507.073,206.948,505.513,208.953,502.517,209.084Z" transform="translate(-461.494 -191.085)"/><path d="M511.881,196.933c2.8-.122,5.1,1.946,5.247,5.233s-1.963,5.646-4.767,5.768a4.822,4.822,0,0,1-3.787-1.559l.287,6.613-2.2.1-.683-15.72,2.2-.1.068,1.566A4.655,4.655,0,0,1,511.881,196.933Zm-.4,1.934a3.61,3.61,0,0,0,.313,7.173,3.361,3.361,0,0,0,3.09-3.776A3.276,3.276,0,0,0,511.48,198.867Z" transform="translate(-458.17 -190.47)"/><path d="M520.624,207.565a5.174,5.174,0,0,1-5.557-5.28,5.1,5.1,0,0,1,5.079-5.721,4.97,4.97,0,0,1,5.409,5.012,6.626,6.626,0,0,1-.031,1.087l-8.139.355a2.934,2.934,0,0,0,3.159,2.689,2.58,2.58,0,0,0,2.448-1.6l2.379-.1A4.873,4.873,0,0,1,520.624,207.565Zm-3.3-6.326,5.9-.258a2.769,2.769,0,0,0-3.094-2.559A2.906,2.906,0,0,0,517.328,201.239Z" transform="translate(-454.661 -190.613)"/><path d="M528.655,196.192a4.642,4.642,0,0,1,5.065,3.324l-2.379.1a2.5,2.5,0,0,0-2.606-1.573c-1.778.079-2.9,1.444-2.8,3.766.1,2.34,1.339,3.6,3.117,3.524a2.433,2.433,0,0,0,2.459-1.792l2.379-.1a4.791,4.791,0,0,1-4.757,3.752c-3.055.134-5.316-1.939-5.46-5.284C523.527,198.584,525.6,196.326,528.655,196.192Z" transform="translate(-451.338 -190.757)"/><path d="M532.1,194.474a1.4,1.4,0,1,1,1.474,1.351A1.4,1.4,0,0,1,532.1,194.474Zm.413,2.811,2.2-.1.464,10.655-2.2.1Z" transform="translate(-448.08 -191.986)"/><path d="M540.511,195.7a4.536,4.536,0,0,1,3.769,1.558l-.068-1.547,2.223-.1.464,10.655-2.223.1-.069-1.584a4.591,4.591,0,0,1-3.655,1.921c-2.765.121-5.087-2.046-5.23-5.332S537.707,195.819,540.511,195.7Zm.548,1.892a3.268,3.268,0,0,0-3.074,3.677,3.36,3.36,0,0,0,3.388,3.5,3.61,3.61,0,0,0-.313-7.173Z" transform="translate(-446.685 -190.979)"/><path d="M545.426,192.911l2.2-.1.622,14.309-2.2.1Z" transform="translate(-442.936 -192.059)"/><path d="M548.925,193.742a1.4,1.4,0,1,1,1.472,1.352A1.393,1.393,0,0,1,548.925,193.742Zm.412,2.81,2.2-.1L552,207.112l-2.2.1Z" transform="translate(-441.585 -192.269)"/><path d="M559.935,196.785l-4.526,7.266,4.833-.209.079,1.8-7.385.32-.079-1.8,4.545-7.267-4.853.212-.078-1.8,7.385-.322Z" transform="translate(-440.215 -191.22)"/><path d="M564.669,205.648a5.176,5.176,0,0,1-5.558-5.28c-.144-3.345,1.927-5.585,5.079-5.721a4.971,4.971,0,0,1,5.41,5.012,6.793,6.793,0,0,1-.031,1.087l-8.139.353a2.934,2.934,0,0,0,3.159,2.69,2.58,2.58,0,0,0,2.448-1.6l2.379-.1A4.872,4.872,0,0,1,564.669,205.648Zm-3.3-6.326,5.9-.258a2.77,2.77,0,0,0-3.1-2.559A2.906,2.906,0,0,0,561.372,199.322Z" transform="translate(-437.654 -191.353)"/><path d="M514.467,211.508l.385-.017.593,13.613-.385.015Z" transform="translate(-454.89 -184.847)"/><path d="M525.719,217.746c-.122-2.783-1.71-4.129-4.011-4.029-2.379.1-4.034,1.688-3.892,4.955l.243,5.549-.387.017-.455-10.44.387-.017.121,2.764a3.918,3.918,0,0,1,3.969-3.176c2.282-.1,4.255,1.171,4.4,4.4l.266,6.092-.369.015Z" transform="translate(-453.828 -184.124)"/><path d="M525.878,221.171a.523.523,0,1,1,.481-.545A.491.491,0,0,1,525.878,221.171Z" transform="translate(-450.686 -181.513)"/></g><g transform="translate(515.158 74.382)"><g transform="translate(28.664 2.1)"><path class="b" d="M513.5,76.424a9.491,9.491,0,0,1,5.179,1.074,9.734,9.734,0,0,1,4.474,5.424c.211.574,1.156,3.134.272,3.8-.693.518-2.193-.362-2.849-.747a7.776,7.776,0,0,1-2.488-2.355" transform="translate(-513.451 -75.704)"/><path d="M522.9,87.762a5.945,5.945,0,0,1-2.657-1,8.386,8.386,0,0,1-2.711-2.567l1.149-.775a7.034,7.034,0,0,0,2.264,2.147c1.716,1,2.051.814,2.081.789,0,0,.414-.509-.5-3a9.05,9.05,0,0,0-4.153-5.054,8.77,8.77,0,0,0-4.8-.994l-.105-1.382a10.126,10.126,0,0,1,5.558,1.155,10.365,10.365,0,0,1,4.8,5.8c.9,2.434.909,3.935.036,4.591A1.558,1.558,0,0,1,522.9,87.762Z" transform="translate(-513.466 -75.897)"/></g><g transform="translate(22.659 1.297)"><path class="b" d="M514.667,86c1.415,2.58,3,4.23,3.967,3.924,1.1-.349,1.139-3.149,1.152-4.068a10.259,10.259,0,0,0-1.424-5.7c-.416-.683-2.742-4.5-6.238-4.339a5.336,5.336,0,0,0-2.711.95" transform="translate(-509.026 -75.124)"/><path d="M518.5,90.85c-1.755,0-3.582-2.962-4.328-4.321l1.216-.668c1.62,2.957,2.9,3.687,3.148,3.6.026-.008.622-.234.669-3.413a9.568,9.568,0,0,0-1.322-5.33c-.76-1.249-2.779-4.163-5.612-4.007a4.606,4.606,0,0,0-2.359.832l-.773-1.149a5.969,5.969,0,0,1,3.066-1.067c3.379-.165,5.757,2.855,6.863,4.67a11.027,11.027,0,0,1,1.525,6.067c-.028,1.967-.24,4.276-1.636,4.718A1.488,1.488,0,0,1,518.5,90.85Z" transform="translate(-509.134 -75.317)"/></g><g transform="translate(17.483 1.478)"><path class="b" d="M511.736,86.5a3.97,3.97,0,0,0,2.246,2.559,1.838,1.838,0,0,0,1.491,0c.3-.182.769-.672.678-2.645a13.806,13.806,0,0,0-2.509-7.119c-1.182-1.584-2.151-2.883-3.932-3.255a5.711,5.711,0,0,0-4.047.846" transform="translate(-505.299 -75.256)"/><path d="M514.93,90.113a3.348,3.348,0,0,1-1.063-.2,4.583,4.583,0,0,1-2.689-3l1.32-.426a3.284,3.284,0,0,0,1.8,2.112c.2.065.664.216.913.067.2-.121.406-.722.346-2.021a13.1,13.1,0,0,0-2.37-6.735c-1.16-1.555-2-2.675-3.519-2.991a5.025,5.025,0,0,0-3.543.757l-.726-1.181a6.4,6.4,0,0,1,4.552-.933c2.036.423,3.106,1.856,4.344,3.515a14.611,14.611,0,0,1,2.648,7.5c.082,1.762-.238,2.8-1.01,3.268A1.893,1.893,0,0,1,514.93,90.113Z" transform="translate(-505.4 -75.448)"/></g><path class="b" d="M493.125,84.932l10.306-9.492c1.08-.617,2.15-.75,2.713-.272.653.556.41,1.755.27,2.441-.679,3.354-3.727,6.178-5.694,7.729" transform="translate(-492.656 -74.189)"/><path d="M501.28,86.076l-.859-1.088c2.151-1.7,4.84-4.343,5.446-7.323.09-.449.3-1.486-.043-1.776-.249-.215-.981-.173-1.853.308l-10.245,9.437-.938-1.019,10.431-9.584c1.379-.789,2.722-.864,3.505-.2.962.818.663,2.3.5,3.1C506.536,81.332,503.611,84.236,501.28,86.076Z" transform="translate(-492.787 -74.382)"/><g transform="translate(10.481 2.032)"><path class="b" d="M505.609,82.466l4.678,4.95c.595,1.195,1.457,1.906,2.1,1.762.836-.184,1.077-1.751,1.152-2.237.611-3.948-2.767-7.367-3.593-8.2-1.178-1.193-2.52-2.552-4.2-2.373a4.473,4.473,0,0,0-2.508,1.424,8.477,8.477,0,0,0-2.4,4.081" transform="translate(-500.161 -75.654)"/><path d="M512.406,90.084c-.886,0-1.834-.775-2.506-2.071l-4.609-4.878,1.008-.951,4.795,5.116c.541,1.088,1.174,1.436,1.332,1.394,0,0,.373-.1.618-1.663.252-1.645-.132-4.3-3.4-7.613-1.127-1.141-2.289-2.326-3.637-2.172a3.874,3.874,0,0,0-2.114,1.245,7.8,7.8,0,0,0-2.2,3.748l-1.339-.353a9.115,9.115,0,0,1,2.606-4.415,5.069,5.069,0,0,1,2.9-1.6c2.017-.22,3.54,1.331,4.767,2.571,3.679,3.727,4.09,6.842,3.788,8.8-.108.694-.394,2.521-1.688,2.81A1.538,1.538,0,0,1,512.406,90.084Z" transform="translate(-500.348 -75.848)"/></g></g><g transform="translate(343.864 149.045)"><g transform="translate(19.341 9.057)"><path class="b" d="M401.7,135.418c4.413,3.787,8.527,7.474,13.032,11.336.581.5,1.483.175,2.613-.426s4.508-2.819,5.163-.083-3.4,4.842-1.3,7.834,6.362,10.006,3.023,13.8-6.263,5.036-10.126,6.828l17.92,18.418a25.581,25.581,0,0,1-9.767,12.273c-8.9,5.83-18.34,3.756-20.05,3.349-4.3-5.062-9.43-15.026-15.2-27.87-4.434-9.866-3.392-21.229-2.79-31.975C389.929,144.289,395.776,139.8,401.7,135.418Z" transform="translate(-382.969 -134.534)"/><path d="M408.516,210.368a27.686,27.686,0,0,1-6.272-.7l-.22-.053-.147-.173c-3.923-4.616-8.785-13.524-15.306-28.034-4.194-9.333-3.578-19.862-2.982-30.043l.148-2.563.238-.193c5.481-4.429,11.37-8.972,17.507-13.505l.444-.327.419.359c2.172,1.863,4.272,3.7,6.38,5.549,2.178,1.907,4.365,3.824,6.653,5.786.334.286,1.465-.315,1.837-.511l.36-.2c1.157-.65,3.1-1.738,4.53-1.113a2.275,2.275,0,0,1,1.272,1.679,5.256,5.256,0,0,1-.983,3.819c-.847,1.511-1.32,2.5-.424,3.779,2.629,3.748,6.513,10.637,2.976,14.66-3.173,3.608-5.977,4.973-9.466,6.588l17.544,18.032-.157.413a26.342,26.342,0,0,1-10.034,12.607A25.936,25.936,0,0,1,408.516,210.368Zm-5.73-1.995c2.764.622,11.305,1.921,19.289-3.307a24.913,24.913,0,0,0,9.338-11.528l-18.29-18.8,1.43-.664c3.5-1.619,6.269-2.9,9.352-6.4,3.019-3.433-1.141-10.2-3.07-12.949-1.442-2.054-.448-3.827.351-5.252.57-1.019,1.063-1.9.843-2.818-.139-.582-.4-.694-.48-.732-.8-.348-2.549.632-3.3,1.052l-.388.213c-.819.434-2.34,1.239-3.389.34-2.291-1.964-4.483-3.884-6.665-5.8-1.97-1.724-3.931-3.442-5.951-5.179-5.87,4.346-11.51,8.7-16.775,12.946l-.112,1.95c-.588,10.015-1.195,20.371,2.861,29.394C394.218,195.048,398.975,203.809,402.785,208.374Z" transform="translate(-383.162 -134.78)"/></g><path class="e" d="M402.063,144.727c.463-.671,1.438-.536,2.07-.2s1.173,1.024.735,1.709-1.429.545-2.058.211S401.6,145.4,402.063,144.727Z" transform="translate(-356.589 -122.067)"/><path d="M411.844,155.382a5.831,5.831,0,0,1-2.1,1.343,5.4,5.4,0,0,1-4.634-.424,8.03,8.03,0,0,1-1.957-1.509c-.137-.14-.337-.424-.48-.585,3.648-.775,7.285-1.622,10.914-2.487-.032.179-.035.441-.072.6A5.75,5.75,0,0,1,411.844,155.382Zm-7.269-.618c1.53,1.074,2.893,1.791,4.806,1.1a5.427,5.427,0,0,0,2.977-2.923C409.778,153.579,407.175,154.165,404.576,154.764Z" transform="translate(-356.286 -119.182)"/><path d="M393.265,154.113c-.4.1.049.248-.658.071a8.622,8.622,0,0,1-3.234-1.471.468.468,0,0,1,.044-.681.648.648,0,0,1,.789.008,7.871,7.871,0,0,0,2.786,1.2c.633.137.406.384.441.588s-.162.187-.177.256S393.279,154.108,393.265,154.113Z" transform="translate(-361.472 -119.112)"/><path d="M390.589,155.618c-.152.08.062-.05-.109.071s-.614-.033-.731-.165c-1.156-1.313-.475-3.748.222-4.488s.485-.259.865-.255.348.391.194.639.137-.233-.3.3-.871,2.362,0,3.282C390.84,155.117,390.74,155.537,390.589,155.618Zm-.316-4.021,0,0,0,0,0,0,0,0" transform="translate(-361.519 -119.606)"/><path d="M407.2,163.574a34.733,34.733,0,0,1-7.31,2.517.491.491,0,0,0-.294.739c.222.274.229.331.6.442a135.441,135.441,0,0,1,18.851,6.814C414.862,170.914,410.429,167.756,407.2,163.574Z" transform="translate(-357.511 -114.605)"/><path d="M398.449,145.287a.726.726,0,0,1-.712-.067.433.433,0,0,1-.086-.421c.279-1.927,3.088-3.511,4.185-3.632s.609.172.642.426.281.312-.567.462-3.036,1.428-3.242,2.966A.577.577,0,0,1,398.449,145.287Z" transform="translate(-358.235 -123.267)"/><path d="M370.466,157.356c.1-.323-.024.067,0-1.272.222-12.273,6.15-20.962,18.781-25.668,5.05-1.881,12.039-4.792,16.639,2.671,3.3,5.346,1.7,18.492,1.8,25.674,0,.356.341.4-.152,1.114s-1.982.965-3.382.062c-2.1-1.356-4.494-3.323-7.28-2.307a.742.742,0,0,0-.225.107c-4.344,3.554-1.681,6.109.5,10,2.5,4.458,2.374,11.243.112,16.769-2.545,6.213-4.876,4.7-11.7-2.308S365,174.518,370.466,157.356Z" transform="translate(-369.209 -128.246)"/></g><path d="M407.655,229.478q3.221,14.947,7.412,30.916,3.437,13,7.144,25.095a154.35,154.35,0,0,1-23.958-38.112Z" transform="translate(-14.131 59.887)"/><g transform="translate(433.012 253.306)"><g transform="translate(23.518 0)"><g transform="translate(0 52.709)"><g transform="translate(26.539 4.613)"><path class="b" d="M470.313,257.053c.642-3.569,2.936-5.845,4.79-7.685a21.221,21.221,0,0,1,5.606-3.977,23.8,23.8,0,0,1,10.666,24.227,29.6,29.6,0,0,1-9.107.609c-3.5-.312-5.865-.521-8.069-2.236A11.616,11.616,0,0,1,470.313,257.053Z" transform="translate(-469.444 -244.597)"/><path d="M485.066,271.256q-1.335,0-2.667-.118c-3.524-.313-6.067-.539-8.432-2.379-3.776-2.937-4.8-7.947-4.144-11.607h0c.682-3.784,3.066-6.15,4.983-8.052a21.9,21.9,0,0,1,5.79-4.11l.351-.172.328.211a24.624,24.624,0,0,1,8.837,9.86,24.91,24.91,0,0,1,2.14,15.069l-.078.457-.453.1A30.442,30.442,0,0,1,485.066,271.256ZM471.188,257.4a10.943,10.943,0,0,0,3.63,10.268c2.043,1.587,4.294,1.788,7.7,2.092a28.939,28.939,0,0,0,8.44-.495,23.511,23.511,0,0,0-2.092-13.762,23.2,23.2,0,0,0-8.012-9.09,20.473,20.473,0,0,0-5.072,3.67c-1.78,1.767-3.993,3.963-4.6,7.316Z" transform="translate(-469.637 -244.818)"/></g><g transform="translate(36.437)"><path class="b" d="M477.764,246.675l8.5-4.61a25.137,25.137,0,0,1,9.13,9.4,25.456,25.456,0,0,1,2.8,15.911L488.43,270.9a23.811,23.811,0,0,0-10.666-24.227Z" transform="translate(-476.397 -241.268)"/><path d="M487.921,272.183l.208-1.18a23.116,23.116,0,0,0-10.357-23.521l-.994-.632,9.88-5.36.338.2a25.809,25.809,0,0,1,9.383,9.663,26.124,26.124,0,0,1,2.882,16.348l-.062.409Zm-8.441-25.222a24.488,24.488,0,0,1,10.189,23.117l8.278-2.988a24.7,24.7,0,0,0-2.782-15.066,24.393,24.393,0,0,0-8.543-8.938Z" transform="translate(-476.778 -241.49)"/></g><g transform="translate(0 16.216)"><path class="b" d="M451.025,266.369,477.693,253.8a18.824,18.824,0,0,1,4.43,10.668,53.165,53.165,0,0,1-14.916,7.051c-5.463,1.59-10.594,3.009-13.741.27A8.165,8.165,0,0,1,451.025,266.369Z" transform="translate(-450.285 -252.952)"/><path d="M458.439,274.273a7.644,7.644,0,0,1-5.222-1.72,8.641,8.641,0,0,1-2.677-5.876l-.05-.488,27.591-13,.345.4a19.525,19.525,0,0,1,4.592,11.059l.033.4-.337.227a53.933,53.933,0,0,1-15.11,7.141C464.463,273.341,461.258,274.273,458.439,274.273Zm-6.459-7.254a7.028,7.028,0,0,0,2.147,4.488c2.926,2.546,8.094,1.042,13.092-.414a52.53,52.53,0,0,0,14.381-6.731,18.122,18.122,0,0,0-3.894-9.465Z" transform="translate(-450.491 -253.189)"/></g></g><g transform="translate(47.596)"><path class="b" d="M539.066,203.652l-54.072,54.231" transform="translate(-484.765 -203.391)"/><rect width="76.582" height="0.693" transform="matrix(0.706, -0.709, 0.709, 0.706, 0, 54.264)"/></g><g transform="translate(58.234 78.494)"><path class="b" d="M555.693,260.369l-63.19-.043" transform="translate(-492.503 -260.001)"/><rect width="63.189" height="0.693"/></g></g><g transform="translate(0 75.313)"><path class="b" d="M439.788,274.126a29.922,29.922,0,0,0,6.78-4.882c7.089-6.33,6.972-6.723,9.222-8.045a21.053,21.053,0,0,1,7.5-2.621,22.463,22.463,0,0,1,7.071,0c-3.663,1.45-6.649,2.768-8.879,3.8-1.124.518-1.939.912-1.989,1.536-.11,1.418,3.846,3.177,7.233,3.8,6.01,1.1,11.3-1.188,14.826-2.713a40.477,40.477,0,0,0,6.328-3.435,3.019,3.019,0,0,1,.722,1.175c.6,1.859-.979,3.594-1.084,3.707a5.61,5.61,0,0,1,.272,1.626,6.315,6.315,0,0,1-1.627,4.158,7.654,7.654,0,0,1,.09,1.719c-.391,6.193-8.6,10.967-14.736,12.927-4.535,1.447-6.16.708-16.994,1.266-5.977.306-10.865.8-14.118,1.175q-3.086-6.579-6.17-13.154A25.59,25.59,0,0,0,439.788,274.126Z" transform="translate(-433.249 -257.604)"/><path d="M440.266,290.252l-6.742-14.373.826-.2a24.917,24.917,0,0,0,5.4-1.978h0a29.217,29.217,0,0,0,6.554-4.711c2.828-2.526,4.513-4.107,5.629-5.154a18.042,18.042,0,0,1,3.779-3.041,21.607,21.607,0,0,1,7.746-2.708,23.117,23.117,0,0,1,7.288,0l2.5.4-2.358.933c-3.03,1.2-6,2.474-8.844,3.784-.549.252-1.57.725-1.589.962-.047.6,2.8,2.352,6.666,3.061,5.806,1.063,10.992-1.182,14.425-2.667a39.72,39.72,0,0,0,6.22-3.377l.48-.317.4.412a3.686,3.686,0,0,1,.886,1.444,4.562,4.562,0,0,1-.976,4.085,6.294,6.294,0,0,1,.2,1.453,6.9,6.9,0,0,1-1.59,4.376,8.21,8.21,0,0,1,.051,1.554c-.441,7-9.772,11.806-15.217,13.544-3.03.968-4.781.99-8.619,1.04-2.107.028-4.731.061-8.551.258-4.713.243-9.448.636-14.073,1.171Zm-4.772-13.436,5.6,11.946c4.5-.51,9.092-.887,13.666-1.123,3.847-.2,6.484-.231,8.605-.259,3.7-.049,5.381-.069,8.214-.973,6.626-2.115,13.913-6.87,14.255-12.312a6.84,6.84,0,0,0-.082-1.558l-.054-.324.215-.247a5.614,5.614,0,0,0,1.457-3.693,4.935,4.935,0,0,0-.238-1.425l-.126-.39.28-.3c.015-.015,1.415-1.527.931-3.018a2.215,2.215,0,0,0-.213-.463,41.4,41.4,0,0,1-5.9,3.145c-3.587,1.551-9.006,3.9-15.227,2.757-2.621-.48-7.977-2.219-7.8-4.531.082-1.047,1.151-1.54,2.388-2.112,2.033-.938,4.136-1.859,6.279-2.746a22.014,22.014,0,0,0-4.071.262,20.3,20.3,0,0,0-7.261,2.535,16.6,16.6,0,0,0-3.533,2.857c-1.12,1.052-2.814,2.641-5.578,5.108a30.589,30.589,0,0,1-6.929,4.983h0A26.284,26.284,0,0,1,435.494,276.816Z" transform="translate(-433.524 -257.797)"/></g><path d="M463.672,271.123l-.248-1.364a27.206,27.206,0,0,0,12.461-5.78l.882,1.07a28.564,28.564,0,0,1-13.095,6.074Z" transform="translate(-421.979 -180.097)"/><path d="M462.994,276.606l-.335-1.345a23.828,23.828,0,0,0,12.014-7.247l1.034.923a25.216,25.216,0,0,1-12.712,7.668Z" transform="translate(-422.274 -178.539)"/></g><g transform="translate(344.282 249.125)"><path class="a" d="M384.386,200.652a166.024,166.024,0,0,0-11.42,35.826c-3.458,17.519-3.119,30.735-2.682,44.449.657,20.584,1.1,31,6.619,36.931,8.588,9.23,22.635,8.734,36.774,8.27,11.376-.374,30.478-2.706,52.612-14.284l-6.508-14.1a104.8,104.8,0,0,1-55.054-.27,145.51,145.51,0,0,1,3.165-20.16,147.056,147.056,0,0,1,15.548-39.775" transform="translate(-369.317 -200.368)"/><path d="M404.667,327.1c-10.866,0-21.206-1.31-28.077-8.694-5.812-6.246-6.164-17.3-6.8-37.381-.419-13.1-.85-26.65,2.693-44.6a167.024,167.024,0,0,1,11.469-35.977l1.264.567a165.545,165.545,0,0,0-11.372,35.678c-3.514,17.8-3.084,31.268-2.67,44.292.676,21.23,1.2,30.854,6.433,36.482,8.342,8.964,21.818,8.519,36.092,8.052l.151,0a120.71,120.71,0,0,0,51.729-13.9l-5.988-12.974a105.506,105.506,0,0,1-54.852-.423l-.556-.152.05-.574a146.547,146.547,0,0,1,18.8-60.218l1.2.685a145.122,145.122,0,0,0-18.574,59.076,104.111,104.111,0,0,0,54.134.118l.563-.15,7.03,15.231-.585.3A122.234,122.234,0,0,1,413.893,326.9l-.151.006C410.719,327,407.672,327.1,404.667,327.1Z" transform="translate(-369.511 -200.447)"/></g><path d="M396.016,266.625c-2.094,3.629-2.62,7.15-1.151,8.58,1.051,1.022,2.948.809,6.148.452a28.9,28.9,0,0,0,5.646-1.211L395.453,272Q395.734,269.31,396.016,266.625Z" transform="translate(-15.761 74.231)"/></g></svg>