<svg xmlns="http://www.w3.org/2000/svg" width="616.913" height="431.379" viewBox="0 0 616.913 431.379"><defs><style>.a{fill:#ff7f66;}.b,.c{fill:#fff;}.c{stroke:#000;stroke-miterlimit:10;}.d{fill:#191919;}</style></defs><g transform="translate(0 -85.448)"><path d="M6.725,0C5.557,1.167,4.4,2.317,3.232,3.474a1.8,1.8,0,0,1-2.525,0L0,2.769C.055,1.493.145.687.145.687A36.5,36.5,0,0,1,6.725,0Z" transform="translate(203.913 252.639)"/><path d="M253.949,104.318c-13.862,6-28.421,11.936-43.5,17.674C167.9,138.179,127.528,150.5,93.724,158.186c-51.9,11.789-88.294,12.657-93.17-.163-6.09-15.99,38.563-48.662,107.275-81.408,22.265-10.6,47.042-21.216,73.436-31.27,30.581-11.635,60.043-21.271,86.745-28.628,67.484-18.593,117.372-22.566,123.145-7.4C398.087,27.516,339.2,67.383,253.949,104.318Z" transform="translate(225.204 310.647)"/><circle cx="11.853" cy="11.853" r="11.853" transform="translate(517.059 282.092)"/><circle cx="4.047" cy="4.047" r="4.047" transform="translate(567.723 379.873)"/><circle class="a" cx="5.718" cy="5.718" r="5.718" transform="translate(71.426 359.407)"/><path d="M23.8,10.091a61.262,61.262,0,0,1-8.133-.526C5.4,8.2.216,4.68,0,4.531L.783,3.4c.05.034,5.2,3.505,15.17,4.82C32.656,10.412,49.817,4.96,61.273,0l.546,1.265C52.025,5.5,38.113,10.091,23.8,10.091Z" transform="translate(132.664 283.232)"/><path d="M5.169,76.565A65.606,65.606,0,0,1,.289,45.251,65.116,65.116,0,0,1,7.717,21.076,74.8,74.8,0,0,1,24.244,0l.87,1.067a73.484,73.484,0,0,0-16.2,20.7A63.763,63.763,0,0,0,1.659,45.41,64.369,64.369,0,0,0,6.445,76.046Z" transform="translate(0 130.403)"/><path d="M42.26,51.846,40.883,51.7A55.109,55.109,0,0,0,37.5,28.9,41.169,41.169,0,0,0,25.6,11.957C19.008,6.413,10.4,2.849,0,1.363L.2,0C10.862,1.524,19.706,5.2,26.512,10.924A42.557,42.557,0,0,1,38.8,28.456,55.216,55.216,0,0,1,42.26,51.846Z" transform="translate(186.401 85.448)"/><path d="M31.38,55.629H24.313a1.694,1.694,0,0,1-1.664-1.575c-.028-.42-.024-.845-.02-1.256V52.79c0-.139,0-.279,0-.418V48.254c0-.165-.015-.27-.216-.326a12.933,12.933,0,0,1-1.331-.388,18.093,18.093,0,0,1-2.28-.918c-.457-.216-.887-.441-1.313-.688a.282.282,0,0,0-.177-.062l-.037,0a.286.286,0,0,0-.192.114l-.11.109c-.12.118-.243.24-.36.35h-.182a37.715,37.715,0,0,0-6.406.678s-.089.8-.144,2.083L5.764,45.088a1.761,1.761,0,0,1,0-2.569c1.128-1.112,2.261-2.248,3.358-3.348l.579-.58a.264.264,0,0,0,.055-.4A19.207,19.207,0,0,1,7.69,33.308a.28.28,0,0,0-.278-.247.275.275,0,0,0-.048,0c-1.857,0-3.711-.009-5.509-.028A1.738,1.738,0,0,1,0,31.146V24.439A1.731,1.731,0,0,1,1.82,22.6c.9,0,1.822-.007,2.727-.007s1.824,0,2.73.007h.044c.238,0,.331-.078.4-.336a19.193,19.193,0,0,1,1.99-4.82.277.277,0,0,0-.046-.391c-.895-.889-1.8-1.8-2.67-2.685q-.632-.639-1.264-1.277a1.7,1.7,0,0,1-.191-2.3A11.893,11.893,0,0,1,6.4,9.868c.2-.2.4-.4.6-.594.222-.219.442-.437.664-.654l.408-.4c.514-.5,1.046-1.014,1.555-1.532.162-.157.316-.323.465-.484.167-.18.339-.366.521-.537a1.736,1.736,0,0,1,1.213-.491h.05a1.756,1.756,0,0,1,1.234.562c1.149,1.147,2.307,2.312,3.427,3.439l.475.478a.366.366,0,0,0,.245.142.394.394,0,0,0,.2-.071,19.2,19.2,0,0,1,4.887-2.052.264.264,0,0,0,.229-.308c0-.933.007-1.881.014-2.8s.014-1.86.014-2.788a1.669,1.669,0,0,1,1-1.606,1.893,1.893,0,0,1,.751-.172C25.488,0,26.646,0,27.79,0s2.3,0,3.443.007H31.3a1.726,1.726,0,0,1,1.725,1.782q0,.915,0,1.827c0,1.2.008,2.433,0,3.657,0,.288.085.4.363.459A19.017,19.017,0,0,1,38.127,9.7a.341.341,0,0,0,.216.076.339.339,0,0,0,.282-.15C39.776,8.473,41.145,7.109,42.57,5.7a1.795,1.795,0,0,1,2.525.037c1.8,1.8,3.385,3.374,4.831,4.82a1.762,1.762,0,0,1-.018,2.542l-.835.834c-1.026,1.025-2.086,2.084-3.138,3.128a.23.23,0,0,0-.034.354,19.7,19.7,0,0,1,2.066,4.915c.053.176.13.229.326.229l1.829.011h.006c1.193.008,2.427.016,3.649.016a1.707,1.707,0,0,1,1.683.969,1.76,1.76,0,0,1,.181.741c.016,2.023.02,4.246.012,6.995a1.73,1.73,0,0,1-1.809,1.746H48.1c-.135.365-.264.728-.39,1.079-.272.761-.528,1.479-.824,2.2a13.5,13.5,0,0,1-.682,1.38c-.089.165-.181.334-.269.5-.082.148-.1.236.037.361.655.66,1.319,1.332,1.96,1.983l0,0c.642.651,1.306,1.324,1.964,1.986a1.754,1.754,0,0,1,0,2.587c-1.545,1.534-3.152,3.145-4.777,4.788a1.774,1.774,0,0,1-2.561,0l-.38-.38c-.875-.875-1.78-1.78-2.669-2.678l-.9-.9a.281.281,0,0,0-.2-.122H38.39a.28.28,0,0,0-.195.077,19.115,19.115,0,0,1-4.875,2.046.263.263,0,0,0-.229.307c0,.91,0,1.835-.009,2.729V51c0,.9-.009,1.829-.009,2.749a1.749,1.749,0,0,1-.978,1.7A1.682,1.682,0,0,1,31.38,55.629ZM27.836,17.378a10.433,10.433,0,0,0,.01,20.866h.019a10.311,10.311,0,0,0,4.557-1.067,10.512,10.512,0,0,0,5.846-9.455A10.478,10.478,0,0,0,27.836,17.378Z" transform="translate(194.041 206.197)"/><path d="M42.064,77.716a2.343,2.343,0,0,1-2.254-1.672c-.165-.539-.284-1.1-.4-1.638-.045-.211-.091-.427-.139-.639-.389-1.725-.8-3.553-1.251-5.587-.053-.241-.129-.365-.4-.372a26.119,26.119,0,0,1-7.292-1.228.394.394,0,0,0-.176-.042.383.383,0,0,0-.137.025.392.392,0,0,0-.224.219c-1.421,2.24-2.827,4.441-4.178,6.544a2.5,2.5,0,0,1-3.443.758c-2.655-1.684-5.349-3.39-8.008-5.071a2.432,2.432,0,0,1-.769-3.491q.866-1.364,1.732-2.737c.786-1.243,1.6-2.528,2.4-3.784a.383.383,0,0,0-.055-.564,26.623,26.623,0,0,1-4.274-6,.387.387,0,0,0-.207-.226.378.378,0,0,0-.157-.034.383.383,0,0,0-.15.03c-2.469.551-4.985,1.1-7.478,1.636a3.376,3.376,0,0,1-.7.078,2.374,2.374,0,0,1-2.384-2.068L.076,42.75a2.413,2.413,0,0,1,1.916-3.039c2.376-.542,4.865-1.1,7.4-1.657.378-.082.49-.215.5-.592a26.556,26.556,0,0,1,1.226-7.146.369.369,0,0,0-.181-.509c-2.176-1.384-4.377-2.791-6.542-4.182a2.364,2.364,0,0,1-.967-3.066,14.546,14.546,0,0,1,.9-1.517c.4-.643.821-1.29,1.226-1.916l.109-.169q.313-.486.629-.971c.476-.732.968-1.489,1.437-2.242.152-.239.3-.488.435-.729.184-.32.375-.651.587-.96a2.413,2.413,0,0,1,2-1.088,2.636,2.636,0,0,1,1.409.427c2.189,1.392,4.319,2.749,6.489,4.132a.587.587,0,0,0,.308.121.466.466,0,0,0,.313-.163,26.808,26.808,0,0,1,6-4.271.365.365,0,0,0,.229-.49c-.551-2.48-1.11-5.032-1.661-7.588a2.311,2.311,0,0,1,.863-2.484,2.523,2.523,0,0,1,.959-.459c2.923-.674,5.9-1.339,8.778-1.982l.58-.13a2.4,2.4,0,0,1,2.968,1.879C38.55,4.468,39.107,6.924,39.64,9.4c.083.386.217.5.626.509a26.172,26.172,0,0,1,7.035,1.21.808.808,0,0,0,.239.044c.164,0,.275-.08.409-.294,1.37-2.166,2.772-4.356,4.166-6.51a2.476,2.476,0,0,1,3.411-.723L63.56,8.718a2.454,2.454,0,0,1,.748,3.443c-.656,1.029-1.318,2.072-1.958,3.08l-.012.02c-.725,1.143-1.475,2.324-2.216,3.484a.338.338,0,0,0-.082.263.344.344,0,0,0,.141.238,26.9,26.9,0,0,1,4.292,6.026.389.389,0,0,0,.521.229c1.369-.3,2.763-.609,4.11-.9h.007c1.089-.238,2.216-.484,3.327-.73a3.366,3.366,0,0,1,.736-.087,2.279,2.279,0,0,1,1.838.89,2.4,2.4,0,0,1,.478.949c.733,3.181,1.451,6.367,2.135,9.468A2.4,2.4,0,0,1,75.707,38c-1.6.365-3.231.73-4.8,1.083l-.018,0-2.609.586-.311.083c-.063.478-.122.953-.179,1.413-.146,1.176-.285,2.286-.473,3.407a28.751,28.751,0,0,1-.718,2.839c-.06.23-.051.348.16.484,1.217.773,2.452,1.565,3.646,2.33l.017.011c.946.606,1.92,1.231,2.879,1.843a2.446,2.446,0,0,1,.776,3.519c-1.716,2.7-3.407,5.369-5.026,7.944a2.464,2.464,0,0,1-3.464.8c-2.361-1.487-4.506-2.851-6.556-4.169a.394.394,0,0,0-.267-.1l-.044,0a.4.4,0,0,0-.28.167,26.57,26.57,0,0,1-6,4.271.359.359,0,0,0-.229.484c.276,1.237.551,2.49.817,3.7l0,.021c.267,1.219.544,2.479.82,3.717a2.408,2.408,0,0,1-.806,2.608,2.343,2.343,0,0,1-.919.459c-3.169.732-6.39,1.458-9.576,2.16A2.371,2.371,0,0,1,42.064,77.716ZM38.837,24.359h0A14.527,14.527,0,1,0,42.079,53a14.264,14.264,0,0,0,5.229-2.352,14.467,14.467,0,0,0,.519-23.175,14.686,14.686,0,0,0-8.99-3.113Z" transform="translate(120.434 187.463)"/><path class="b" d="M46.3,87.367l-.106,0c-3.682-.232-7.381-.484-10.993-.749a2.656,2.656,0,0,1-2.438-2.625c0-.629.05-1.268.1-1.885.019-.24.038-.488.054-.734.143-2.125.293-4.283.445-6.413.017-.254.005-.428-.306-.526A29.257,29.257,0,0,1,25.6,70.76a.438.438,0,0,0-.3-.117h-.035a.438.438,0,0,0-.311.164c-2.322,2.02-4.476,3.886-6.583,5.7a2.807,2.807,0,0,1-3.935-.284c-2.228-2.566-4.58-5.266-6.989-8.023a2.736,2.736,0,0,1,.29-4c1.169-1.007,2.351-2.037,3.5-3.033l.006-.005c1-.867,2.026-1.764,3.047-2.647a.43.43,0,0,0,.12-.625,30.047,30.047,0,0,1-2.675-7.818.428.428,0,0,0-.429-.422l-.048,0c-2.89-.2-5.773-.419-8.569-.638A2.721,2.721,0,0,1,.01,45.885q.359-5.227.719-10.451A2.681,2.681,0,0,1,3.524,32.77c.079,0,.161,0,.242.008,2.756.179,5.613.377,8.492.59.053,0,.1.006.141.006.323,0,.465-.117.587-.483A29.685,29.685,0,0,1,16.6,25.6a.417.417,0,0,0-.032-.608c-1.833-2.112-3.751-4.331-5.7-6.594a2.666,2.666,0,0,1-.055-3.608,15.807,15.807,0,0,1,1.448-1.345c.519-.461,1.059-.922,1.581-1.368l.524-.448c.9-.762,2.09-1.767,3.264-2.785.245-.211.484-.437.715-.656.3-.28.6-.57.924-.831a2.762,2.762,0,0,1,1.747-.643,2.82,2.82,0,0,1,2.132,1.022c2,2.3,3.849,4.429,5.658,6.521.129.15.239.243.388.243a.684.684,0,0,0,.3-.089,30.063,30.063,0,0,1,7.82-2.672c.285-.057.374-.16.4-.459.213-2.988.431-5.914.647-8.695A2.6,2.6,0,0,1,40.079.188,2.847,2.847,0,0,1,41.1,0c.053,0,.106,0,.159,0C44.86.235,48.49.489,52,.734a2.8,2.8,0,0,1,1.935.921,2.831,2.831,0,0,1,.651,2.063c-.164,2.545-.363,5.548-.595,8.531-.033.441.077.6.51.749a29.433,29.433,0,0,1,7.182,3.553.661.661,0,0,0,.363.142.637.637,0,0,0,.413-.2c2.165-1.891,4.375-3.8,6.569-5.667a2.782,2.782,0,0,1,3.9.315l7.017,8.05a2.754,2.754,0,0,1-.3,3.95c-1.036.9-2.086,1.809-3.1,2.693l-.005,0-.015.013c-1.143.994-2.325,2.022-3.49,3.028a.376.376,0,0,0-.1.555,30.265,30.265,0,0,1,2.686,7.858c.062.327.206.394.486.413,1.52.108,3.064.223,4.558.335,1.3.1,2.648.2,3.972.293a2.7,2.7,0,0,1,2.511,1.69,2.726,2.726,0,0,1,.209,1.173c-.226,3.572-.475,7.229-.739,10.868a2.677,2.677,0,0,1-2.78,2.532c-.071,0-.144,0-.216-.007-2.3-.151-4.644-.314-6.907-.472L75.094,54l-.41-.03c-.237.527-.468,1.054-.692,1.563-.519,1.182-1.01,2.3-1.556,3.411a23.53,23.53,0,0,1-1.278,2.182c-.134.211-.271.427-.4.641-.138.231-.167.362.015.574.987,1.136,1.982,2.291,2.944,3.408.9,1.046,1.834,2.128,2.754,3.188a2.75,2.75,0,0,1-.3,4.036c-2.682,2.327-5.359,4.659-7.954,6.932a2.742,2.742,0,0,1-1.871.735c-.058,0-.116,0-.174-.006a2.77,2.77,0,0,1-1.938-.979q-.908-1.046-1.817-2.09l-.006-.006-.007-.009c-1.276-1.466-2.6-2.982-3.883-4.48a.493.493,0,0,0-.358-.211.679.679,0,0,0-.3.094,29.807,29.807,0,0,1-7.817,2.672c-.288.056-.377.159-.4.459-.1,1.369-.2,2.76-.3,4.106V80.2c-.107,1.446-.218,2.94-.32,4.41a2.708,2.708,0,0,1-1.706,2.548A2.643,2.643,0,0,1,46.3,87.367ZM42.6,59.923c.367.025.739.038,1.106.038a16.337,16.337,0,0,0,16.231-15.3,15.838,15.838,0,0,0-.873-6.32A16.494,16.494,0,0,0,51,29.153a16.092,16.092,0,0,0-6.2-1.712c-.366-.025-.737-.037-1.1-.037a16.28,16.28,0,0,0-1.1,32.522h0Z" transform="translate(126.537 99.641)"/><path d="M47.023,88.733h-.172l-1.332-.087c-3.182-.207-6.316-.414-9.668-.661a3.326,3.326,0,0,1-3.075-3.308c0-.653.05-1.3.1-1.935l0-.037V82.7c.017-.211.033-.424.044-.587l.007-.1L33,80.936l.014-.206.007-.1c.11-1.609.223-3.269.342-4.917A30.32,30.32,0,0,1,26.021,72.1c-1.638,1.416-3.18,2.749-4.579,3.962l-1.926,1.661a3.489,3.489,0,0,1-4.905-.354c-2.08-2.39-4.507-5.179-6.989-8.022a3.422,3.422,0,0,1,.36-4.977c.947-.817,2.009-1.737,3.443-2.984,1.208-1.052,2.162-1.881,3-2.61a30.8,30.8,0,0,1-2.651-7.754C8.6,50.8,5.915,50.6,3.326,50.4A3.4,3.4,0,0,1,.012,46.534c.253-3.7.483-7.022.721-10.453A3.566,3.566,0,0,1,1.8,33.691a3.4,3.4,0,0,1,2.4-.917c.1,0,.2,0,.3.011,3.31.217,6.009.405,8.493.592h.043a30.441,30.441,0,0,1,3.613-7.345q-2.433-2.819-4.852-5.626l-.751-.872A3.329,3.329,0,0,1,11,15.023,12.233,12.233,0,0,1,12.182,13.9l.324-.28c.628-.554,1.287-1.124,1.958-1.692l.154-.13c.478-.409.858-.731,1.2-1.015l.252-.215c.568-.484,1.181-1.006,1.813-1.55.17-.148.33-.295.491-.445l.005,0,.136-.125.025-.023.031-.029.008-.008.041-.039c.292-.277.594-.563.926-.833a3.452,3.452,0,0,1,2.184-.8,3.494,3.494,0,0,1,2.648,1.257l.783.9c1.584,1.821,3.072,3.541,4.82,5.564a30.921,30.921,0,0,1,7.749-2.656c.187-2.62.378-5.179.638-8.555A3.287,3.287,0,0,1,40.521.236,3.49,3.49,0,0,1,41.784,0c.081,0,.151,0,.212.006C45.552.228,49.22.487,52.169.7L52.2.7l.545.039a3.375,3.375,0,0,1,3.227,3.705c-.164,2.535-.363,5.533-.6,8.541v.027l.044.016a30.183,30.183,0,0,1,7.306,3.611c2.4-2.09,4.543-3.939,6.551-5.654a3.482,3.482,0,0,1,4.866.386l.943,1.081,6.073,6.969a3.465,3.465,0,0,1,.857,2.525,3.516,3.516,0,0,1-1.226,2.407l-3.138,2.711-3.331,2.9a30.951,30.951,0,0,1,2.647,7.752c1.41.1,2.783.2,4.32.317l4.1.3a3.422,3.422,0,0,1,3.358,3.592C88.533,45.26,88.3,48.716,88,52.8a3.335,3.335,0,0,1-3.456,3.168c-.1,0-.189,0-.272-.009-1.3-.084-2.614-.175-3.959-.269l-.21-.014-.054,0-1.794-.124-2.437-.17-.131.3-.021.048-.046.1c-.1.215-.189.426-.28.638l-.007.016-.011.025c-.495,1.125-1.006,2.289-1.565,3.429A24.364,24.364,0,0,1,72.438,62.2l-.327.514c.71.816,1.418,1.638,2.1,2.432l.386.448.005.006.4.463.136.157c.989,1.148,1.8,2.088,2.552,2.957a3.434,3.434,0,0,1-.363,5.008c-2.54,2.2-5.215,4.531-7.951,6.93a3.516,3.516,0,0,1-2.349.9c-.065,0-.138,0-.222-.007a3.486,3.486,0,0,1-2.387-1.208l-1.627-1.857-.042-.049-.2-.229c-1.232-1.414-2.505-2.877-3.768-4.347a30.578,30.578,0,0,1-7.756,2.656c-.1,1.358-.195,2.727-.3,4.07-.092,1.252-.188,2.581-.312,4.31a3.416,3.416,0,0,1-2.128,3.136A3.349,3.349,0,0,1,47.023,88.733ZM26.012,70.645h0a1.224,1.224,0,0,1,.688.229,28.724,28.724,0,0,0,7.276,3.577,1.075,1.075,0,0,1,.78,1.23c-.132,1.826-.277,3.922-.443,6.409-.008.119-.018.238-.027.358l0,.023v.005l-.01.129-.014.173-.006.084,0,.034c-.045.605-.087,1.177-.09,1.759a1.949,1.949,0,0,0,1.788,1.932c4,.289,7.59.534,10.988.749H47a1.947,1.947,0,0,0,.761-.155,2.039,2.039,0,0,0,1.282-1.957c.073-1.045.149-2.072.222-3.066v-.01l0-.064v-.014q.012-.153.023-.306c.007-.1.015-.2.022-.3v-.018q.01-.128.019-.255v-.024q.009-.129.019-.258c.1-1.367.2-2.784.305-4.212a1.085,1.085,0,0,1,.95-1.076,29.328,29.328,0,0,0,7.641-2.591,1.117,1.117,0,0,1,1.492.282c.584.678,1.186,1.37,1.768,2.04l.161.185.22.253.128.147,0,.005c.627.721,1.219,1.4,1.805,2.082l1.625,1.868a2.089,2.089,0,0,0,1.441.74c.04,0,.079,0,.119,0a2.165,2.165,0,0,0,1.452-.557c2.367-2.077,4.847-4.233,7.245-6.317l.4-.345.311-.27a2.065,2.065,0,0,0,.233-3.069c-.926-1.068-1.807-2.087-2.693-3.118-1.161-1.35-2.143-2.488-3-3.478a1.071,1.071,0,0,1-.083-1.377c.151-.241.282-.448.4-.635a23.362,23.362,0,0,0,1.247-2.128c.542-1.1,1.022-2.2,1.531-3.36l.01-.023.016-.037c.226-.5.452-1,.688-1.531l.2-.438,3.4.229c2.363.165,4.273.3,6.012.41.069,0,.126.006.181.006a1.98,1.98,0,0,0,2.083-1.89c.315-4.386.542-7.736.736-10.862A2.055,2.055,0,0,0,85.3,39.713c-1.626-.119-2.89-.212-4.1-.3-1.358-.1-2.85-.21-4.432-.324h-.013a1.112,1.112,0,0,1-1.1-.971,29.631,29.631,0,0,0-2.626-7.68,1.043,1.043,0,0,1,.264-1.378c1.225-1.059,2.362-2.045,3.476-3.016.913-.8,1.939-1.688,3.137-2.724a2.148,2.148,0,0,0,.753-1.462,2.092,2.092,0,0,0-.521-1.515l-6.09-6.982L73.1,12.275a2.1,2.1,0,0,0-2.933-.243c-2.089,1.783-4.235,3.635-6.563,5.663A1.186,1.186,0,0,1,62,17.807a28.747,28.747,0,0,0-7.015-3.476,1.274,1.274,0,0,1-.976-1.453c.222-2.839.4-5.541.594-8.525a2,2,0,0,0-1.951-2.243l-.639-.045L51.7,2.045l-.845-.059-.571-.04c-2.87-.2-5.669-.392-8.367-.562-.036,0-.075,0-.128,0a2.12,2.12,0,0,0-.754.139,1.935,1.935,0,0,0-1.29,1.8c-.039.531-.079,1.052-.117,1.567l0,.029-.025.337-.062.821,0,.026c-.164,2.179-.3,4-.438,5.915a1.074,1.074,0,0,1-.95,1.078,29.546,29.546,0,0,0-7.639,2.613,1.146,1.146,0,0,1-1.515-.319c-1.555-1.8-3.063-3.538-4.873-5.619l-.783-.9a2.144,2.144,0,0,0-1.614-.782,2.073,2.073,0,0,0-1.312.486c-.286.23-.559.487-.822.736l-.039.037-.034.032c-.262.262-.5.48-.725.668-.7.6-1.355,1.169-2.065,1.775l-.166.14-.032.028c-.366.31-.691.586-.994.846l-.154.131c-.692.59-1.317,1.124-1.942,1.675-.058.053-.123.107-.174.151l-.018.017c-.05.042-.1.083-.142.122a11.059,11.059,0,0,0-1.054.994,1.98,1.98,0,0,0,.062,2.7l.749.87c1.6,1.867,3.253,3.793,4.926,5.725a1.084,1.084,0,0,1,.08,1.446,29.147,29.147,0,0,0-3.525,7.115,1.228,1.228,0,0,1-1.252.953c-.061,0-.117,0-.183-.007-2.375-.179-4.991-.361-8.482-.59-.058,0-.122-.006-.2-.006a2,2,0,0,0-2.1,2.024c-.216,3.122-.451,6.541-.718,10.451a2.024,2.024,0,0,0,2.05,2.4c2.476.2,5.2.4,8.562.638h.009a1.1,1.1,0,0,1,1.094.973,29.462,29.462,0,0,0,2.614,7.639,1.094,1.094,0,0,1-.284,1.458c-.926.8-1.972,1.706-3.108,2.695-.972.847-2.034,1.767-3.443,2.984a2.166,2.166,0,0,0-.782,1.474,2.12,2.12,0,0,0,.56,1.553c2.186,2.5,4.472,5.129,6.989,8.034a2.11,2.11,0,0,0,2.966.216l1.928-1.662c1.315-1.136,2.772-2.4,4.454-3.853l.211-.183A1.2,1.2,0,0,1,26.012,70.645Zm18.4-9.308c-.395,0-.786-.014-1.164-.041a16.968,16.968,0,0,1,1.072-33.9c.412,0,.823.015,1.223.044a16.97,16.97,0,0,1-1.131,33.9Zm-1.069-1.414c.353.024.711.037,1.065.037A15.638,15.638,0,0,0,59.951,45.3a15.6,15.6,0,0,0-14.5-16.487c-.411-.033-.828-.049-1.24-.049a15.592,15.592,0,0,0-.868,31.161h0Z" transform="translate(125.835 98.954)"/><path class="c" d="M57.429,108.384l-.114,0c-4.531-.294-9.123-.607-13.646-.931a3.277,3.277,0,0,1-3.011-3.257c.007-.783.067-1.585.124-2.36.022-.291.044-.591.064-.888.173-2.586.359-5.262.553-7.953.029-.342-.022-.537-.381-.652a35.65,35.65,0,0,1-5.863-2.5A38.56,38.56,0,0,1,31.772,87.8a.668.668,0,0,0-.373-.145.675.675,0,0,0-.424.2c-.841.737-1.7,1.483-2.53,2.205q-.834.724-1.668,1.451c-1.03.87-2.071,1.77-3.078,2.64l-.03.026-.874.755a3.478,3.478,0,0,1-4.875-.354c-2.92-3.36-5.84-6.708-8.679-9.952A3.393,3.393,0,0,1,9.6,79.656c1.362-1.175,2.735-2.372,4.063-3.529l0,0c1.328-1.158,2.7-2.355,4.058-3.526a.54.54,0,0,0,.154-.779,36.815,36.815,0,0,1-3.321-9.7c-.068-.363-.213-.488-.6-.514-3.523-.25-7.1-.518-10.633-.8A3.61,3.61,0,0,1,.781,59.638a3.693,3.693,0,0,1-.768-2.711C.288,52.735.586,48.372.9,43.96a3.581,3.581,0,0,1,1.055-2.407,3.438,3.438,0,0,1,2.426-.905c.1,0,.194,0,.292.009l5.628.381c.721.054,1.453.1,2.161.154h.01c.892.062,1.814.126,2.732.2.071.006.133.01.189.01.381,0,.561-.151.715-.6.25-.756.546-1.552.906-2.433a36.758,36.758,0,0,1,3.574-6.615A.516.516,0,0,0,20.543,31c-2.358-2.727-4.736-5.481-7.068-8.188a3.566,3.566,0,0,1-.911-2.254,3.256,3.256,0,0,1,.84-2.226,21.065,21.065,0,0,1,1.8-1.664c.662-.585,1.346-1.169,2.008-1.734l.606-.518.554-.472c1.148-.977,2.335-1.986,3.483-3.006.322-.271.634-.565.935-.849.352-.332.717-.676,1.1-.987a3.43,3.43,0,0,1,2.172-.8,3.5,3.5,0,0,1,2.648,1.27l.517.6,1.338,1.537c1.7,1.948,3.446,3.96,5.168,5.955.161.188.3.3.481.3a.826.826,0,0,0,.361-.107,36.982,36.982,0,0,1,8.249-2.991c.5-.121.992-.223,1.458-.317a.509.509,0,0,0,.486-.562c.262-3.662.534-7.292.806-10.788A3.243,3.243,0,0,1,49.712.236,3.418,3.418,0,0,1,50.963,0c.068,0,.137,0,.205.006h.006c1.888.123,3.84.25,5.8.389,1.825.118,3.676.247,5.465.372l2.064.143a3.476,3.476,0,0,1,2.4,1.144A3.507,3.507,0,0,1,67.72,4.6l-.049.727c-.217,3.231-.441,6.572-.693,9.86-.052.532.09.741.634.931a36.138,36.138,0,0,1,8.911,4.406.813.813,0,0,0,.454.181.772.772,0,0,0,.5-.253c1.625-1.419,3.359-2.929,5.1-4.416,1.092-.945,2.089-1.8,3.048-2.614a3.442,3.442,0,0,1,4.841.388c.081.095.163.188.244.281s.164.187.245.281c2.717,3.123,5.481,6.295,8.215,9.427a3.426,3.426,0,0,1-.372,4.9c-1.48,1.279-2.981,2.582-4.432,3.843-1.236,1.073-2.511,2.181-3.774,3.274-.252.221-.277.369-.117.688a37.4,37.4,0,0,1,3.328,9.743c.077.407.255.491.6.517,1.845.132,3.721.272,5.536.407l.036,0c1.643.122,3.343.249,5.015.369a3.327,3.327,0,0,1,3.121,2.1,3.371,3.371,0,0,1,.25,1.457c-.285,4.481-.594,9.016-.918,13.481l-.028.246a3.293,3.293,0,0,1-3.408,2.895c-.093,0-.188,0-.282-.009l-3.069-.207-7.517-.517c-.193-.017-.407-.036-.5-.036-.268.6-.531,1.2-.785,1.779-.669,1.523-1.3,2.962-2,4.393a39.1,39.1,0,0,1-2.093,3.5c-.165.284-.2.454.028.716,1.514,1.738,3.037,3.5,4.51,5.212l.031.036c.83.962,1.687,1.956,2.533,2.933a3.42,3.42,0,0,1-.363,5.013c-2.121,1.841-4.073,3.539-5.968,5.192-.648.562-1.3,1.136-1.939,1.691l-.013.011c-.636.556-1.293,1.131-1.951,1.7a3.436,3.436,0,0,1-2.327.9c-.071,0-.142,0-.213-.007a3.46,3.46,0,0,1-2.408-1.206q-1.283-1.479-2.566-2.955l-.017-.02c-1.377-1.585-2.8-3.224-4.2-4.843l-.3-.354a.589.589,0,0,0-.441-.264.821.821,0,0,0-.373.119,36.94,36.94,0,0,1-9.7,3.312c-.358.068-.47.194-.5.561-.154,2.232-.321,4.5-.483,6.7v.011q-.143,1.939-.284,3.879c-.009.166-.033.326-.055.48l-.007.046a3.248,3.248,0,0,1-2.046,2.633A3.382,3.382,0,0,1,57.429,108.384Zm-3.06-74.409c-.181,0-.365,0-.547.009a20.2,20.2,0,0,0-.977,40.351c.456.032.919.048,1.376.048a19.959,19.959,0,0,0,9.674-2.508A20.3,20.3,0,0,0,74.361,55.387v.007a19.633,19.633,0,0,0-1.085-7.839,20.5,20.5,0,0,0-10.008-11.4,20.027,20.027,0,0,0-7.691-2.136C55.179,33.991,54.772,33.976,54.368,33.976Z" transform="translate(24.676 128.125)"/><path class="b" d="M.075,16.137a.092.092,0,0,0,0,.028c-.5,2.119,1.687,2.679,2.3.588A21.32,21.32,0,0,1,3.045,14.2C6.093,6.306,11.488,3.533,15.353,2.675c4.2-.934,3.214-4.513-3.748-1.476C4.42,4.334,1.718,9.809.075,16.137Z" transform="translate(139.026 206.187)"/><ellipse class="b" cx="1.393" cy="1.634" rx="1.393" ry="1.634" transform="translate(160.643 208.368) rotate(-86.8)"/><path d="M18.6,1.975a.147.147,0,0,0,0-.028c.62-2.087-1.538-2.754-2.261-.714a24.373,24.373,0,0,1-.817,2.525C12.041,11.469,6.5,13.936,2.6,14.581c-4.249.689-3.461,4.327,3.659,1.68C13.611,13.521,16.612,8.214,18.6,1.975Z" transform="translate(172.689 148.284)"/><ellipse cx="1.393" cy="1.634" rx="1.393" ry="1.634" transform="translate(165.454 165.406) rotate(-83.62)"/><path d="M22.878,2.435V2.4C23.642-.166,20.987-1,20.1,1.524a26.5,26.5,0,0,1-1,3.094C14.812,14.1,8,17.137,3.2,17.931c-5.224.861-4.258,5.323,4.5,2.066C16.74,16.634,20.431,10.106,22.878,2.435Z" transform="translate(81.576 187.345)"/><ellipse cx="1.712" cy="2.011" rx="1.712" ry="2.011" transform="translate(72.669 208.408) rotate(-83.62)"/><path class="b" d="M.048,10.554v.018c-.328,1.377,1.1,1.751,1.5.386a13.864,13.864,0,0,1,.441-1.673c1.995-5.16,5.523-6.973,8.052-7.536C12.8,1.138,12.147-1.2,7.593.785,2.9,2.835,1.132,6.409.048,10.554Z" transform="translate(207.684 220.578)"/><ellipse class="b" cx="0.911" cy="1.07" rx="0.911" ry="1.07" transform="translate(221.825 221.997) rotate(-86.8)"/><path d="M.383,368.807,0,367.482A269.8,269.8,0,0,0,54.727,344.8a287.074,287.074,0,0,0,40.229-26.748c21.535-17.1,33.168-31.479,33.283-31.621l.014-.018c27.99-32.445,45.407-67.636,51.772-104.594,5.091-29.565,3.161-60.33-5.738-91.441a267.734,267.734,0,0,0-28.764-64.842A212.319,212.319,0,0,0,128.25.9l1.044-.9a213.02,213.02,0,0,1,17.376,24.772,268.821,268.821,0,0,1,28.922,65.189c8.963,31.318,10.91,62.295,5.787,92.073-6.4,37.215-23.925,72.635-52.082,105.28-.372.459-12.058,14.8-33.46,31.8A288.264,288.264,0,0,1,55.406,346,271.352,271.352,0,0,1,.383,368.807Z" transform="translate(384.041 148.02)"/><path class="a" d="M20.835,41.671a20.841,20.841,0,0,1-8.11-40.034,20.837,20.837,0,0,1,16.216,38.39A20.731,20.731,0,0,1,20.835,41.671Zm0-40.294a19.463,19.463,0,0,0-7.574,37.387A19.459,19.459,0,0,0,28.405,2.912,19.359,19.359,0,0,0,20.835,1.377Z" transform="translate(57.979 301.208)"/><path d="M63.348,3.735,0,0V25.451l63.348-9.406V3.735Z" transform="translate(239.388 161.547)"/><path class="b" d="M0,26.98v0H0V0L64.73,3.817V17.36ZM1.377,1.463v23.92l61.976-9.2V5.114L1.377,1.463Z" transform="translate(238.7 160.817)"/><path class="b" d="M36,30.936c0,3.039-10.233,13.825-10.233,13.825l-.092-.064C24.347,43.811,8.539,33.233,3.771,29A11.649,11.649,0,0,1,.64,22.693,36.639,36.639,0,0,1,.034,14.06l.707.7a1.8,1.8,0,0,0,2.525,0c1.168-1.148,2.325-2.3,3.494-3.473a13.655,13.655,0,0,1,2.19.181,5.83,5.83,0,0,1,1.593.5c.23.129.459.273.689.427a15.609,15.609,0,0,1,1.547,1.311c1.956,1.836,3.82,3.854,6.342,1.728,3.2-2.688-.342-9.264,3.466-13.41A7.6,7.6,0,0,1,25.21.189c3.746-1.43,2.715,5.628,3.457,8.479.154.606.516,1.673,1.005,3.039C31.743,17.489,36,28.464,36,30.936Z" transform="translate(203.867 241.338)"/><path d="M26.557,46.363h0l-.483-.321-.108-.076-.347-.234-.022-.015C20.481,42.281,8.137,33.893,4,30.222c-1.571-1.4-2.7-3.643-3.347-6.677a37.26,37.26,0,0,1-.622-8.8L.1,13.167l1.82,1.821a1.108,1.108,0,0,0,1.561,0l.025-.026c1.13-1.13,2.3-2.3,3.466-3.443l.2-.207h.289a14.362,14.362,0,0,1,2.3.191,6.484,6.484,0,0,1,1.786.563,8.419,8.419,0,0,1,.762.459A16.426,16.426,0,0,1,13.933,13.9l.314.3c1.378,1.3,2.36,2.158,3.409,2.158a2.682,2.682,0,0,0,1.708-.749c1.28-1.076,1.27-3.031,1.258-5.295v-.1c0-2.633,0-5.617,2.144-7.952a7.693,7.693,0,0,1,1.2-1.069,7.549,7.549,0,0,1,1.7-.958A3.224,3.224,0,0,1,26.8,0a2.1,2.1,0,0,1,1.154.331c1.424.916,1.582,3.446,1.736,5.893v.02a17.464,17.464,0,0,0,.328,2.94c.132.522.445,1.471.985,2.984.356,1,.781,2.158,1.232,3.388l.249.679c2.767,7.536,4.884,13.454,4.884,15.393,0,1.334-1.534,3.906-4.558,7.644-2.434,3.008-5.1,5.854-5.865,6.654l-.39.435ZM1.377,16.31h0A33.585,33.585,0,0,0,2,23.258C2.591,26,3.572,28,4.918,29.193c4.1,3.642,16.358,11.968,21.437,15.379C30.23,40.45,36,33.6,36,31.645c0-1.874-2.888-9.725-4.8-14.92l-.084-.23c-.514-1.4-1-2.726-1.4-3.849-.564-1.576-.88-2.533-1.024-3.1a16.6,16.6,0,0,1-.356-3.02l-.011-.175V6.333c-.119-1.91-.268-4.286-1.108-4.827A.686.686,0,0,0,26.8,1.4a1.946,1.946,0,0,0-.661.141,6.371,6.371,0,0,0-1.377.787,6.176,6.176,0,0,0-.98.875c-1.812,1.97-1.8,4.583-1.788,7.11v.017c.012,2.5.023,4.857-1.747,6.347a3.965,3.965,0,0,1-2.573,1.076c-1.7,0-3.121-1.349-4.377-2.54l-.308-.289a15.008,15.008,0,0,0-1.476-1.254,6.561,6.561,0,0,0-.616-.379,4.986,4.986,0,0,0-1.377-.427A12.322,12.322,0,0,0,7.737,12.7C6.665,13.767,5.6,14.828,4.476,15.94l-.025.025a2.5,2.5,0,0,1-3.073.345Z" transform="translate(203.183 240.629)"/><path class="b" d="M9.306,31.385S-1.9,9.7.281,3.168,29.12,2.234,29.12,2.234L27.564,27.818s1.66,9.374-3.319,9.893S9.306,31.385,9.306,31.385Z" transform="translate(291.701 168.823)"/><path d="M24.373,39.123c-5.382,0-14.687-6.411-14.781-6.475l-.142-.1-.077-.154C8.863,31.4,6.2,26.154,3.825,20.21A70.787,70.787,0,0,1,.71,10.853C-.072,7.609-.208,5.184.305,3.645A4.674,4.674,0,0,1,3.495.907,22.68,22.68,0,0,1,10.7,0c1.642,0,3.511.087,5.554.259a129.259,129.259,0,0,1,13.687,2l.581.122-1.587,26.1a21.672,21.672,0,0,1,.257,3.772,9.069,9.069,0,0,1-1.4,5.263,3.878,3.878,0,0,1-2.8,1.581A6.109,6.109,0,0,1,24.373,39.123ZM10.862,1.4a25.544,25.544,0,0,0-6.2.6c-1.717.449-2.746,1.149-3.056,2.079-.585,1.751-.423,5.96,3.673,16.068,2.256,5.55,4.758,10.519,5.236,11.459a65.2,65.2,0,0,0,5.664,3.365c3.519,1.841,6.263,2.775,8.156,2.775a4.985,4.985,0,0,0,.514-.026,2.521,2.521,0,0,0,1.836-1.04c1.8-2.38.912-7.817.874-8.047l-.015-.083,1.525-25.07A98.124,98.124,0,0,0,10.862,1.4Z" transform="translate(291.025 168.128)"/><path class="b" d="M0,3.567S12.854,1.621,18.258,0c0,0,39.421,72.126,51.876,76.643s-41.5,34.394-46.482,31.084-7.393-10.178-7.393-10.178S3.735,42.364,0,3.567Z" transform="translate(301.008 196.641)"/><path d="M25.566,109.463a2.81,2.81,0,0,1-1.547-.351c-5.113-3.41-7.561-10.236-7.663-10.525l-.022-.076-.006-.028c-.34-1.509-3.42-15.268-6.885-33.309C6.212,48.353,1.962,24.163.064,4.451L0,3.8l.645-.1C.765,3.688,13.57,1.733,18.808.161L19.343,0l.269.489c.076.144,9.93,18.153,21.251,36.6,18.755,30.566,26.8,38.473,30.248,39.724a2.987,2.987,0,0,1,2.3,2.525c.19,1.988-1.736,4.655-5.888,8.153a111.14,111.14,0,0,1-13.91,9.6C45.279,102.065,30.938,109.463,25.566,109.463ZM18.669,1.634C13.514,3.069,3.46,4.662,1.5,4.967,5.2,42.65,17.161,95.913,17.668,98.162c.253.686,2.6,6.793,7.115,9.8a1.475,1.475,0,0,0,.78.136c1.193,0,3.772-.493,9.278-2.844A158.635,158.635,0,0,0,52.907,95.9C64.8,88.783,72.314,82.33,72.039,79.459c-.021-.216-.084-.872-1.4-1.349-2.784-1.011-7.062-5.333-12.715-12.846-4.593-6.1-10.115-14.339-16.413-24.476C30.9,23.7,21.344,6.5,18.669,1.634Z" transform="translate(300.26 195.824)"/><path class="b" d="M6.767,6.47S4.905-.583,1.379.043c0,0-3.425-1.556.519,14s8.3,3.774,7.641-.422C9.188,11.38,6.767,6.47,6.767,6.47Z" transform="translate(290.778 150.617)"/><path d="M6.869,23.237c-1.91,0-3.53-2.725-4.951-8.332C-1.3,2.2.378.795.928.334A1.378,1.378,0,0,1,2.108.029,3.21,3.21,0,0,1,2.51,0c3.59,0,5.4,6.2,5.591,6.912.25.51,2.455,5.045,2.805,7.288.413,2.632-1,8.453-3.613,8.986A2.048,2.048,0,0,1,6.869,23.237ZM1.819,1.379C1.752,1.423.211,2.6,3.242,14.566a21.677,21.677,0,0,0,2.29,6.156c.648.986,1.141,1.133,1.377,1.133a.468.468,0,0,0,.1-.01c1.476-.3,2.9-5.059,2.525-7.423-.328-2.1-2.686-6.91-2.709-6.955L6.8,7.406,6.777,7.34A17.46,17.46,0,0,0,5.455,4.02c-.649-1.2-1.692-2.639-2.977-2.639a1.759,1.759,0,0,0-.3.027l-.211.037Z" transform="translate(290.09 149.924)"/><path class="b" d="M16.832,0S11.44,11.323,9.967,18.221c0,0-.487,1.276-3.3,1.524s-7.942.422-6.381,4.044,7.921,7.1,7.676,8.75S6.439,51.1,17.147,53.067,34.9,51.878,34.9,51.878,41.815,83.059,46.064,88s33.742-2.97,35.025-26.881L65.143,39.449,47.072,1.575Z" transform="translate(369.325 151.941)"/><path d="M51.488,90.813c-2.5,0-4.318-.572-5.25-1.653C44.557,87.2,42.324,81.254,39.6,71.477c-2.169-7.792-3.991-15.711-4.5-17.953a30.884,30.884,0,0,1-10.239,1.6,39.6,39.6,0,0,1-7.148-.665c-4.729-.869-7.928-4.646-9.253-10.921A34.707,34.707,0,0,1,7.974,33.15c0-.469-1.674-1.92-2.674-2.786C3.39,28.7,1.226,26.819.345,24.774a2.955,2.955,0,0,1,0-2.78C1.39,20.255,4.491,20,6.755,19.816l.539-.046C9.219,19.6,9.851,18.9,10,18.7,11.275,12.829,15.18,4.087,16.8.6l0-.007.082-.177.2-.416L48.206,1.625,66.424,39.8,82.48,61.61l-.014.246C81.668,76.632,70.31,85.67,59.946,89.2A26.789,26.789,0,0,1,51.488,90.813Zm-15.4-39.2h0l.183.822c.069.31,6.928,31.073,11.019,35.822.635.738,2.172,1.161,4.218,1.161a25.168,25.168,0,0,0,8.011-1.517c9.856-3.358,20.7-11.918,21.577-25.87L65.26,40.516,47.338,2.959,17.957,1.423c-.877,1.882-5.322,11.583-6.619,17.654l-.031.1c-.064.172-.715,1.685-3.879,1.965l-.548.046c-1.856.151-4.66.379-5.344,1.515-.083.137-.334.556.083,1.526.754,1.747,2.867,3.591,4.565,5.072l.026.022,0,0c1.917,1.667,3.3,2.871,3.129,4.025a33.822,33.822,0,0,0,.478,9.9c1.216,5.766,3.959,9.081,8.155,9.852a37.831,37.831,0,0,0,6.828.633,27.714,27.714,0,0,0,10.523-1.782l.763-.336Z" transform="translate(368.637 151.229)"/><ellipse class="d" cx="2.323" cy="1.673" rx="2.323" ry="1.673" transform="translate(383.063 171.23) rotate(-60)"/><path class="b" d="M0,4.749,12.34,0s-.418,5.993-5.066,6.976A7.572,7.572,0,0,1,0,4.749Z" transform="translate(381.617 185.467)"/><path d="M6.631,8.883A8.141,8.141,0,0,1,.6,6.2L0,5.468,14.232,0l-.076,1.076a11.478,11.478,0,0,1-.843,3.34A6.681,6.681,0,0,1,8.546,8.679a9.145,9.145,0,0,1-1.9.2ZM12.6,2.1,2.39,6.021A6.929,6.929,0,0,0,6.678,7.515a6.911,6.911,0,0,0,1.579-.183C11.173,6.713,12.231,3.789,12.6,2.1Z" transform="translate(380.481 184.448)"/><path d="M3.715,4.4s-8.835,9.569.746,25.619S18.543,44.2,22.406,41.35s8.263-1.205,9.092,1.66S29.662,51.1,27.4,53.732s-.817,8.452,5.309,10.894,16.57,5.2,25.412-6.4c4.671-6.122,4.465-14.895,3.227-21.806a46.236,46.236,0,0,0-6.175-16h0s-4.343-8.146-17.011-8.527a9.081,9.081,0,0,1-2.846-.5,10.788,10.788,0,0,1-4.38-2.876C23.264-.136,12.554-3.366,3.715,4.4Z" transform="translate(383.777 126.252)"/><path d="M.69,4.986A.689.689,0,0,1,.2,3.808,10.284,10.284,0,0,0,2.5.5.689.689,0,1,1,3.826.875a11.523,11.523,0,0,1-2.647,3.9A.689.689,0,0,1,.69,4.986Z" transform="translate(407.659 170.382)"/><path class="d" d="M0,3.507A74.8,74.8,0,0,0,9.459.078a.838.838,0,0,1,1.086,1.166A44.414,44.414,0,0,0,4.974,23.3S.875,7.664,0,3.507Z" transform="translate(404.548 199.38)"/><path class="b" d="M249.884,200.846c-.09.363-.181.716-.28,1.06-13.862,6-28.421,11.936-43.5,17.674-42.545,16.187-82.916,28.511-116.72,36.194-1.448-.246-2.155-.427-2.155-.427,2.119-3.257,11-51.717,16.261-81.144,2.325-13.019,3.937-22.311,3.937-22.311C62.89,152.444.091,73.046.091,73.046c-1.249-12.441,10.788-16.8,10.788-16.8,60.793,26.973,91.494,26.764,94.4,26.14s48.759-43.224,58.441-52.353,15.492-13,33.887-13.274C213.169,16.527,220.877,0,220.877,0c32.365,35.071,42.13,77.5,42.791,114.3C264.524,162.364,249.884,200.846,249.884,200.846Z" transform="translate(229.549 213.058)"/><path d="M90.075,257.68h0l-.133-.021c-1.3-.221-2.016-.39-2.2-.437l-.006,0-.918-.23.523-.8c1.5-2.293,7.385-31.776,16.16-80.889,2.022-11.331,3.516-19.9,3.794-21.5-10.109-.095-21.917-4.2-35.1-12.189-10.789-6.54-22.538-15.695-34.92-27.211A401.648,401.648,0,0,1,.24,74.685l-.126-.158-.021-.2A15.841,15.841,0,0,1,5.235,60.685a19.79,19.79,0,0,1,6.094-3.876l.262-.095.252.112c17.612,7.81,43.839,18.2,68.77,23.374,12.5,2.592,19.94,2.872,22.559,2.872a15.5,15.5,0,0,0,2.646-.15c2.9-.913,45.109-39.917,58.117-52.181,9.915-9.351,15.8-13.187,34.346-13.462a21.131,21.131,0,0,0,9.841-2.629,28.257,28.257,0,0,0,7.07-5.572A35.785,35.785,0,0,0,220.942.93l.434-.93.689.753A156.241,156.241,0,0,1,255.5,57.5a193.279,193.279,0,0,1,9.537,58,261.955,261.955,0,0,1-6.585,61.461,212.868,212.868,0,0,1-7.226,25.3c-.1.4-.188.736-.277,1.044l-.083.3-.3.129c-14.155,6.126-28.8,12.072-43.531,17.674-41.275,15.7-81.669,28.226-116.815,36.221l-.145.039Zm18.841-105.266h0l-.142.815-.009.054c-.287,1.653-1.825,10.5-3.927,22.262-5.874,32.866-13.412,73.514-15.969,80.515v.012c.388.076.77.147,1.166.216,35.022-7.968,75.307-20.463,116.5-36.134,14.542-5.535,29.068-11.433,43.174-17.53.067-.246.127-.488.185-.722l.025-.079a211.129,211.129,0,0,0,7.192-25.185,260.76,260.76,0,0,0,6.544-61.105,191.964,191.964,0,0,0-9.466-57.589A154.986,154.986,0,0,0,221.715,2.419a37.806,37.806,0,0,1-5.459,7.561c-5.2,5.58-11.409,8.582-17.966,8.681-18.058.266-23.781,3.995-33.423,13.083-4.268,4.026-18.193,17.014-31.77,29.381-24.949,22.714-26.438,23.032-27,23.152a17.619,17.619,0,0,1-2.985.173c-3.3,0-10.646-.376-22.792-2.894C66.536,78.7,43.413,72.33,11.538,58.211a19.189,19.189,0,0,0-5.413,3.528A14.287,14.287,0,0,0,1.434,74a402.862,402.862,0,0,0,36.779,39.4c12.314,11.453,23.985,20.55,34.69,27.038,13.114,7.954,24.8,11.986,34.736,11.986l.451,0Z" transform="translate(228.872 211.848)"/><path class="d" d="M87.782,0S41.17,51.876,2.165,58.645L0,70.964s18.069,4.694,29.482-8.376,27.8-4.189,33.611-13.4S66.2,27.109,77.823,20.264,87.782,0,87.782,0Z" transform="translate(334.826 305.674)"/><path class="d" d="M22.752,1.494S6.776,21.9,1.8,14.149,3.764,0,3.764,0,17.98,2.389,22.752,1.494Z" transform="translate(312.074 293.945)"/><path d="M63.35,3.735,0,0V25.451l63.35-9.406V3.735Z" transform="translate(278.047 160.925)"/><path class="b" d="M0,26.98v0H0V0L64.73,3.815V17.369ZM1.377,1.46V25.383l61.976-9.2V5.114L1.377,1.46Z" transform="translate(277.358 160.195)"/><path class="b" d="M48.965,3.168,0,0V5.649L48.965,5.1V3.168Z" transform="translate(278.045 163.578)"/><path class="b" d="M38.657,3.168,0,0V5.649L38.657,5.1V3.168Z" transform="translate(239.388 165.624)"/><path class="b" d="M38.668,0,0,.016.037,1.6,38.682.542,38.668,0Z" transform="translate(239.374 173.736)"/><path d="M33.2,2.715,0,0V18.508l33.2-4.935V2.715Z" transform="translate(327.01 161.997)"/><path class="b" d="M0,20.055H0V0L34.575,2.83V14.913L0,20.055ZM1.377,1.5v16.96L33.2,13.727V4.1Z" transform="translate(326.321 161.249)"/><path class="b" d="M0,.955s5.706-3.425,6.225,2.7S4.359,16.2,2.594,16.2.615,13.2,0,.955Z" transform="translate(309.721 155.476)"/><path d="M3.3,17.577C1.593,17.577,1.163,15.71.9,13.96.538,11.618.33,7.766.021,1.675L0,1.262.354,1.05A7.848,7.848,0,0,1,3.883,0,3.614,3.614,0,0,1,5.546.373c1.21.619,1.905,1.932,2.065,3.9C8.05,9.434,6.492,14.916,4.763,16.8A1.99,1.99,0,0,1,3.3,17.577Zm.574-16.2a6.066,6.066,0,0,0-2.457.658C1.862,10.869,2.129,16.2,3.3,16.2c0,0,.159,0,.459-.329,1.965-2.137,2.775-8.125,2.49-11.477-.124-1.469-.571-2.41-1.327-2.8A2.35,2.35,0,0,0,3.875,1.38Z" transform="translate(309.014 154.79)"/><path class="b" d="M0,.955s5.706-3.425,6.225,2.7S4.359,16.2,2.594,16.2.624,13.2,0,.955Z" transform="translate(305.089 155.476)"/><path d="M3.3,17.577C1.593,17.577,1.163,15.71.9,13.96.538,11.618.33,7.766.021,1.675L0,1.262.354,1.05A7.848,7.848,0,0,1,3.883,0,3.614,3.614,0,0,1,5.546.373c1.21.619,1.905,1.932,2.065,3.9C8.05,9.434,6.492,14.916,4.763,16.8A2,2,0,0,1,3.3,17.577Zm.578-16.2a6.07,6.07,0,0,0-2.461.658C1.862,10.869,2.129,16.2,3.3,16.2c0,0,.159,0,.459-.329,1.965-2.137,2.775-8.125,2.49-11.477-.124-1.469-.571-2.41-1.327-2.8A2.325,2.325,0,0,0,3.879,1.38Z" transform="translate(304.382 154.79)"/><path class="b" d="M0,3.1A2.938,2.938,0,0,1,2.612.024C4.161-.139,5.848.454,6.119,3.651,6.638,9.771,4.251,16.2,2.488,16.2.833,16.2.548,13.551,0,3.1Z" transform="translate(300.072 155.477)"/><path d="M3.178,17.586c-1.561,0-2.046-1.538-2.337-3.2A104.556,104.556,0,0,1,.005,3.828,3.627,3.627,0,0,1,3.219.029,5.058,5.058,0,0,1,3.747,0,3.383,3.383,0,0,1,5.973.75a4.872,4.872,0,0,1,1.5,3.534c.438,5.162-1.119,10.643-2.849,12.524A1.949,1.949,0,0,1,3.178,17.586ZM3.844,1.38l-.095,0a3.735,3.735,0,0,0-.374.021A2.24,2.24,0,0,0,1.382,3.761c.211,4.063.38,7.1.638,9.205.274,2.242.631,3.242,1.158,3.242,0,0,.158,0,.459-.329C5.6,13.743,6.41,7.756,6.127,4.4A3.7,3.7,0,0,0,5.115,1.817,2.076,2.076,0,0,0,3.844,1.38Z" transform="translate(299.382 154.782)"/><path class="b" d="M10.938,22.188S14.107,8.416,14.8,4.7,16.655-.6,14.3.2s-4.774.459-6.3,5.947S1.382,10.255,0,14.958" transform="translate(308.629 169.506)"/><path d="M12.276,23.031l-1.343-.31c.032-.138,3.175-13.8,3.854-17.459.186-.989.4-1.836.576-2.507.126-.491.266-1.031.308-1.352a3.946,3.946,0,0,0-.48.14c-.4.135-.8.23-1.184.34-1.878.489-3.5.918-4.671,5.139-.868,3.138-2.844,4.251-4.591,5.233-1.524.858-2.839,1.607-3.425,3.585L0,15.454c.741-2.525,2.433-3.475,4.07-4.4S7.283,9.241,8,6.656C9.381,1.661,11.654,1.071,13.655.55c.376-.1.732-.191,1.088-.31C15.462-.005,16.2-.168,16.7.293c.581.539.36,1.393,0,2.807-.17.654-.379,1.471-.555,2.415C15.457,9.2,12.308,22.893,12.276,23.031Z" transform="translate(307.963 168.817)"/><path class="b" d="M33.2,2.178,0,0V3.886l33.2-.374V2.178Z" transform="translate(327.01 164.937)"/><path class="d" d="M5.249,0S-3.637,5.4,1.714,17.385,12.385,32.735,12.385,32.735,10.992,15.319,5.249,0Z" transform="translate(479.22 271.882)"/><path d="M5.291,4.731A.689.689,0,0,1,4.655,4.3,4.529,4.529,0,0,0,.689,1.377.689.689,0,1,1,.689,0,5.89,5.89,0,0,1,5.924,3.781a.689.689,0,0,1-.374.9A.659.659,0,0,1,5.291,4.731Z" transform="translate(386.004 161.62)"/><path d="M32.3,17.423h0A10.051,10.051,0,0,1,23.3,12.281C19.52,5.556,14.63,1.906,8.768,1.433A16.068,16.068,0,0,0,1,2.749a.689.689,0,0,1-.622-1.23A17.229,17.229,0,0,1,8.812.054c7.949.611,12.925,6.629,15.7,11.571l.023.041a8.672,8.672,0,0,0,7.784,4.38.689.689,0,1,1,0,1.377Z" transform="translate(389.952 122.664)"/><path d="M13.366,15.287C5.1,15.287.078,14.911,0,14.9l.106-1.377a253.026,253.026,0,0,0,31.552-.213C48.724,12.221,74.164,9.023,98.454,0l.48,1.29c-24.453,9.081-50.039,12.3-67.209,13.4C24.664,15.143,18.414,15.287,13.366,15.287Z" transform="translate(242.501 477.532)"/><rect class="a" width="1.377" height="34.378" transform="translate(410.345 234.505) rotate(-48.86)"/><rect class="a" width="1.377" height="34.378" transform="translate(367.724 393.775) rotate(-48.86)"/><rect class="a" width="34.378" height="1.377" transform="matrix(0.458, -0.889, 0.889, 0.458, 437.744, 378.466)"/><rect class="a" width="34.378" height="1.377" transform="matrix(0.458, -0.889, 0.889, 0.458, 370.266, 336.982)"/><rect class="a" width="34.378" height="1.377" transform="translate(365.548 295.526) rotate(-21.51)"/><rect class="a" width="34.378" height="1.377" transform="translate(298.928 337.991) rotate(-21.51)"/><rect class="a" width="32.172" height="1.377" transform="matrix(0.927, -0.376, 0.376, 0.927, 382.828, 325.409)"/><rect class="a" width="34.378" height="1.377" transform="translate(402.43 302.463) rotate(-21.51)"/><rect class="a" width="34.378" height="1.377" transform="translate(413.661 349.309) rotate(-21.51)"/><rect class="a" width="34.378" height="1.377" transform="matrix(0.458, -0.889, 0.889, 0.458, 278.784, 325.588)"/><rect class="a" width="34.378" height="1.377" transform="translate(395.004 423.597) rotate(-25.59)"/><rect class="a" width="34.378" height="1.377" transform="matrix(0.458, -0.889, 0.889, 0.458, 402.314, 392.395)"/><rect class="a" width="34.378" height="1.377" transform="matrix(0.458, -0.889, 0.889, 0.458, 455.781, 327)"/><rect class="a" width="1.377" height="34.378" transform="translate(463.646 385.265) rotate(-24.29)"/><rect class="a" width="34.378" height="1.377" transform="matrix(0.984, -0.178, 0.178, 0.984, 433.545, 277.951)"/><rect class="a" width="1.377" height="19.403" transform="translate(448.611 228.202) rotate(-3.77)"/><rect class="a" width="1.377" height="19.403" transform="translate(366.862 421.841) rotate(-3.77)"/><rect class="a" width="1.377" height="19.403" transform="translate(463.961 242.994) rotate(-3.77)"/><rect class="a" width="1.377" height="19.403" transform="translate(440.161 389.128) rotate(-3.77)"/><rect class="a" width="1.377" height="19.403" transform="translate(407.02 247.772) rotate(-3.77)"/><rect class="a" width="1.377" height="19.403" transform="translate(449.635 288.957) rotate(-3.77)"/><rect class="a" width="1.377" height="19.403" transform="translate(477.902 370.101) rotate(-3.77)"/><rect class="a" width="1.377" height="32.021" transform="matrix(0.781, -0.625, 0.625, 0.781, 387.25, 257.066)"/><rect class="a" width="1.377" height="32.021" transform="matrix(0.781, -0.625, 0.625, 0.781, 336.464, 245.35)"/><rect class="a" width="1.377" height="32.021" transform="matrix(0.781, -0.625, 0.625, 0.781, 241.93, 274.035)"/><rect class="a" width="1.377" height="32.021" transform="matrix(0.111, -0.994, 0.994, 0.111, 308.365, 351.158)"/><rect class="a" width="1.377" height="18.06" transform="matrix(0.111, -0.994, 0.994, 0.111, 315.124, 274.302)"/><rect class="a" width="1.377" height="18.06" transform="matrix(0.111, -0.994, 0.994, 0.111, 232.248, 288.956)"/><rect class="a" width="1.377" height="18.06" transform="matrix(0.111, -0.994, 0.994, 0.111, 327.969, 445.168)"/><rect class="a" width="18.06" height="1.377" transform="translate(346.387 360.178) rotate(-65.49)"/><rect class="a" width="18.06" height="1.377" transform="translate(339.627 320.02) rotate(-65.49)"/><rect class="a" width="18.06" height="1.377" transform="translate(294.824 329.577) rotate(-65.49)"/><rect class="a" width="18.06" height="1.377" transform="matrix(0.944, -0.329, 0.329, 0.944, 345.743, 333.208)"/><rect class="a" width="18.06" height="1.377" transform="translate(267.735 306.555) rotate(-65.49)"/><rect class="a" width="6.526" height="1.377" transform="translate(269.089 319.08) rotate(-65.49)"/><rect class="a" width="6.526" height="1.377" transform="translate(315.863 324.752) rotate(-65.49)"/><rect class="a" width="6.526" height="1.377" transform="translate(376.793 275.242) rotate(-65.49)"/><rect class="a" width="6.526" height="1.377" transform="translate(420.726 269.803) rotate(-65.49)"/><rect class="a" width="6.526" height="1.377" transform="translate(431.695 242.889) rotate(-65.49)"/><rect class="a" width="6.526" height="1.377" transform="translate(453.503 262.308) rotate(-65.49)"/><rect class="a" width="6.526" height="1.377" transform="translate(431.693 309.474) rotate(-65.49)"/><rect class="a" width="6.526" height="1.377" transform="translate(481.017 319.018) rotate(-65.5)"/><rect class="a" width="6.526" height="1.377" transform="translate(464.015 366.171) rotate(-65.5)"/><rect class="a" width="6.526" height="1.377" transform="translate(454.852 415.044) rotate(-65.49)"/><rect class="a" width="6.526" height="1.377" transform="translate(422.077 426.924) rotate(-65.49)"/><rect class="a" width="6.526" height="1.377" transform="translate(378.14 424.518) rotate(-65.49)"/><rect class="a" width="6.526" height="1.377" transform="translate(355.034 451.139) rotate(-65.49)"/><rect class="a" width="6.526" height="1.377" transform="translate(348.776 403.339) rotate(-65.49)"/><rect class="a" width="6.526" height="1.377" transform="translate(391.989 382.589) rotate(-65.49)"/><rect class="a" width="6.526" height="1.377" transform="translate(431.691 359.676) rotate(-65.49)"/><rect class="a" width="6.526" height="1.377" transform="translate(427.794 395.457) rotate(-65.49)"/><rect class="a" width="6.526" height="1.377" transform="translate(363.838 313.355) rotate(-65.49)"/><rect class="a" width="6.526" height="1.377" transform="translate(326.058 287.476) rotate(-65.49)"/><rect class="a" width="6.526" height="1.377" transform="translate(323.371 260.121) rotate(-65.49)"/><rect class="a" width="6.526" height="1.377" transform="translate(322.019 229.514) rotate(-65.49)"/><rect class="a" width="18.06" height="1.377" transform="translate(334.207 395.924) rotate(-65.49)"/><rect class="a" width="18.06" height="1.377" transform="translate(477.273 361.882) rotate(-65.5)"/><rect class="a" width="18.06" height="1.377" transform="translate(429.298 333.971) rotate(-65.49)"/><rect class="a" width="1.377" height="18.06" transform="translate(334.973 418.78) rotate(-89.44)"/><rect class="a" width="18.06" height="1.377" transform="translate(360.379 289.586) rotate(-65.49)"/><rect class="a" width="18.06" height="1.377" transform="translate(312.12 237.937) rotate(-65.49)"/><rect class="a" width="18.06" height="1.377" transform="translate(337.037 286.613) rotate(-65.49)"/><rect class="a" width="18.06" height="1.377" transform="translate(464.632 347) rotate(-65.5)"/><rect class="a" width="18.06" height="1.377" transform="translate(320.314 242.607) rotate(-35.97)"/><rect class="a" width="18.06" height="1.377" transform="translate(368.076 378.27) rotate(-35.97)"/><rect class="a" width="1.377" height="18.06" transform="translate(302.582 202.816) rotate(-61.06)"/><path d="M6.4,19.713l-1.26-.553C7.18,14.511,7.5,10.483,6.09,7.187A11.614,11.614,0,0,0,0,1.295L.471,0A12.862,12.862,0,0,1,7.357,6.657C8.922,10.306,8.6,14.7,6.4,19.713Z" transform="translate(162.123 214.573)"/><path d="M6.4,19.713l-1.26-.553C7.178,14.521,7.5,10.5,6.1,7.205A11.725,11.725,0,0,0,0,1.295L.471,0A12.864,12.864,0,0,1,7.357,6.657C8.924,10.306,8.6,14.7,6.4,19.713Z" transform="translate(173.596 132.081)"/></g></svg>