<svg xmlns="http://www.w3.org/2000/svg" width="493.828" height="616.997" viewBox="0 0 493.828 616.997"><defs><style>.a{fill:#ff7f66;}.b{fill:#fff;}.c{fill:#fef7ef;}.d{fill:none;stroke:#000;stroke-linecap:round;stroke-width:2px;}</style></defs><g transform="translate(8.355 -0.06)"><rect width="22.06" height="218.407" transform="translate(391.984 113.716) rotate(28.68)"/><path d="M4.439,0H23.48A4.439,4.439,0,0,1,27.92,4.439V38.071H0V4.45A4.439,4.439,0,0,1,4.439,0Z" transform="translate(390.561 110.212) rotate(28.68)"/><rect class="a" width="3.445" height="27.917" transform="translate(376.668 135.676) rotate(-61.32)"/><path class="b" d="M55.8,148.935h0L24.6,145.6C18.051,132.525-13.6,65.259,6.71,25.282A43.952,43.952,0,0,1,25.6,6.1,51.261,51.261,0,0,1,38.089,1.5,60.27,60.27,0,0,1,51.586,0,66.876,66.876,0,0,1,62.209.86,68.926,68.926,0,0,1,72.628,3.39,66.941,66.941,0,0,1,82.493,7.51a61.7,61.7,0,0,1,8.961,5.634,51.569,51.569,0,0,1,13.806,15.5,45.792,45.792,0,0,1,5.983,20.621,75.184,75.184,0,0,1-3.807,26.483c-3.813,11.955-10.428,24.56-19.662,37.465a228.109,228.109,0,0,1-22.839,26.965c-3.965,4.023-7.157,6.982-9.136,8.757Zm-28.388-90.7a2.942,2.942,0,0,0-2.041.777,3.4,3.4,0,0,0-1.014,2.011,6.54,6.54,0,0,0,1.844,5.1,17.959,17.959,0,0,0,8.221,4.818,42.883,42.883,0,0,0-1.535-7.364,8.513,8.513,0,0,0-2.368-4.109A5.231,5.231,0,0,0,27.411,58.238Z" transform="translate(216.518 110.647)"/><path d="M56.838,150.514h0L24.873,147.1l-.193-.383C18.1,133.584-13.7,66.016,6.791,25.7a45.4,45.4,0,0,1,25.5-22.309A55.156,55.156,0,0,1,42.015.851,62.9,62.9,0,0,1,52.4,0,67.9,67.9,0,0,1,66.525,1.5,64.8,64.8,0,0,1,98.014,17.87a47.576,47.576,0,0,1,14.77,32.123,76,76,0,0,1-3.843,26.76c-3.86,12.106-10.614,24.915-20.074,38.071a232.219,232.219,0,0,1-22.6,26.671c-4.208,4.268-7.551,7.338-9.17,8.788l-.254.232ZM52.373,1.557h-.021a61.114,61.114,0,0,0-10.078.824,53.386,53.386,0,0,0-9.448,2.467A43.884,43.884,0,0,0,8.175,26.4C3.549,35.505,1.326,46.79,1.568,59.939c.2,10.828,2.073,23.042,5.579,36.3a259.632,259.632,0,0,0,10.518,31.064c3.525,8.665,6.664,15.205,8.221,18.333l30.426,3.248c1.552-1.395,4.766-4.353,8.847-8.492,12.073-12.25,33.625-36.869,42.313-64.118a74.743,74.743,0,0,0,3.77-26.207A46,46,0,0,0,96.931,18.99,63.313,63.313,0,0,0,66.2,3.028,66.434,66.434,0,0,0,52.373,1.557Zm13.994,71.56h0l1.22-1.561a27.568,27.568,0,0,1,11.56-8.962,17.564,17.564,0,0,1,6.182-1.305,7.332,7.332,0,0,1,2.749.457,2.3,2.3,0,0,1,1.689,2.368c-.378,3.329-8.393,6.578-21.441,8.691l-1.956.312ZM85.528,62.835l-.188,0a15.709,15.709,0,0,0-5.615,1.192,25.4,25.4,0,0,0-9.566,6.863,65.112,65.112,0,0,0,13.8-3.759,14.882,14.882,0,0,0,3.181-1.781,2.517,2.517,0,0,0,1.085-1.431c.041-.354-.373-.6-.728-.75A5.9,5.9,0,0,0,85.528,62.835Zm-49.41,9.985h0l-1.166-.366c-9.256-2.911-10.469-7.935-10.62-9.4A4.313,4.313,0,0,1,26.323,58.7a3.763,3.763,0,0,1,1.862-.479,6,6,0,0,1,3.585,1.4c1.951,1.5,3.32,5.426,4.187,11.991l.161,1.211Zm-7.96-13.039h0a2.217,2.217,0,0,0-1.075.278,2.8,2.8,0,0,0-1.2,2.829,7.06,7.06,0,0,0,2.812,4.6,19.352,19.352,0,0,0,5.539,3.072c-.995-6.612-2.407-8.926-3.417-9.7a4.466,4.466,0,0,0-2.628-1.072h-.031Z" transform="translate(215.743 109.88)"/><path class="b" d="M10.105,12.7C-5.1,7.921-.327-3.8,6.2,1.23,8.107,2.688,9.34,6.906,10.105,12.7Z" transform="translate(240.822 168.885)"/><path d="M11.818,14.6h0l-1.167-.367C1.39,11.322.18,6.3.03,4.829A4.313,4.313,0,0,1,2.023.478,3.763,3.763,0,0,1,3.884,0,6,6,0,0,1,7.469,1.4c1.953,1.5,3.324,5.425,4.19,11.992l.159,1.211ZM3.858,1.563a2.222,2.222,0,0,0-1.075.278,2.8,2.8,0,0,0-1.2,2.829A7.06,7.06,0,0,0,4.4,9.267a19.354,19.354,0,0,0,5.538,3.072c-.994-6.612-2.406-8.926-3.416-9.7A4.472,4.472,0,0,0,3.889,1.563H3.858Z" transform="translate(240.044 168.099)"/><path d="M31.318,6.36,1.93,3.789l-.2-.377c-.015-.027-.4-.752-1.091-2.134L0,0,34.35,3.669l-1.3,1.171c-.924.827-1.467,1.3-1.491,1.3l-.239.218ZM2.683,1.858l.231.448L24.937,4.234Z" transform="translate(239.784 255.322)"/><path d="M0,11.829l0,0L1.22,10.267A27.57,27.57,0,0,1,12.78,1.3,17.559,17.559,0,0,1,18.962,0a7.334,7.334,0,0,1,2.749.457A2.3,2.3,0,0,1,23.4,2.825c-.378,3.33-8.393,6.579-21.441,8.691L0,11.828ZM19.159,1.547l-.183,0a15.737,15.737,0,0,0-5.615,1.192A25.364,25.364,0,0,0,3.794,9.6,65.671,65.671,0,0,0,17.477,5.893c3.111-1.349,4.3-2.6,4.379-3.261.041-.355-.374-.6-.729-.75A5.914,5.914,0,0,0,19.159,1.547Z" transform="translate(282.108 171.168)"/><path class="b" d="M34.673,3.609l-.783,7.338-.078.731L0,8.07l.078-.729L.861,0,2.472.172,33.668,3.5l1,.107Z" transform="translate(238.65 256.079)"/><path d="M35.365,13.4,0,9.628,1.041,0,36.406,3.774,35.365,13.4ZM2.415,1.731,1.72,8.244l32.269,3.443.695-6.505-.227-.026L2.415,1.731h0Z" transform="translate(237.791 255.207)"/><path d="M0,0H30.85A12.972,12.972,0,0,1,17.878,12.972H12.972A12.972,12.972,0,0,1,0,0H0Z" transform="translate(239.774 272.854) rotate(6.09)"/><path d="M19.293,70.9,17.732,70.7c.023-.164.63-4.538,8.418-49.683A45.934,45.934,0,0,1,33.257,2.483C20.61,4.367,10.412,4.27,2.912,2.2,5.6,25.159,1.611,70.407,1.561,70.87L0,70.73c.042-.468,4.164-47.14,1.207-69.515L1.046,0,2.217.37C9.623,2.712,20.064,2.886,33.241.906q.835-.12,1.626-.26L36.838.32,35.612,1.894c-3.9,5.028-6.579,11.546-7.932,19.379C19.944,66.251,19.317,70.735,19.293,70.9Z" transform="translate(248.926 180.475)"/><rect class="c" width="10.82" height="39.388" transform="translate(234.77 273.865) rotate(-83.91)"/><path d="M40.718,16.657,0,12.311,1.322,0,42.04,4.346l-1.322,12.31ZM2.7,1.717,1.72,10.932l37.611,4.005.984-9.207L2.7,1.717h0Z" transform="translate(233.924 262.262)"/><path class="b" d="M0,11.676,14.713,39.789l17.766-3.523L21.734,0,0,11.676Z" transform="translate(398.37 526.531)"/><path d="M15.353,41.806,0,12.491,23.261,0,34.522,37.993,15.354,41.806ZM22.32,2.28,2.111,13.136,16.194,40.049,32.549,36.8Z" transform="translate(397.308 525.394)"/><path class="b" d="M0,1.421l1.486,31.7,17.594,4.3L24.631,0,0,1.421Z" transform="translate(297.461 548.185)"/><path d="M20.558,39.206h0L1.561,34.569,0,1.52,26.361,0Zm3.99-37.54L1.647,2.987l1.421,30.34,16.2,3.956Z" transform="translate(296.631 547.355)"/><path class="b" d="M12.335.226S8.192,7.819,6.928,13.937-.619,19.592.05,21.578s6.209,4.1,6.209,4.1,1.91,6.995,4.036,10.227c2.55,3.883,11.731,6.521,11.731,6.521L19.585,73.623l56.03-1.189s-24.18-11.289-25.138-16.8c-1.645-9.431-4.026-20.766-3.643-27.647.625-10.9,4.616-24.722-6.191-26.718S12.335.226,12.335.226Z" transform="translate(303.3 120.397)"/><path d="M19.522,75.19v0h0l2.463-31.423c-2.126-.67-9.243-3.134-11.557-6.656C8.541,34.234,6.867,28.673,6.4,27.037a25.851,25.851,0,0,1-3.455-1.69C1.348,24.388.39,23.463.1,22.6c-.481-1.431.894-2.11,2.108-2.709,1.712-.848,4.057-2.008,4.745-5.34C8.219,8.408,12.267.946,12.439.632l.208-.38.432-.023.177-.008C16.375.077,19.737,0,22.979,0a113.166,113.166,0,0,1,18.6,1.269c4.308.8,6.826,3.4,7.7,7.971.74,3.864.213,8.7-.3,13.373l-.017.152c-.218,2.014-.444,4.1-.553,6.034-.324,5.649,1.239,14.272,2.75,22.611l.126.7c.262,1.445.508,2.807.742,4.16.653,3.747,15.13,11.755,24.7,16.223l3.034,1.418ZM1.567,22.079h0a.1.1,0,0,0,0,.017c.38,1.13,3.589,2.8,5.746,3.625l.37.14.1.382c.018.068,1.894,6.9,3.935,10,.962,1.466,3.2,3,6.485,4.424a43.494,43.494,0,0,0,4.809,1.769l.615.177L21.206,73.587l51.934-1.1c-2.346-1.163-5.87-2.967-9.338-4.945C55.291,62.7,50.937,59.1,50.489,56.536c-.2-1.2-.417-2.392-.649-3.659q-.109-.593-.217-1.189l-.053-.295c-1.507-8.322-3.066-16.928-2.72-22.684.118-2.087.362-4.306.578-6.265C48.441,13.117,49.4,4.307,41.293,2.8a104.034,104.034,0,0,0-18.354-1.25c-4.619,0-8.317.16-9.34.209-.935,1.782-4.069,8-5.124,13.1-.843,4.073-3.693,5.484-5.578,6.418l-.056.028a4.768,4.768,0,0,0-1.272.77Z" transform="translate(302.518 119.616)"/><path class="b" d="M3.852,0S-2.355,96.526.989,140.906s10.5,149.779,10.5,149.779,23.371.557,34.837-3.328V170.86c0-26.075,8.6-66.015,8.6-66.015S80.707,208.029,116.988,281.8c0,0,22.5-3.328,32.253-13.316,0,0-16.022-88.758-25.57-110.948s-18.31-140.9-18.31-140.9Z" transform="translate(282.737 271.615)"/><path d="M15.552,292.4c-1.775,0-2.98-.023-3.307-.031l-.714-.016-.05-.71c-.06-.9-7.177-105.643-10.5-149.777C-2.328,97.922,3.782,1.824,3.844.859L3.9,0,106.865,16.881l.045.611c.091,1.228,2.273,30.437,5.637,62.592,1.958,18.72,3.914,34.55,5.812,47.049,2.37,15.6,4.657,26.036,6.8,31.014,9.469,22.007,25.462,110.236,25.619,111.118l.073.4-.281.289a33.988,33.988,0,0,1-9.124,6.34,69.568,69.568,0,0,1-10.562,4.15,94.54,94.54,0,0,1-13.012,3.042l-.564.083-.26-.52C98.292,244.9,82.4,198.771,72.37,166.785c-8.63-27.53-14.481-49.439-16.6-57.581-1.016,5.062-2.983,15.309-4.711,27.055-2.116,14.387-3.191,26.328-3.195,35.492V288.806l-.52.182c-3.9,1.33-9.52,2.292-16.689,2.858C24.813,292.308,19.217,292.4,15.552,292.4ZM5.348,1.83c-.617,9.95-5.936,98.406-2.81,139.935,3.043,40.4,9.241,131.257,10.453,149.061.355,0,1.115.013,2.2.013,6.38,0,22.186-.305,31.132-3.135V171.771c0-25.523,8.266-64.529,8.618-66.177l.709-3.286.814,3.261c.053.22,6.541,26.1,17.414,60.779,9.945,31.724,25.709,77.516,44.329,115.51,3.642-.617,22.256-4.13,30.967-12.712-.751-4.119-4.75-25.88-9.765-49.718-2.917-13.866-5.623-25.786-8.044-35.429-2.991-11.913-5.561-20.4-7.638-25.232-3.99-9.277-8.294-35.857-12.793-79-3.319-31.826-5.511-61.248-5.532-61.541Z" transform="translate(281.964 270.707)"/><path d="M0,0A537.669,537.669,0,0,1,11.45,53.669,373.363,373.363,0,0,0,2.98,113.8S2.3,85.633,1.109,67.6c-.95-14.365,2.4-18.026,1.509-31.131S0,0,0,0Z" transform="translate(326.208 322.791)"/><path d="M0,5.307S26.892,20.66,42.126,19.682C73.272,17.652,77.256,29.1,77.256,29.1L75.013,5.6S1.728-6.8,0,5.307Z" transform="translate(313.083 280.337)"/><path d="M56.7,7.612S42.448,6.389,36.834,0c0,0-25.783,18.911-31.914,22.119,0,0-7.37,4.89-4.07,12.644h0c10.581.6,55.671.154,55.671.154S56.281,13.308,56.7,7.612Z" transform="translate(262.113 574.624)"/><path d="M9.568,26.427l0,0L8.411,24.539C1.345,13.042-1.618,3.76.863.893A2.626,2.626,0,0,1,2.938,0,5.82,5.82,0,0,1,5.223.557C8.3,1.9,10,6.349,10.281,13.772A71.336,71.336,0,0,1,9.836,24.23l-.268,2.194ZM2.893,1.559a1.162,1.162,0,0,0-.837.359c-1.514,1.741.227,9.1,6.485,19.8a59.67,59.67,0,0,0-.1-11.532C7.86,5.6,6.572,2.844,4.611,1.985a4.4,4.4,0,0,0-1.64-.424Z" transform="translate(289.871 550.493)"/><path d="M5.11,10.27c-1.982,0-3.4-.419-4.226-1.247C-.161,7.966-.281,6.379.527,4.306,1.433,1.975,2.889.574,4.855.142A6.185,6.185,0,0,1,6.2,0c5.309,0,11.636,6.066,11.7,6.127l.9.853-1.158.443-.06.022C10.862,9.9,6.884,10.27,5.11,10.27ZM6.2,1.552a4.72,4.72,0,0,0-1.005.109c-1.446.324-2.5,1.373-3.211,3.208-.563,1.449-.563,2.476,0,3.053a4.275,4.275,0,0,0,3.008.8c3.088,0,7.632-1.2,10.855-2.327C14.13,4.943,9.769,1.557,6.229,1.553Z" transform="translate(281.591 567.943)"/><path d="M36.189,0S23.6,6.8,15.4,4.541c0,0-11.19,29.955-14.539,36.01,0,0-3.479,8.132,3.534,12.8h0c9.173-5.309,46.628-30.421,46.628-30.421S38.96,4.994,36.189,0Z" transform="translate(394.139 556.856)"/><path d="M21.3,19.322h0l-2-.937C7.083,12.651-.481,6.512.023,2.746.157,1.772.865.518,3.482.071A5.07,5.07,0,0,1,4.329,0c3.116,0,6.694,2.808,10.634,8.346a71.442,71.442,0,0,1,5.366,8.988l.97,1.986ZM4.318,1.561h0a3.373,3.373,0,0,0-.57.049c-.929.159-2.061.521-2.175,1.345-.16,1.181,1.262,3.12,3.9,5.319A65.008,65.008,0,0,0,17.86,15.955a60.309,60.309,0,0,0-6.1-9.222C8.907,3.3,6.41,1.562,4.333,1.562H4.318Z" transform="translate(389.912 543.721)"/><path d="M3.731,12.276a3.116,3.116,0,0,1-.632-.065C1.644,11.9.672,10.642.21,8.461-.312,6.01.136,4.04,1.54,2.6,3.632.452,7.508,0,10.391,0a32.691,32.691,0,0,1,5.332.449L16.94.67l-.723,1.005A56.351,56.351,0,0,1,11.425,7.4C8.287,10.635,5.7,12.276,3.744,12.276ZM10.3,1.56c-2.541,0-5.929.37-7.646,2.134C1.626,4.747,1.325,6.2,1.738,8.139c.322,1.522.888,2.378,1.683,2.545a1.808,1.808,0,0,0,.373.037c1.177,0,2.925-1.037,5.056-3A48.761,48.761,0,0,0,14.171,1.8,33.4,33.4,0,0,0,10.3,1.56Z" transform="translate(393.957 560.18)"/><path class="a" d="M164.37,81.889q-1.265.713-2.6,1.4c-18.021,9.288-43.036,13.81-43.036,13.81a9.231,9.231,0,0,1-.749-.812c-3.162-3.68-5.277-9.493-6.066-11.913-.229-.7-.346-1.116-.346-1.116s26.733-15.275,26.023-17.9-34.131-14.084-34.131-14.084l3.466,33.939a52.436,52.436,0,0,1-8.65.552c-5.915-.239-8.3-.835-11.166,1.561s-10.149,9.785-10.149,9.785-3.281,2.925,4.237,4.655S97.13,98.9,97.13,98.9a111.512,111.512,0,0,0,11.19-.12l.877,8.588C52.152,117.155,0,93.055,0,93.055V68.67C12.863,55.622,33.874,31.288,42.5,4.24,64.037,9.587,81.868.076,81.868.076c4.892-2.082,97.023,39.034,97.978,62.416C180.166,70.3,173.452,76.757,164.37,81.889Z" transform="translate(281.455 182.156)"/><path d="M82.3,111.248H81.87a199.82,199.82,0,0,1-26.39-1.8,219.673,219.673,0,0,1-21.671-4.025A195.619,195.619,0,0,1,.455,94.538L0,94.33V69.14l.227-.229C12.3,56.661,33.851,32.043,42.539,4.793l.221-.7.71.176A55.029,55.029,0,0,0,56.7,5.865,62.157,62.157,0,0,0,74.948,3.047,47.6,47.6,0,0,0,82.282.174l.062-.028a1.778,1.778,0,0,1,.8-.146c1.282,0,3.877.693,7.712,2.061,4.488,1.6,10.239,3.97,16.631,6.852a364.892,364.892,0,0,1,43.039,22.882c20.163,12.751,30.554,23.334,30.884,31.454.3,7.227-5.045,13.993-15.874,20.11-.752.425-1.579.874-2.6,1.413-17.954,9.251-43.008,13.839-43.256,13.882l-.4.073-.289-.289c-.279-.279-.549-.575-.78-.856-3.26-3.795-5.432-9.781-6.215-12.179-.136-.415-.26-.818-.35-1.133l0-.014-.167-.586.52-.3c.063-.036,6.369-3.642,12.692-7.6,11.066-6.923,12.679-8.984,12.91-9.451-1.568-1.789-17.878-8.1-32.427-13.121l3.416,33.476-.746.1a57.226,57.226,0,0,1-7.542.583c-.428,0-.847-.008-1.244-.023-.784-.034-1.585-.074-2.519-.125-1.172-.064-2.185-.12-3.059-.12A7.005,7.005,0,0,0,88.41,88.7C85.85,90.84,79.6,97.147,78.367,98.39l-.044.044-.037.036c-.006.005-.573.545-.427,1.1.1.391.732,1.389,4.32,2.218a15.259,15.259,0,0,0,3.412.368A28.873,28.873,0,0,0,97.56,98.994l.186-.1h.211c1.9.053,3.557.079,5.058.079,2.325,0,4.3-.064,6.036-.2l.76-.059,1.041,10.076-.718.125A167.768,167.768,0,0,1,82.3,111.248ZM43.8,5.967C34.91,33.145,13.52,57.619,1.562,69.788V93.326c1.33.585,5.024,2.159,10.57,4.111a220.324,220.324,0,0,0,22.078,6.475A218.286,218.286,0,0,0,55.7,107.9a198.21,198.21,0,0,0,26.166,1.786,166.486,166.486,0,0,0,27.258-2.184l-.726-7.114c-1.584.1-3.352.148-5.4.148-1.454,0-3.054-.024-4.889-.073a29.742,29.742,0,0,1-12.483,3.251,17.015,17.015,0,0,1-3.807-.413c-3.3-.759-5.1-1.857-5.483-3.354a2.8,2.8,0,0,1,.882-2.625c.073-.074,7.3-7.418,10.183-9.821a8.5,8.5,0,0,1,6.072-1.973c.923,0,1.935.055,3.107.118H96.6l.415.022h.006c.624.033,1.332.07,2.075.1.371.009.748.013,1.12.013a48.309,48.309,0,0,0,6.643-.46l-3.513-34.4,1.156.4.033.011c1.451.5,9.081,3.14,16.785,6.055,17.253,6.525,17.617,7.842,17.813,8.55.237.874-.358,1.972-4.05,4.737-2.11,1.58-5.148,3.621-9.03,6.066-5.578,3.505-11.182,6.758-12.767,7.672l.164.507c.751,2.309,2.83,8.066,5.915,11.645.128.152.267.308.427.477,1.766-.338,8.162-1.616,16.273-3.886a140.893,140.893,0,0,0,26.145-9.774c.894-.461,1.756-.926,2.563-1.382,10.275-5.807,15.353-12.1,15.093-18.689-.26-6.19-7.652-14.6-21.375-24.332-11.951-8.46-29.055-18.109-46.927-26.473C102.233,8.143,95.79,5.555,92.028,4.152c-4.366-1.629-7.657-2.6-8.8-2.6a1.082,1.082,0,0,0-.263.026,54.642,54.642,0,0,1-11.739,4.13,62.5,62.5,0,0,1-14.5,1.721A57.068,57.068,0,0,1,43.8,5.967Z" transform="translate(280.674 181.365)"/><path class="b" d="M10.772,5.435S2.411,1.328.74.134.142,6.1,4.818,7.215,10.772,5.435,10.772,5.435Z" transform="translate(371.216 262.49)"/><path d="M7.63,9.037a9.557,9.557,0,0,1-2.212-.282C2.123,7.976.415,4.552.07,2.44-.117,1.287.074.5.625.16A1.172,1.172,0,0,1,1.976.28C3.619,1.455,11.845,5.5,11.9,5.515l.671.331-.3.687a4.135,4.135,0,0,1-1.055,1.312A5.392,5.392,0,0,1,7.63,9.037ZM1.572,1.88a6.677,6.677,0,0,0,.742,2.358,5.6,5.6,0,0,0,3.466,3A7.889,7.889,0,0,0,7.6,7.472,3.851,3.851,0,0,0,10.375,6.5C7.873,5.263,3.4,3.009,1.572,1.88Z" transform="translate(370.434 261.709)"/><path d="M9.176.653A28.4,28.4,0,0,1,1.452,0L0,18.554S3.877,9.6,5.488,7.5c1.353-1.759,3.175-3.974,4.38-5.421A.872.872,0,0,0,9.176.653Z" transform="translate(324.028 162.246)"/><ellipse cx="1.515" cy="1.171" rx="1.515" ry="1.171" transform="matrix(0.061, -0.998, 0.998, 0.061, 312.834, 137.366)"/><path d="M5.236,5.117a.781.781,0,0,1-.762-.622A4.2,4.2,0,0,0,.7,1.557.781.781,0,1,1,.927.014,5.7,5.7,0,0,1,6,4.177a.781.781,0,0,1-.609.921.794.794,0,0,1-.156.018Z" transform="translate(313.093 129.017)"/><path class="b" d="M0,3.523,10.18,0s-.5,4.869-4.317,5.543A6.162,6.162,0,0,1,0,3.523Z" transform="translate(313.835 148.228)"/><path d="M5.9,7.575A6.848,6.848,0,0,1,.653,5.14L0,4.28,12.355,0l-.124,1.218a9.787,9.787,0,0,1-.8,2.767A5.651,5.651,0,0,1,7.271,7.447a7.724,7.724,0,0,1-1.356.128Zm4.487-5.246L2.748,4.973a5.394,5.394,0,0,0,3.2,1.04A5.438,5.438,0,0,0,7,5.909c2.116-.374,3.028-2.4,3.383-3.58Z" transform="translate(312.565 147.085)"/><path d="M25.068,35.875A19.889,19.889,0,0,0,12.3,26.634C6.535,25.333-1.28,22.273.178,15.369c0,0,.26-3.937,4-2.386s10.2-4.164,11.749-8.832S32.519-3.844,35.5,9.043s3.458,11.934,9.308,15.994,7.518,13.011,3.222,16.946-2.99,11.224-5.371,11.45-8.473-3.1-8.114-8.949c0,0,5.249-6.566.955-9.907s-5.85,2.149-5.85,2.149-1.7,4.062-4.424-.593Z" transform="translate(309.92 99.792)"/><path class="a" d="M32.07,13.571a111.374,111.374,0,0,1-11.19.12s-8.413,4.6-15.931,2.863S.713,11.9.713,11.9,8,4.5,10.862,2.113,16.113.323,22.028.552A52.491,52.491,0,0,0,30.678,0Z" transform="translate(357.704 267.352)"/><path d="M9.276,18.6a16.93,16.93,0,0,1-3.721-.414c-3.3-.759-5.1-1.857-5.483-3.354A2.8,2.8,0,0,1,.954,12.2l.061-.062C2.748,10.389,8.6,4.5,11.137,2.384A8.5,8.5,0,0,1,17.208.411c.925,0,1.94.055,3.116.119h.018l.415.022c.627.033,1.336.07,2.08.1.387.016.8.024,1.214.024a55.51,55.51,0,0,0,7.3-.568l.8-.109L33.7,15.156l-.8.062c-1.781.136-3.8.2-6.166.2-1.462,0-3.061-.024-4.886-.075A29.633,29.633,0,0,1,9.359,18.6ZM17.2,1.97a7.012,7.012,0,0,0-5.062,1.613C9.575,5.723,3.32,12.03,2.092,13.272l-.043.043-.036.037c-.006.005-.573.545-.427,1.1.1.391.729,1.389,4.319,2.218a15.287,15.287,0,0,0,3.418.368,25.243,25.243,0,0,0,8.17-1.54,29.348,29.348,0,0,0,3.79-1.616l.189-.1h.211c1.909.053,3.565.079,5.063.079,1.985,0,3.7-.046,5.231-.141L30.758,1.741a50.017,50.017,0,0,1-6.822.469c-.385,0-.776,0-1.161-.014-1.017-.043-1.925-.091-2.519-.124l-.836-.035C18.581,2,17.858,1.97,17.2,1.97Z" transform="translate(356.937 266.483)"/><path d="M13.532,6.027,0,0A85.054,85.054,0,0,0,7.531,15.575c5.293,8.772,9.181,21.505,9.181,21.505Z" transform="translate(371.132 226.359)"/><path class="b" d="M41.746,11.926c-2.376,1.436-5.527,2.17-9.675,2.483a111.374,111.374,0,0,1-11.19.12s-8.413,4.6-15.931,2.863S.713,12.736.713,12.736,8,5.337,10.862,2.951s5.251-1.79,11.166-1.561a52.491,52.491,0,0,0,8.65-.552C33.541.448,35.672,0,35.672,0,36.468,2.433,38.584,8.247,41.746,11.926Z" transform="translate(357.704 266.514)"/><path d="M9.276,19.463a16.93,16.93,0,0,1-3.721-.414c-3.3-.759-5.1-1.857-5.483-3.354a2.8,2.8,0,0,1,.882-2.625C1.027,13,8.242,5.661,11.137,3.247a8.5,8.5,0,0,1,6.071-1.972c.925,0,1.94.055,3.116.119h.018l.415.022c.627.033,1.336.07,2.08.1.386.016.794.024,1.211.024a55.666,55.666,0,0,0,7.3-.568C34.164.59,36.272.147,36.292.143L36.977,0,37.2.666c.751,2.309,2.83,8.066,5.915,11.645l.6.7-.781.479c-2.367,1.429-5.551,2.256-10.021,2.6-1.779.136-3.792.2-6.155.2-1.465,0-3.067-.025-4.9-.075a30.088,30.088,0,0,1-12.5,3.243ZM17.2,2.834a7.012,7.012,0,0,0-5.062,1.613c-2.56,2.14-8.816,8.447-10.044,9.689l-.043.043-.036.037c-.006.005-.573.545-.427,1.1.1.391.729,1.389,4.319,2.218a15.267,15.267,0,0,0,3.412.368,29.028,29.028,0,0,0,11.967-3.155l.188-.1h.211c1.921.054,3.585.08,5.087.08,2.32,0,4.285-.064,6.007-.2a22.976,22.976,0,0,0,8.541-1.936A40.117,40.117,0,0,1,35.926,1.8c-.785.151-2.4.442-4.367.71a57.22,57.22,0,0,1-7.541.583c-.428,0-.847-.008-1.244-.023C21.99,3.04,21.19,3,20.255,2.948l-.219-.011C18.953,2.882,18.017,2.834,17.2,2.834Z" transform="translate(356.937 265.619)"/><path d="M.781,12.023,0,10.669C4.4,8.132,12.345.073,12.423,0l1.114,1.1C13.2,1.423,5.358,9.379.781,12.023Z" transform="translate(358.404 271.076)"/><path d="M.83,9.7,0,8.377A62.314,62.314,0,0,0,10.235,0l1.127,1.083A62.558,62.558,0,0,1,.83,9.7Z" transform="translate(362.253 274.87)"/><path d="M.872,6.54,0,5.238A80.229,80.229,0,0,0,7.143,0L8.184,1.174A81.606,81.606,0,0,1,.872,6.54Z" transform="translate(368.376 278.243)"/><path d="M10.786,0s3.739,1.988,3.021,4.216S0,9.759,0,9.759,12.218,2.386,10.786,0Z" transform="translate(408.349 246.396)"/><rect class="b" width="54.768" height="1.561" transform="translate(263.795 604.373)"/><rect class="b" width="54.768" height="1.561" transform="translate(396.291 605.353) rotate(-33.19)"/><path d="M51.9,246.093a.781.781,0,0,1-.749-.565c-.26-.9-25.96-90.492-34.4-115.247C8.275,105.414.083,1.888,0,.844A.783.783,0,0,1,1.564.722c.083,1.041,8.257,104.372,16.673,129.055C26.689,154.571,52.4,244.194,52.662,245.1a.781.781,0,0,1-.536.965.76.76,0,0,1-.221.031Z" transform="translate(370.343 294.102)"/><rect width="1.561" height="77.972" transform="translate(147.125 67.382) rotate(-45)"/><rect width="1.561" height="87.671" transform="matrix(0.085, -0.996, 0.996, 0.085, 104.173, 141.601)"/><rect width="78.685" height="1.561" transform="translate(121.616 209.345) rotate(-21.85)"/><rect width="1.561" height="95.847" transform="translate(241.358 0.348) rotate(-10.66)"/><rect width="77.129" height="1.561" transform="translate(309.379 100.646) rotate(-44.34)"/><path class="b" d="M1.246.748s8.629-2.306,9.131,1.179S-4.375,5.044,1.246.748Z" transform="translate(211.881 175.785)"/><path d="M5.711,5.832h-.2A11.642,11.642,0,0,1,2.251,5.42,3.219,3.219,0,0,1,.2,4.03C-.157,3.348-.211,2.252,1.558.907L1.68.814,1.829.775A23.536,23.536,0,0,1,7.277,0,6.386,6.386,0,0,1,10.76.775,2.6,2.6,0,0,1,11.936,2.6c.1.685-.085,1.948-2.423,2.706A13.885,13.885,0,0,1,5.711,5.832ZM7.089,1.555a18.951,18.951,0,0,0-4.7.68h.007c-.7.564-.865.95-.8,1.072.284.542,2.084.967,4.1.967A11.264,11.264,0,0,0,9.04,3.806c.694-.223,1.416-.6,1.358-1a1.007,1.007,0,0,0-.491-.744A5.888,5.888,0,0,0,7.089,1.555Z" transform="translate(211.095 175.014)"/><path class="b" d="M1.246.748s8.629-2.306,9.131,1.179S-4.375,5.057,1.246.748Z" transform="translate(212.859 180.542)"/><path d="M5.728,5.83l-.212,0a11.654,11.654,0,0,1-3.265-.411A3.22,3.22,0,0,1,.2,4.03C-.157,3.346-.21,2.249,1.558.907L1.68.814,1.829.775A23.536,23.536,0,0,1,7.277,0,6.386,6.386,0,0,1,10.76.775,2.6,2.6,0,0,1,11.936,2.6c.1.685-.085,1.948-2.423,2.706A13.856,13.856,0,0,1,5.728,5.83Zm-3.337-3.6c-.7.564-.863.949-.8,1.071.284.542,2.084.967,4.1.967A11.264,11.264,0,0,0,9.04,3.8c.694-.223,1.416-.6,1.358-1a1.007,1.007,0,0,0-.491-.744,5.914,5.914,0,0,0-2.815-.505A18.953,18.953,0,0,0,2.392,2.233Z" transform="translate(212.073 179.771)"/><path class="b" d="M1.246.748s8.629-2.306,9.131,1.179S-4.375,5.044,1.246.748Z" transform="translate(212.859 185.299)"/><path d="M5.728,5.83l-.212,0a11.67,11.67,0,0,1-3.265-.41A3.216,3.216,0,0,1,.2,4.03C-.157,3.346-.21,2.249,1.558.907L1.68.814,1.829.775A23.536,23.536,0,0,1,7.277,0,6.386,6.386,0,0,1,10.76.775,2.574,2.574,0,0,1,11.936,2.6c.1.685-.085,1.948-2.423,2.706A13.856,13.856,0,0,1,5.728,5.83ZM7.089,1.552a18.951,18.951,0,0,0-4.7.68h.007c-.7.564-.865.95-.8,1.072.284.542,2.084.967,4.1.967A11.264,11.264,0,0,0,9.04,3.8c.694-.223,1.416-.6,1.358-1a1.007,1.007,0,0,0-.491-.744A5.888,5.888,0,0,0,7.089,1.552Z" transform="translate(212.073 184.53)"/><path class="b" d="M.988.624S7.838-1.3,8.236,1.6-3.472,4.21.988.624Z" transform="translate(213.931 189.977)"/><path d="M4.709,5.127H4.594C2.362,5.126.719,4.551.2,3.588-.133,2.977-.212,2,1.286.794l.125-.1L1.564.651A18.113,18.113,0,0,1,5.943,0,5.159,5.159,0,0,1,8.749.633,2.285,2.285,0,0,1,9.79,2.277c.084.617-.075,1.751-2.082,2.409A10.429,10.429,0,0,1,4.709,5.127Zm1.3-3.571h0a16.453,16.453,0,0,0-3.867.554c-.5.426-.58.683-.575.728.1.336,1.448.727,3.042.727A9.217,9.217,0,0,0,6.582,3.36c1.089-.23,1.7-.63,1.665-.885a.723.723,0,0,0-.354-.549,3.638,3.638,0,0,0-1.884-.369Z" transform="translate(213.144 189.198)"/><path class="b" d="M81.251,80.9c2.912-2.121,8.067-7.026,10.18-18.921C94.653,43.856,0,.078,0,.078,4.892-2,96.323,38.331,97.278,61.718,97.6,69.538,90.335,75.767,81.251,80.9Z" transform="translate(363.502 182.919)"/><path d="M33.928,0s-12.08,33.866-23,42.459S0,57.575,0,57.575V44.582S25.429,19.228,33.928,0Z" transform="translate(281.447 206.243)"/><path d="M90.645,0S62.655,29.338,0,81.064v5.061S58.478,40.8,94.575,1.5Z" transform="translate(281.455 184.464)"/><path class="b" d="M0,.13H188.558" transform="translate(161.042 616.141)"/><path d="M189.339,1.561H.781A.781.781,0,0,1,.781,0H189.339a.781.781,0,1,1,0,1.561Z" transform="translate(160.261 615.495)"/><path class="b" d="M0,.13H72.83" transform="translate(359.146 616.141)"/><path d="M73.613,1.561H.781A.781.781,0,0,1,.781,0H73.613a.781.781,0,1,1,0,1.561Z" transform="translate(358.365 615.495)"/><path class="b" d="M0,.13H43.916" transform="translate(440.776 616.141)"/><path d="M44.7,1.561H.781A.781.781,0,0,1,.781,0H44.7a.781.781,0,0,1,0,1.561Z" transform="translate(439.996 615.495)"/><path class="d" d="M241.358,540.2s-53.98-2.513-83.3-55.1-22.786-85.449-34.179-128.49-24.369-58.8-44.94-72.79-62.662-8.228-62.662-8.228"/><path d="M1219.988,2658.265l-26.815,16.621,29.918,3.767-19.281-5.983Z" transform="translate(-1201.527 -2392.943)"/></g></svg>