<svg xmlns="http://www.w3.org/2000/svg" width="34.525" height="34.525" viewBox="0 0 34.525 34.525"><defs><style>.a{fill:#fff;}</style></defs><g transform="translate(0.799 0.799)"><path class="a" d="M42.536,31.753,35.923,25.14a7.547,7.547,0,0,0-2.7-1.745,7.548,7.548,0,0,0-1.745-2.7L24.86,14.076A7.626,7.626,0,1,0,14.076,24.861l6.613,6.613a7.549,7.549,0,0,0,2.7,1.745,7.548,7.548,0,0,0,1.745,2.7l6.613,6.613A7.626,7.626,0,0,0,42.536,31.753ZM21.424,30.739,14.81,24.126a6.587,6.587,0,0,1,9.315-9.315l6.613,6.613a6.551,6.551,0,0,1,1.184,1.61l-.106-.018L31.746,23c-.092-.015-.184-.028-.277-.04l-.026,0c-.085-.01-.17-.019-.255-.026l-.069-.006c-.083-.006-.166-.012-.249-.015l-.034,0q-.141-.006-.283-.006h-.058q-.136,0-.272.006l-.053,0h-.028a5.213,5.213,0,0,0-.475-.546l-6.487-6.487a5.159,5.159,0,0,0-7.344.049,5.214,5.214,0,0,0,.1,7.3l6.438,6.438a5.2,5.2,0,0,0,.54.469v.012l.258.171q.077.051.156.1a5.122,5.122,0,0,0,1.159.525l.011,0,.144.042.032.009.135.034.044.011.126.027.054.012.107.019.075.013.086.012.1.013.069.007.115.012.055,0,.131.009H25.8l.145,0h0l.532,0v-.017a5.158,5.158,0,0,0,4.672-4.643l.03,0,.129.021.048.008c.058.011.115.023.172.036h.005c.055.013.109.027.163.042l.049.014.123.038.048.016c.051.017.1.035.151.054l.013,0c.054.021.108.043.161.067l.043.019.118.056.047.023q.065.033.128.068L32.6,27a6.586,6.586,0,0,1-5.925,5.644c-.2.018-.4.027-.6.027-.126,0-.252,0-.378-.012a6.584,6.584,0,0,1-1.738-.335A6.516,6.516,0,0,1,21.424,30.739Zm7.485-7.657a7.618,7.618,0,0,0-5.827,5.827l-6.415-6.415a4.171,4.171,0,0,1-.087-5.837,4.12,4.12,0,0,1,5.866-.039Zm-2.4,7.026a4.113,4.113,0,0,1,3.6-3.6,4.112,4.112,0,0,1-3.6,3.6Zm7.027-2.4,6.415,6.415a4.171,4.171,0,0,1,.087,5.837A4.12,4.12,0,0,1,34.168,40L27.7,33.532A7.619,7.619,0,0,0,33.531,27.7ZM41.8,41.8a6.587,6.587,0,0,1-9.315,0l-6.613-6.613a6.547,6.547,0,0,1-1.184-1.61l.105.018.072.012c.091.015.182.028.273.039l.042,0q.118.014.236.024l.084.007q.112.008.224.014l.058,0c.091,0,.181.005.272.006h.027l.159,0h.006l.206-.007h.019a5.211,5.211,0,0,0,.475.546l6.487,6.487a5.159,5.159,0,0,0,7.344-.049,5.214,5.214,0,0,0-.1-7.3l-6.438-6.438a5.2,5.2,0,0,0-.54-.469v-.012l-.258-.171q-.077-.051-.156-.1l-.057-.034-.1-.06-.083-.045-.078-.042-.1-.05-.064-.032-.107-.049-.06-.027-.112-.046-.057-.023-.112-.041-.06-.022-.113-.037-.061-.02-.112-.033-.064-.018-.106-.027-.072-.018-.1-.021-.08-.017-.095-.017-.087-.015-.086-.012-.1-.013-.077-.008-.108-.011-.067,0-.118-.008-.06,0-.121,0h-.078A5.158,5.158,0,0,0,25.459,30.1l-.031,0-.127-.02-.049-.009c-.057-.011-.114-.022-.171-.035l-.011,0q-.079-.019-.157-.04l-.051-.015-.121-.037-.05-.017c-.05-.017-.1-.034-.148-.053l-.016-.006c-.054-.021-.107-.043-.161-.066l-.044-.02-.117-.055-.048-.024q-.064-.032-.126-.067l-.023-.012a6.586,6.586,0,0,1,5.925-5.644c.2-.018.4-.027.6-.027q.271,0,.539.022c.1.008.192.018.288.03a6.561,6.561,0,0,1,3.831,1.877L41.8,32.487A6.6,6.6,0,0,1,41.8,41.8Z" transform="translate(-11.842 -11.843)"/></g><g transform="translate(25.258 4.617)"><g transform="translate(0 0)"><rect class="a" width="5.537" height="1.039" transform="translate(0 3.915) rotate(-45)"/></g></g><g transform="translate(19.294)"><rect class="a" width="1.039" height="5.537"/></g><g transform="translate(28.988 14.192)"><rect class="a" width="5.537" height="1.039"/></g><g transform="translate(4.616 25.257)"><g transform="translate(0 0)"><rect class="a" width="5.537" height="1.039" transform="translate(0 3.915) rotate(-45)"/></g></g><g transform="translate(0 19.294)"><rect class="a" width="5.537" height="1.039"/></g><g transform="translate(14.192 28.988)"><rect class="a" width="1.039" height="5.537"/></g></svg>