<svg xmlns="http://www.w3.org/2000/svg" xmlns:xlink="http://www.w3.org/1999/xlink" width="70" height="70" viewBox="0 0 70 70"><defs><style>.a{fill:#fff;stroke:#707070;}.b{clip-path:url(#a);}.c{fill:#ff7f66;}</style><clipPath id="a"><rect class="a" width="70" height="70" transform="translate(246 2853)"/></clipPath></defs><g class="b" transform="translate(-246 -2853)"><g transform="translate(246 2853)"><path d="M5.469,46.348a5.469,5.469,0,0,0,0,10.938v5.879a1.371,1.371,0,0,0,1.367,1.367h22.7A1.371,1.371,0,0,0,30.9,63.164V55.672a1.386,1.386,0,0,0-.574-1.121,1.351,1.351,0,0,0-1.244-.164,2.848,2.848,0,0,1-.9.178,2.734,2.734,0,0,1,0-5.469,2.46,2.46,0,0,1,.9.178,1.381,1.381,0,0,0,1.244-.164,1.35,1.35,0,0,0,.574-1.121v-7.52A1.371,1.371,0,0,0,29.531,39.1H23.652a5.469,5.469,0,0,0-10.937,0H6.836a1.371,1.371,0,0,0-1.367,1.367Zm.9,2.912A1.381,1.381,0,0,0,7.615,49.1a1.35,1.35,0,0,0,.574-1.121V41.836h6.125a1.386,1.386,0,0,0,1.121-.574,1.351,1.351,0,0,0,.164-1.244,2.848,2.848,0,0,1-.178-.9,2.734,2.734,0,0,1,5.469,0,2.46,2.46,0,0,1-.178.9,1.381,1.381,0,0,0,.164,1.244A1.35,1.35,0,0,0,22,41.836h6.166v4.512a5.469,5.469,0,0,0,0,10.938V61.8H8.2V55.672a1.386,1.386,0,0,0-.574-1.121,1.351,1.351,0,0,0-1.244-.164,2.848,2.848,0,0,1-.9.178,2.734,2.734,0,1,1,0-5.469A2.161,2.161,0,0,1,6.371,49.26Z"/><path d="M64.531,12.715V6.836a1.371,1.371,0,0,0-1.367-1.367h-22.7A1.371,1.371,0,0,0,39.1,6.836v7.492a1.386,1.386,0,0,0,.574,1.121,1.351,1.351,0,0,0,1.244.164,2.848,2.848,0,0,1,.9-.178,2.734,2.734,0,0,1,0,5.469,2.46,2.46,0,0,1-.9-.178,1.381,1.381,0,0,0-1.244.164,1.35,1.35,0,0,0-.574,1.121v7.52A1.371,1.371,0,0,0,40.469,30.9h5.879a5.469,5.469,0,0,0,10.938,0h5.879a1.371,1.371,0,0,0,1.367-1.367V23.652a5.469,5.469,0,0,0,0-10.937Zm0,8.2a2.46,2.46,0,0,1-.9-.178,1.381,1.381,0,0,0-1.244.164,1.35,1.35,0,0,0-.574,1.121v6.139H55.686a1.386,1.386,0,0,0-1.121.574,1.351,1.351,0,0,0-.164,1.244,2.848,2.848,0,0,1,.178.9,2.734,2.734,0,0,1-5.469,0,2.46,2.46,0,0,1,.178-.9,1.381,1.381,0,0,0-.164-1.244A1.35,1.35,0,0,0,48,28.164H41.836V23.652a5.469,5.469,0,0,0,0-10.937V8.2H61.8v6.125a1.386,1.386,0,0,0,.574,1.121,1.351,1.351,0,0,0,1.244.164,2.848,2.848,0,0,1,.9-.178,2.741,2.741,0,0,1,.014,5.482Z"/><path d="M29.531,5.469H23.652a5.469,5.469,0,0,0-10.937,0H6.836A1.371,1.371,0,0,0,5.469,6.836v22.7A1.371,1.371,0,0,0,6.836,30.9h7.492a1.386,1.386,0,0,0,1.121-.574,1.351,1.351,0,0,0,.164-1.244,2.848,2.848,0,0,1-.178-.9,2.734,2.734,0,0,1,5.469,0,2.46,2.46,0,0,1-.178.9,1.381,1.381,0,0,0,.164,1.244,1.35,1.35,0,0,0,1.121.574h7.52A1.371,1.371,0,0,0,30.9,29.531V23.652a5.469,5.469,0,0,0,0-10.937V6.836A1.371,1.371,0,0,0,29.531,5.469Zm4.1,12.715A2.742,2.742,0,0,1,30.9,20.918a2.46,2.46,0,0,1-.9-.178,1.381,1.381,0,0,0-1.244.164,1.35,1.35,0,0,0-.574,1.121v6.139H23.666a5.469,5.469,0,1,0-10.937,0H8.2V8.2h6.125a1.386,1.386,0,0,0,1.121-.574,1.351,1.351,0,0,0,.164-1.244,2.848,2.848,0,0,1-.178-.9,2.734,2.734,0,0,1,5.469,0,2.46,2.46,0,0,1-.178.9,1.381,1.381,0,0,0,.164,1.244,1.35,1.35,0,0,0,1.121.574h6.152v6.125a1.386,1.386,0,0,0,.574,1.121,1.351,1.351,0,0,0,1.244.164,2.848,2.848,0,0,1,.9-.178A2.766,2.766,0,0,1,33.633,18.184Z"/><circle cx="1.367" cy="1.367" r="1.367" transform="translate(61.797 50.449)"/><path d="M49.082,39.676a1.35,1.35,0,0,0-1.121-.574H40.469A1.371,1.371,0,0,0,39.1,40.469v5.879a5.469,5.469,0,0,0,0,10.938v5.879a1.371,1.371,0,0,0,1.367,1.367h5.879a5.469,5.469,0,0,0,10.938,0h5.879a1.371,1.371,0,0,0,1.367-1.367v-5.2a1.367,1.367,0,0,0-2.734,0V61.8H55.672a1.386,1.386,0,0,0-1.121.574,1.351,1.351,0,0,0-.164,1.244,2.848,2.848,0,0,1,.178.9,2.734,2.734,0,0,1-5.469,0,2.46,2.46,0,0,1,.178-.9,1.381,1.381,0,0,0-.164-1.244,1.35,1.35,0,0,0-1.121-.574H41.836V55.672a1.386,1.386,0,0,0-.574-1.121,1.351,1.351,0,0,0-1.244-.164,2.848,2.848,0,0,1-.9.178,2.734,2.734,0,0,1,0-5.469,2.46,2.46,0,0,1,.9.178,1.381,1.381,0,0,0,1.244-.164,1.35,1.35,0,0,0,.574-1.121V41.836h4.512a5.469,5.469,0,0,0,10.938,0H61.8v3.828a1.367,1.367,0,0,0,2.734,0v-5.2A1.371,1.371,0,0,0,63.164,39.1H55.672a1.386,1.386,0,0,0-1.121.574,1.351,1.351,0,0,0-.164,1.244,2.848,2.848,0,0,1,.178.9,2.734,2.734,0,0,1-5.469,0,2.46,2.46,0,0,1,.178-.9A1.4,1.4,0,0,0,49.082,39.676Z"/><path class="c" d="M6.371,49.26A1.381,1.381,0,0,0,7.615,49.1a1.35,1.35,0,0,0,.574-1.121V41.836h6.125a1.386,1.386,0,0,0,1.121-.574,1.351,1.351,0,0,0,.164-1.244,2.848,2.848,0,0,1-.178-.9,2.734,2.734,0,0,1,5.469,0,2.46,2.46,0,0,1-.178.9,1.381,1.381,0,0,0,.164,1.244A1.35,1.35,0,0,0,22,41.836h6.166v4.512a5.469,5.469,0,0,0,0,10.938V61.8H8.2V55.672a1.386,1.386,0,0,0-.574-1.121,1.351,1.351,0,0,0-1.244-.164,2.848,2.848,0,0,1-.9.178,2.734,2.734,0,1,1,0-5.469A2.161,2.161,0,0,1,6.371,49.26Z"/></g></g></svg>