<svg xmlns="http://www.w3.org/2000/svg" xmlns:xlink="http://www.w3.org/1999/xlink" width="70" height="70" viewBox="0 0 70 70"><defs><style>.a{fill:#fff;}.b{clip-path:url(#a);}</style><clipPath id="a"><circle class="a" cx="35" cy="35" r="35" transform="translate(274 3060)"/></clipPath></defs><g class="b" transform="translate(-274 -3060)"><g transform="translate(288.576 3078.21)"><g transform="translate(6.985 7.787)"><path d="M26.634,41.04H7.971V16.725a.493.493,0,0,0-.986,0V41.2a.822.822,0,0,0,.821.821H26.634a.493.493,0,0,0,0-.986Z" transform="translate(-6.985 -16.233)"/></g><g transform="translate(6.985)"><path d="M33.724,4.457,29.534.149A.493.493,0,0,0,29.181,0H7.807a.823.823,0,0,0-.821.822V4.666a.493.493,0,0,0,.986,0V.986h21L32.878,5V32.594H30.084a.493.493,0,0,0,0,.986h2.958a.822.822,0,0,0,.821-.821V4.8A.493.493,0,0,0,33.724,4.457Z" transform="translate(-6.985)"/></g><g transform="translate(28.688 0)"><path d="M57.263,4.457,53.073.149a.493.493,0,0,0-.846.344V4.8a.493.493,0,0,0,.493.493h4.189a.493.493,0,0,0,.353-.836Zm-4.05-.149v-2.6l2.53,2.6h-2.53Z" transform="translate(-52.227 0)"/></g><g transform="translate(10.008 2.617)"><path d="M25.984,5.455H14.109a.822.822,0,0,0-.821.821V9a.822.822,0,0,0,.821.821H25.984A.822.822,0,0,0,26.806,9V6.276A.822.822,0,0,0,25.984,5.455ZM25.82,8.836H14.273v-2.4H25.82Z" transform="translate(-13.288 -5.455)"/></g><g transform="translate(10.592 9.463)"><path d="M18.843,19.826a.493.493,0,0,0-.691.094l-2.178,2.865-.654-.572a.493.493,0,0,0-.649.742l1.051.92a.493.493,0,0,0,.325.122l.05,0a.493.493,0,0,0,.343-.192l2.5-3.286A.493.493,0,0,0,18.843,19.826Z" transform="translate(-14.503 -19.726)"/></g><g transform="translate(16.858 9.463)"><path d="M40.472,19.725H28.058a.493.493,0,0,0,0,.986H40.472a.493.493,0,1,0,0-.986Z" transform="translate(-27.565 -19.725)"/></g><g transform="translate(16.858 11.105)"><path d="M36.118,23.15h-8.06a.493.493,0,0,0,0,.986h8.06a.493.493,0,1,0,0-.986Z" transform="translate(-27.565 -23.15)"/></g><g transform="translate(16.858 12.748)"><path d="M37.958,26.575h-9.9a.493.493,0,1,0,0,.986h9.9a.493.493,0,1,0,0-.986Z" transform="translate(-27.565 -26.575)"/></g><g transform="translate(10.592 16.166)"><path d="M18.843,33.8a.493.493,0,0,0-.691.094l-2.178,2.865-.654-.572a.493.493,0,0,0-.649.742l1.051.92a.493.493,0,0,0,.325.122l.05,0a.493.493,0,0,0,.343-.192l2.5-3.286A.493.493,0,0,0,18.843,33.8Z" transform="translate(-14.503 -33.699)"/></g><g transform="translate(16.858 16.166)"><path d="M40.472,33.7H28.058a.493.493,0,0,0,0,.986H40.472a.493.493,0,0,0,0-.986Z" transform="translate(-27.565 -33.699)"/></g><g transform="translate(16.858 17.808)"><path d="M36.118,37.123h-8.06a.493.493,0,0,0,0,.986h8.06a.493.493,0,1,0,0-.986Z" transform="translate(-27.565 -37.123)"/></g><g transform="translate(16.858 19.451)"><path d="M37.958,40.548h-9.9a.493.493,0,0,0,0,.986h9.9a.493.493,0,1,0,0-.986Z" transform="translate(-27.565 -40.548)"/></g><g transform="translate(16.858 22.869)"><path d="M40.472,47.672H28.058a.493.493,0,0,0,0,.986H40.472a.493.493,0,0,0,0-.986Z" transform="translate(-27.565 -47.672)"/></g><g transform="translate(16.858 24.512)"><path d="M36.118,51.1h-8.06a.493.493,0,1,0,0,.986h8.06a.493.493,0,1,0,0-.986Z" transform="translate(-27.565 -51.096)"/></g><g transform="translate(16.858 26.154)"><path d="M37.958,54.521h-9.9a.493.493,0,0,0,0,.986h9.9a.493.493,0,1,0,0-.986Z" transform="translate(-27.565 -54.521)"/></g><g transform="translate(10.591 22.869)"><path d="M17.953,47.672H15.324a.822.822,0,0,0-.821.821v2.629a.822.822,0,0,0,.821.821h2.629a.822.822,0,0,0,.821-.821V48.493A.822.822,0,0,0,17.953,47.672Zm-.164,3.286h-2.3v-2.3h2.3Z" transform="translate(-14.503 -47.672)"/></g></g></g></svg>