<svg xmlns="http://www.w3.org/2000/svg" xmlns:xlink="http://www.w3.org/1999/xlink" width="70" height="70" viewBox="0 0 70 70"><defs><style>.a{fill:#fff;}.b{clip-path:url(#a);}</style><clipPath id="a"><circle class="a" cx="35" cy="35" r="35" transform="translate(274 3060)"/></clipPath></defs><g class="b" transform="translate(-274 -3060)"><g transform="translate(290.065 3075.046)"><g transform="translate(0 2.218)"><path d="M37.316,32.225a.555.555,0,0,0-.555.555v3.707a.094.094,0,0,1-.093.093H34.56V28.474a.555.555,0,0,0-1.109,0v8.105H29.377l1.1-1.213a.887.887,0,0,0,.215-.712l0-.017-1.239-7.322.228-.343.059.042a.868.868,0,0,0,1.28-.32h0l1.261-2.528,2.881,1.116a2.761,2.761,0,0,1,1.6,2.5v2.4a.555.555,0,1,0,1.11,0v-2.4a3.868,3.868,0,0,0-2.289-3.53l-.011,0-4.905-1.9v-1.01a4.051,4.051,0,0,0,1.465-2.516,1.936,1.936,0,0,0,1.03-.454,1.91,1.91,0,0,0,.233-2.656v-1.5a5.309,5.309,0,0,0-8.761-4.037A1.907,1.907,0,0,0,24.2,9.028v-1.5a5.313,5.313,0,1,0-10.626,0V9.067a1.81,1.81,0,0,0-.429,1.111,5.289,5.289,0,0,0-2.092-1.1.555.555,0,0,0-.283,1.073,4.2,4.2,0,0,1,3.13,4.064v.83l-.1-.019a.639.639,0,0,0-.133-.375c-.142-.2-.4-.458-1.217-1.34a.877.877,0,0,0-1.124-.137,7.927,7.927,0,0,1-4.7,1.293.887.887,0,0,0-.976.568L5.5,15.07v-.851a4.23,4.23,0,0,1,2.989-4.024.555.555,0,1,0-.32-1.062,5.355,5.355,0,0,0-2.709,1.89,5.265,5.265,0,0,0-1.07,3.2v1.536a1.808,1.808,0,0,0-.431,1.169,1.915,1.915,0,0,0,1.7,1.9A4.1,4.1,0,0,0,7.2,21.407v.945l-4.9,1.9-.01,0A3.868,3.868,0,0,0,0,27.786v8.7a1.2,1.2,0,0,0,1.2,1.2H18.287a1.2,1.2,0,0,0,.648-.191,1.2,1.2,0,0,0,.648.191H36.668a1.2,1.2,0,0,0,1.2-1.2V32.779A.555.555,0,0,0,37.316,32.225ZM5.6,17.68a.8.8,0,0,1-.533-.755A.819.819,0,0,1,5.6,16.2Zm25.642,6.085-1.089,2.182-1.227-.871L30.288,23.4Zm-3.118.538L26.69,22.532V22a4.474,4.474,0,0,0,1.442.236h0a4.1,4.1,0,0,0,1.425-.259v.559Zm.651,2.027-.2.307h-.894l-.2-.307.651-.463Zm-9.842-8.715L17.5,15.844v-.532a4.474,4.474,0,0,0,1.442.236h0a4.1,4.1,0,0,0,1.425-.259v.559Zm.651,2.027-.2.307h-.894l-.2-.307.651-.463Zm-5.02-7.557a1.984,1.984,0,0,0,.278.053,4.1,4.1,0,0,0,1.546,2.581v.945l-1.132.439a1.9,1.9,0,0,0-.245-.387v-1.5A5.3,5.3,0,0,0,14.565,12.085Zm7.317-.587a2.992,2.992,0,0,1-5.983,0V8.9a9.085,9.085,0,0,0,5.059-1.375c.5.536.8.848.923.993C21.882,9.9,21.882,10.431,21.882,11.5Zm1.059.64a2,2,0,0,0,.277-.053,5.281,5.281,0,0,0-.449,2.135v1.536a1.893,1.893,0,0,0-.219.324l-1.073-.416v-1.01A4.052,4.052,0,0,0,22.94,12.137Zm-6.172,4.571,1.362,1.681-.929.66h0l-.295.209-1.089-2.182ZM20.211,17.8l.887-1.094.954.369-1.089,2.183-.3-.21h0l-.93-.661Zm.28,2.483.059.042a.868.868,0,0,0,1.28-.32h0l.936-1.876a1.947,1.947,0,0,0,1.266.7,4.033,4.033,0,0,0,1.548,2.579v.945L20.864,24.18l-.6-3.553ZM25.959,23.4l1.362,1.681-1.225.87-1.089-2.182Zm5.113-5.211a2.992,2.992,0,0,1-5.982,0v-2.6a9.089,9.089,0,0,0,5.059-1.375c.5.536.8.848.923.993C31.072,16.585,31.072,17.119,31.072,18.185Zm1.643-1.261a.8.8,0,0,1-.533.755V16.17A.8.8,0,0,1,32.715,16.924Zm-8.837-2.705a4.2,4.2,0,1,1,8.406,0v.83l-.1-.019a.639.639,0,0,0-.133-.375c-.146-.209-.4-.459-1.217-1.34a.878.878,0,0,0-1.124-.137,7.942,7.942,0,0,1-4.737,1.291.873.873,0,0,0-.934.57l-.157.032v-.851Zm.1,1.983v1.477a.8.8,0,0,1-.533-.755A.819.819,0,0,1,23.98,16.2Zm-.456-5.966a.8.8,0,0,1-.277.606.821.821,0,0,1-.256.149V9.482A.8.8,0,0,1,23.525,10.236ZM18.891,3.328a4.208,4.208,0,0,1,4.2,4.2v.83l-.1-.019a.672.672,0,0,0-.157-.409c-.149-.2-.422-.477-1.193-1.306a.877.877,0,0,0-1.124-.137,7.924,7.924,0,0,1-4.782,1.288.882.882,0,0,0-.89.572l-.157.032V7.531h0A4.208,4.208,0,0,1,18.891,3.328Zm-4.1,6.187v1.477a.8.8,0,0,1-.533-.755A.82.82,0,0,1,14.79,9.514ZM13.8,16.17a.8.8,0,0,1,0,1.508Zm-.051,2.657a1.945,1.945,0,0,0,1.318-.765l.97,1.945h0a.868.868,0,0,0,1.28.32l.059-.042.228.343L17,24.179l-4.719-1.828v-1.01h0A4.055,4.055,0,0,0,13.75,18.827ZM9.744,24.3,8.309,22.532V22a4.472,4.472,0,0,0,1.442.236h0a4.1,4.1,0,0,0,1.425-.259v.559Zm.651,2.027-.2.307H9.3l-.2-.307.651-.463ZM11.907,23.4l.954.37-1.089,2.182-.3-.21h0l-.93-.661Zm-5.2-5.21v-2.6a9.093,9.093,0,0,0,5.059-1.375c.5.531.8.848.923.993v2.981a2.992,2.992,0,0,1-5.983,0ZM7.578,23.4,8.94,25.077l-.929.66h0l-.295.209L6.626,23.765ZM4.42,36.58V28.474a.555.555,0,1,0-1.109,0v8.105H1.2a.094.094,0,0,1-.093-.093v-8.7a2.761,2.761,0,0,1,1.6-2.5l2.879-1.116,1.261,2.528h0a.868.868,0,0,0,1.28.32l.059-.042.228.343L7.176,34.638l0,.017a.888.888,0,0,0,.215.712l1.1,1.213H4.42ZM8.29,34.708l1.178-6.962h.552L11.2,34.708l-1.454,1.6Zm10.091,1.778a.094.094,0,0,1-.093.093H16.179V28.474a.555.555,0,1,0-1.109,0v8.105H11l1.1-1.213a.887.887,0,0,0,.215-.712l0-.017-1.239-7.322.228-.343.059.042a.868.868,0,0,0,1.28-.32h0L13.9,24.167l2.881,1.116a2.755,2.755,0,0,1,1.6,2.5v8.7Zm.555-10.716a3.95,3.95,0,0,0-.9-1.005l.627-3.706h.552l.628,3.708A3.953,3.953,0,0,0,18.935,25.77ZM22.8,36.58h0V28.474a.555.555,0,1,0-1.109,0v8.105H19.584a.094.094,0,0,1-.093-.093v-8.7a2.652,2.652,0,0,1,.647-1.777,2.986,2.986,0,0,1,.951-.726l2.879-1.116,1.261,2.528h0a.868.868,0,0,0,1.28.32l.059-.042.228.343-1.239,7.322,0,.017a.888.888,0,0,0,.215.712l1.1,1.213H22.8Zm3.869-1.871,1.178-6.962H28.4l1.178,6.962-1.454,1.6Z" transform="translate(0 -2.218)"/></g></g></g></svg>