<svg xmlns="http://www.w3.org/2000/svg" xmlns:xlink="http://www.w3.org/1999/xlink" width="70" height="70" viewBox="0 0 70 70"><defs><style>.a{fill:#fff;}.b{clip-path:url(#a);}</style><clipPath id="a"><circle class="a" cx="35" cy="35" r="35" transform="translate(274 3060)"/></clipPath></defs><g class="b" transform="translate(-274 -3060)"><g transform="translate(290.413 3076.413)"><path d="M31.731,5.444A18.588,18.588,0,0,0,5.444,31.731,18.588,18.588,0,0,0,31.731,5.444Zm1.879,6.52h-3.2a3.914,3.914,0,0,0-3.67-2.817,18.124,18.124,0,0,0-4.1-6.468A16.487,16.487,0,0,1,33.61,11.965ZM35,18.587a16.488,16.488,0,0,1-.606,4.445H28.071a28.219,28.219,0,0,0,.282-6.458,3.926,3.926,0,0,0,2.056-2.431H34.39A16.488,16.488,0,0,1,35,18.587ZM5.7,23.032H2.785a16.594,16.594,0,0,1,0-8.889H9.106a28.188,28.188,0,0,0-.337,5.467A4.884,4.884,0,0,0,5.7,23.032Zm20.957-8.249a1.729,1.729,0,1,1,1.73-1.73A1.732,1.732,0,0,1,26.658,14.783Zm-3.752-2.819H19.677V3.017a14.991,14.991,0,0,1,4.947,6.7,3.924,3.924,0,0,0-1.718,2.246ZM17.5,3.021v8.944H11.8a21.02,21.02,0,0,1,.873-2.546A14.78,14.78,0,0,1,17.5,3.021Zm0,11.122v8.889H15.153a4.876,4.876,0,0,0-4.214-3.687,25.912,25.912,0,0,1,.374-5.2ZM10.427,21.5A2.687,2.687,0,1,1,7.74,24.183,2.69,2.69,0,0,1,10.427,21.5Zm4.755,3.714H17.5v8.957a13.867,13.867,0,0,1-4.573-5.812A4.88,4.88,0,0,0,15.182,25.21Zm4.495,8.945V25.21h5.7a21.342,21.342,0,0,1-.71,2.142,14.954,14.954,0,0,1-4.989,6.8Zm0-11.124V14.143h3.229a3.917,3.917,0,0,0,3.289,2.79,25.938,25.938,0,0,1-.331,6.1H19.677ZM6.984,6.984a16.307,16.307,0,0,1,7.56-4.307,17.952,17.952,0,0,0-3.88,5.9,23.492,23.492,0,0,0-1.114,3.387H3.565a16.4,16.4,0,0,1,3.42-4.98ZM3.565,25.21H5.672a4.873,4.873,0,0,0,4.755,3.838c.14,0,.278-.007.415-.019a17.007,17.007,0,0,0,3.647,5.453A16.486,16.486,0,0,1,3.565,25.21Zm26.626,4.98A16.308,16.308,0,0,1,22.633,34.5a18.15,18.15,0,0,0,4.06-6.348,23.769,23.769,0,0,0,.934-2.939H33.61A16.4,16.4,0,0,1,30.191,30.191Z"/></g></g></svg>