<svg xmlns="http://www.w3.org/2000/svg" xmlns:xlink="http://www.w3.org/1999/xlink" width="70" height="70" viewBox="0 0 70 70"><defs><style>.a{fill:#fff;stroke:#707070;}.b{clip-path:url(#a);}.c{fill:#ff7f66;}.d{fill:#faf7f5;}</style><clipPath id="a"><rect class="a" width="70" height="70" transform="translate(246 2853)"/></clipPath></defs><g class="b" transform="translate(-246 -2853)"><g transform="translate(246.003 2853.088)"><circle class="c" cx="25.414" cy="25.414" r="25.414" transform="translate(17.74 1.352)"/><circle class="d" cx="18.982" cy="18.982" r="18.982" transform="translate(16.307 26.762) rotate(-45)"/><path class="d" d="M12.25,51.826l5.34-5.34,5.831,5.831-5.34,5.34Z"/><path class="d" d="M1.366,62.724,12.25,51.839l5.831,5.831L7.2,68.555Z"/><path d="M62.1,7.825A26.776,26.776,0,0,0,23.284,44.7l-2.772,2.772-3.947-3.947a1.362,1.362,0,0,0-1.926,1.926l1.038,1.038L.4,61.754a1.36,1.36,0,0,0,0,1.926l5.831,5.831a1.341,1.341,0,0,0,.97.4,1.4,1.4,0,0,0,.97-.4L23.434,54.243l1.038,1.038a1.341,1.341,0,0,0,.97.4,1.4,1.4,0,0,0,.97-.4,1.36,1.36,0,0,0,0-1.926l-3.947-3.947,2.772-2.772a26.765,26.765,0,0,0,36.845-.929A26.825,26.825,0,0,0,62.1,7.825ZM7.2,66.629,3.3,62.737l8.959-8.959,3.892,3.892Zm10.884-10.9-3.892-3.892L17.6,48.425,21.5,52.317ZM60.156,43.769a24.035,24.035,0,1,1,0-34A24.059,24.059,0,0,1,60.156,43.769Z"/><path d="M57.835,39.672a1.369,1.369,0,1,0-2.062,1.639,1.369,1.369,0,0,0,2.062-1.639Z"/><path d="M57.548,12.373a20.35,20.35,0,1,0-5.49,32.693,1.368,1.368,0,1,0-1.2-2.458,17.614,17.614,0,1,1,8.085-8.071,1.368,1.368,0,0,0,2.458,1.2,20.339,20.339,0,0,0-3.851-23.366Z"/><path class="c" d="M53.465,24.459H35.11a1.4,1.4,0,0,1-1.393-1.393h0a1.4,1.4,0,0,1,1.393-1.393H53.465a1.4,1.4,0,0,1,1.393,1.393h0A1.4,1.4,0,0,1,53.465,24.459Z"/><path class="c" d="M48.862,29.539H35.11a1.4,1.4,0,0,1-1.393-1.393h0a1.4,1.4,0,0,1,1.393-1.393H48.862a1.4,1.4,0,0,1,1.393,1.393h0A1.4,1.4,0,0,1,48.862,29.539Z"/><path class="c" d="M40.6,34.168H35.11a1.4,1.4,0,0,1-1.393-1.393h0a1.4,1.4,0,0,1,1.393-1.393H40.6a1.4,1.4,0,0,1,1.393,1.393h0A1.4,1.4,0,0,1,40.6,34.168Z"/></g></g></svg>