<svg xmlns="http://www.w3.org/2000/svg" xmlns:xlink="http://www.w3.org/1999/xlink" width="70" height="70" viewBox="0 0 70 70"><defs><style>.a{fill:#aeaeae;stroke:#707070;}.b{clip-path:url(#a);}.c{fill:#ff7f66;}</style><clipPath id="a"><rect class="a" width="70" height="70" transform="translate(246 2853)"/></clipPath></defs><g class="b" transform="translate(-246 -2853)"><g transform="translate(246.029 2853.014)"><path d="M48.8,21.691,45.6,24.9a21.278,21.278,0,0,1,1.341,3.149,23.364,23.364,0,0,1,4.082-.35H51.4A25.626,25.626,0,0,0,48.8,21.691ZM-.029,34.985A26.267,26.267,0,0,0,29.942,60.962,22.83,22.83,0,0,1,28.4,56.735a18.315,18.315,0,0,1-2.187.117,21.866,21.866,0,0,1,0-43.732,21.569,21.569,0,0,1,10.117,2.507l3.207-3.207A25.889,25.889,0,0,0,26.21,8.746,26.279,26.279,0,0,0-.029,34.985Z"/><path d="M10.175,34.985A16.063,16.063,0,0,0,26.21,51.02a12.715,12.715,0,0,0,1.487-.087,22.689,22.689,0,0,1,.437-4.461,10.268,10.268,0,0,1-1.924.175,11.662,11.662,0,1,1,0-23.324,8.981,8.981,0,0,1,2.187.233l3.528-3.528A15.558,15.558,0,0,0,26.21,18.95,16.063,16.063,0,0,0,10.175,34.985Z"/><path d="M26.21,29.155a5.831,5.831,0,1,0,5.831,5.831A5.848,5.848,0,0,0,26.21,29.155Zm0,7.289a1.458,1.458,0,1,1,1.458-1.458A1.444,1.444,0,0,1,26.21,36.443Z"/><path d="M26.239,37.172a2.188,2.188,0,0,1-1.545-3.735l18.95-18.95a2.187,2.187,0,1,1,3.093,3.093l-18.95,18.95A2.181,2.181,0,0,1,26.239,37.172Z"/><path d="M53.207,17.493H45.918a2.187,2.187,0,0,1-2.187-2.187V8.017a2.177,2.177,0,0,1,.641-1.545L50.2.641a2.185,2.185,0,0,1,3.732,1.545v5.1h5.1a2.185,2.185,0,0,1,1.545,3.732l-5.831,5.831A2.177,2.177,0,0,1,53.207,17.493Z"/><path class="c" d="M51.02,32.07a18.95,18.95,0,1,0,18.95,18.95A18.972,18.972,0,0,0,51.02,32.07Zm8.163,15.335-9.475,10.2a2.185,2.185,0,0,1-3.026.172l-5.1-4.373a2.187,2.187,0,1,1,2.848-3.321l3.507,3.006,8.041-8.662a2.187,2.187,0,0,1,3.207,2.974Z"/></g></g></svg>