<svg xmlns="http://www.w3.org/2000/svg" xmlns:xlink="http://www.w3.org/1999/xlink" width="70" height="70" viewBox="0 0 70 70"><defs><style>.a{fill:#fff;}.b{clip-path:url(#a);}</style><clipPath id="a"><circle class="a" cx="35" cy="35" r="35" transform="translate(274 3060)"/></clipPath></defs><g class="b" transform="translate(-274 -3060)"><g transform="translate(274 3060)"><g transform="translate(14.887 14.887)"><g transform="translate(0 0)"><path d="M16.123,33.957a.6.6,0,0,0-.807.237l-1.883,3.449-2.291-4.2a.6.6,0,0,0-1.045,0l-3.478,6.37,0,0L5.547,41.78a.6.6,0,1,0,1.045.57l.695-1.273.691.691a.6.6,0,0,0,.842,0l.373-.373L10.2,42.4a.591.591,0,0,0,.548.16l-3.9,7.147a.6.6,0,1,0,1.045.57L16.36,34.764A.6.6,0,0,0,16.123,33.957Zm-4.5,6.177-1.007,1.007L9.612,40.134a.6.6,0,0,0-.842,0l-.373.373-.517-.517,2.739-5.016,2.136,3.912-.593,1.086a.594.594,0,0,0-.535.163Z" transform="translate(-2.328 -14.095)"/><path d="M2.694,51.958a.6.6,0,0,0-.807.237L.073,55.517a.6.6,0,1,0,1.045.57l1.813-3.321A.6.6,0,0,0,2.694,51.958Z" transform="translate(0 -22.07)"/><path d="M50.7,30.194,46.48,22.471v0L45.273,20.26a.6.6,0,0,0-1.045.57l.989,1.811-.517.517-.373-.373a.6.6,0,0,0-.842,0l-1.007,1.007-1.007-1.007a.6.6,0,0,0-.842,0l-.373.373-.517-.518,2.739-5.016.415.761a.6.6,0,0,0,1.045-.57L43,16.1a.6.6,0,0,0-1.045,0l-3.18,5.823L31.252,8.139V6.109H37.48a.6.6,0,0,0,.493-.929l-1.44-2.126L37.973.929A.6.6,0,0,0,37.48,0H30.657a.6.6,0,0,0-.6.6V8.139l-5.2,9.523a.6.6,0,1,0,1.045.57l1.417-2.6.691.691a.6.6,0,0,0,.842,0l.373-.373,1.007,1.007a.6.6,0,0,0,.842,0l1.007-1.007.373.373a.6.6,0,0,0,.842,0l.691-.691L45.209,36.186a.6.6,0,0,0,1.045-.57L40.236,24.594a.593.593,0,0,0,.442-.173l.373-.373,1.007,1.007a.6.6,0,0,0,.842,0l1.007-1.007.373.373a.6.6,0,0,0,.842,0l.691-.691,3.84,7.034a.6.6,0,0,0,1.045-.57ZM35.321,3.388l1.037,1.531H31.252V1.19h5.106L35.321,2.721A.6.6,0,0,0,35.321,3.388ZM32.878,15.066l-.373-.373a.6.6,0,0,0-.842,0L30.657,15.7,29.65,14.693a.6.6,0,0,0-.842,0l-.373.373-.517-.517,2.739-5.016L33.4,14.549Z" transform="translate(-10.544 0)"/><path d="M32.859,40.159h1.493a.595.595,0,0,0,.458-.975l-5.078-6.109a.595.595,0,0,0-.915,0l-5.078,6.109a.595.595,0,0,0,.458.975h1.493L21.565,53.431a.6.6,0,0,0,.568.772H36.415a.6.6,0,0,0,.568-.772ZM22.942,53.012l4.124-13.271a.6.6,0,0,0-.568-.772H25.465l3.809-4.583,3.809,4.583H32.051a.6.6,0,0,0-.568.772l4.124,13.271Z" transform="translate(-9.162 -13.977)"/></g></g></g></g></svg>