<svg xmlns="http://www.w3.org/2000/svg" width="145.366" height="25.822" viewBox="0 0 145.366 25.822"><defs><style>.a{fill:#fff;}</style></defs><g transform="translate(-224.428 -451.048)"><g transform="translate(224.428 451.3)"><path class="a" d="M232.647,477.573,224.428,452h6.393l5.023,15.635L240.866,452h6.393l-8.219,25.571Z" transform="translate(-224.428 -452.002)"/><path class="a" d="M332.372,460.221v17.352h-6.393V460.221a1.84,1.84,0,0,0-1.826-1.826H320.5v19.178h-6.393V452l10.046.018V452a8.232,8.232,0,0,1,8.219,8.219Z" transform="translate(-290.454 -452.002)"/><path class="a" d="M387.871,452h6.393v1.826a9.728,9.728,0,0,0,3.47,7.123l4.42,4.183a7.306,7.306,0,0,1-5.206,12.438h-9.991V471.18h9.991a.918.918,0,0,0,.676-1.534l-3.361-3.215q-6.393-5.844-6.393-12.6Z" transform="translate(-344.09 -452.002)"/></g><g transform="translate(279.031 451.107)"><path class="a" d="M447.076,470.594a6.441,6.441,0,1,0,0-12.882H431.453v-6.441h15.623a12.882,12.882,0,1,1,0,25.764h-6.441V460.472h6.441Z" transform="translate(-431.453 -451.271)"/></g><path class="a" d="M550.181,451.048V476.87h5.647V456.7h7.8V476.87h5.647V456.7h7.8V476.87h5.647V456.7h7.8V476.87h5.647V456.7h7.8V476.87h5.647V451.048Z" transform="translate(-239.835 0)"/></g></svg>